<svg width="390" height="182" viewBox="0 0 390 182" fill="none" xmlns="http://www.w3.org/2000/svg">
<g clip-path="url(#clip0_6701_49687)">
<rect width="390" height="182" rx="20" fill="#06D1FF"/>
<g clip-path="url(#clip1_6701_49687)">
<path d="M431.851 36.4873C431.851 36.4232 431.82 36.3636 431.775 36.3178V36.217H223.853V53.5301H223.848V191.233H224.019C224.069 191.274 224.135 191.301 224.205 191.301H242.971C243.041 191.301 243.107 191.274 243.157 191.233H243.273V53.8828H412.345V191.228H412.516C412.566 191.269 412.632 191.297 412.702 191.297H431.468C431.538 191.297 431.604 191.269 431.654 191.228H431.77V53.8828V53.7271C431.815 53.6813 431.846 53.6217 431.846 53.5576V36.4873H431.851ZM412.999 37.0921L421.758 45.0225L412.999 52.9528V37.0921ZM422.151 45.3752L430.989 53.3789H413.312L422.151 45.3752ZM422.538 45.0225L431.216 37.1608V52.8841L422.538 45.0225ZM422.151 44.6697L413.372 36.7164H430.929L422.151 44.6697ZM403.299 44.6697L394.521 36.7164H412.078L403.299 44.6697ZM412.45 37.0921V52.9574L403.692 45.027L412.45 37.0921ZM393.599 52.9574L384.841 45.027L393.599 37.0967V52.9574ZM394.153 37.0921L402.911 45.0225L394.153 52.9528V37.0921ZM384.453 44.6697L375.675 36.7164H393.232L384.453 44.6697ZM374.753 52.9574L365.995 45.027L374.753 37.0967V52.9574ZM375.307 37.0921L384.065 45.0225L375.307 52.9528V37.0921ZM365.607 44.6697L356.829 36.7164H374.385L365.607 44.6697ZM355.907 52.9574L347.149 45.027L355.907 37.0967V52.9574ZM356.461 37.0921L365.219 45.0225L356.461 52.9528V37.0921ZM346.761 44.6697L337.982 36.7164H355.539L346.761 44.6697ZM337.061 52.9574L328.302 45.027L337.061 37.0967V52.9574ZM337.61 37.0921L346.368 45.0225L337.61 52.9528V37.0921ZM327.91 44.6697L319.131 36.7164H336.688L327.91 44.6697ZM318.209 52.9574L309.451 45.027L318.209 37.0921V52.9574ZM318.763 37.0921L327.522 45.0225L318.763 52.9528V37.0921ZM309.063 44.6697L300.285 36.7164H317.842L309.063 44.6697ZM299.363 52.9574L290.605 45.027L299.363 37.0967V52.9574ZM299.917 37.0921L308.676 45.0225L299.917 52.9528V37.0921ZM290.217 44.6697L281.439 36.7164H299.001L290.217 44.6697ZM280.517 52.9574L271.759 45.027L280.517 37.0967V52.9574ZM281.066 37.0921L289.824 45.0225L281.066 52.9528V37.0921ZM271.371 44.6697L262.593 36.7164H280.149L271.371 44.6697ZM261.671 52.9574L252.913 45.027L261.671 37.0967V52.9574ZM262.22 37.0921L270.978 45.0225L262.22 52.9528V37.0921ZM252.52 44.6697L243.741 36.7164H261.298L252.52 44.6697ZM242.82 52.9574L234.061 45.027L242.82 37.0967V52.9574ZM242.513 53.3835H224.835L233.674 45.3798L242.513 53.3835ZM243.374 37.0921L252.132 45.0225L243.374 52.9528V37.0921ZM233.674 44.6697L224.895 36.7164H242.452L233.674 44.6697ZM233.281 45.0225L224.402 53.0628V36.9821L233.281 45.0225ZM224.397 140.146L233.195 148.186L224.397 156.226V140.146ZM224.397 123.002L233.195 131.042L224.397 139.083V123.002ZM224.397 105.859L233.195 113.899L224.397 121.939V105.859ZM224.397 88.7105L233.195 96.7508L224.397 104.791V88.7105ZM224.87 156.506L233.588 148.539L242.306 156.506H224.87ZM242.306 157.01L233.588 164.977L224.87 157.01H242.306ZM224.87 139.866H242.311L233.593 147.833L224.87 139.866ZM224.87 139.362L233.588 131.395L242.306 139.362H224.87ZM224.87 122.718H242.311L233.593 130.685L224.87 122.718ZM224.87 122.219L233.588 114.252L242.306 122.219H224.87ZM224.87 105.575H242.311L233.593 113.542L224.87 105.575ZM224.87 105.075L233.588 97.1082L242.306 105.075H224.87ZM224.87 88.431H242.311L233.593 96.398L224.87 88.431ZM224.87 87.9271L233.588 79.9601L242.306 87.9271H224.87ZM224.397 87.6476V71.567L233.195 79.6073L224.397 87.6476ZM224.397 157.289L233.195 165.329L224.397 173.37V157.289ZM233.588 165.687L242.306 173.654H224.865L233.588 165.687ZM242.719 173.315L233.976 165.329L242.719 157.344V173.315ZM242.719 156.171L233.976 148.186L242.719 140.201V156.171ZM242.719 139.028L233.976 131.042L242.719 123.057V139.028ZM242.719 121.884L233.976 113.899L242.719 105.914V121.884ZM242.719 104.736L233.976 96.7508L242.719 88.7655V104.736ZM242.719 87.5926L233.976 79.6073L242.719 71.622V87.5926ZM233.588 79.2499L224.87 71.2829H242.311L233.588 79.2499ZM224.87 70.7836L233.588 62.8165L242.306 70.7836H224.87ZM224.397 70.5041V54.4234L233.195 62.4638L224.397 70.5041ZM242.306 174.153L233.588 182.12L224.87 174.153H242.306ZM233.976 62.4638L242.719 54.4784V70.4491L233.976 62.4638ZM233.588 62.1064L224.749 54.0294H242.432L233.588 62.1064ZM224.397 174.437L233.195 182.478L224.397 190.518V174.437ZM224.941 190.729L233.588 182.83L242.236 190.729H224.941ZM233.976 182.473L242.719 174.488V190.458L233.976 182.473ZM252.52 45.3752L261.359 53.3789H243.681L252.52 45.3752ZM271.371 45.3752L280.21 53.3789H262.532L271.371 45.3752ZM290.217 45.3752L299.056 53.3789H281.378L290.217 45.3752ZM309.063 45.3752L317.902 53.3789H300.225L309.063 45.3752ZM327.91 45.3752L336.748 53.3789H319.071L327.91 45.3752ZM346.761 45.3752L355.6 53.3789H337.922L346.761 45.3752ZM365.607 45.3752L374.446 53.3789H356.768L365.607 45.3752ZM384.453 45.3752L393.292 53.3789H375.614L384.453 45.3752ZM403.299 45.3752L412.138 53.3789H394.46L403.299 45.3752ZM421.697 62.4638L412.899 70.5041V54.4234L421.697 62.4638ZM412.899 157.289L421.697 165.329L412.899 173.37V157.289ZM412.899 140.146L421.697 148.186L412.899 156.226V140.146ZM412.899 123.002L421.697 131.042L412.899 139.083V123.002ZM412.899 105.859L421.697 113.899L412.899 121.939V105.859ZM412.899 88.7105L421.697 96.7508L412.899 104.791V88.7105ZM412.899 71.567L421.697 79.6073L412.899 87.6476V71.567ZM413.367 156.506L422.085 148.539L430.803 156.506H413.367ZM430.808 157.01L422.09 164.977L413.372 157.01H430.808ZM413.367 139.866H430.808L422.09 147.833L413.367 139.866ZM413.367 139.362L422.085 131.395L430.803 139.362H413.367ZM413.367 122.718H430.808L422.09 130.685L413.367 122.718ZM413.367 122.219L422.085 114.252L430.803 122.219H413.367ZM413.367 105.575H430.808L422.09 113.542L413.367 105.575ZM413.367 105.075L422.085 97.1082L430.803 105.075H413.367ZM413.367 88.431H430.808L422.09 96.398L413.367 88.431ZM413.367 87.9271L422.085 79.9601L430.803 87.9271H413.367ZM422.09 165.687L430.808 173.654H413.367L422.09 165.687ZM431.221 173.315L422.478 165.329L431.221 157.344V173.315ZM431.221 156.171L422.478 148.186L431.221 140.201V156.171ZM431.221 139.028L422.478 131.042L431.221 123.057V139.028ZM431.221 121.884L422.478 113.899L431.221 105.914V121.884ZM431.221 104.736L422.478 96.7508L431.221 88.7655V104.736ZM431.221 87.5926L422.478 79.6073L431.221 71.622V87.5926ZM422.09 79.2499L413.372 71.2829H430.813L422.09 79.2499ZM413.367 70.7836L422.085 62.8165L430.803 70.7836H413.367ZM430.808 174.153L422.09 182.12L413.372 174.153H430.808ZM422.478 62.4638L431.221 54.4784V70.4537L422.478 62.4638ZM422.09 62.1064L413.246 54.0294H430.929L422.09 62.1064ZM412.899 174.437L421.697 182.478L412.899 190.518V174.437ZM413.443 190.729L422.09 182.83L430.738 190.729H413.443ZM422.478 182.473L431.221 174.488V190.463L422.478 182.473Z" fill="#0D529D"/>
<path d="M445.854 170.948L209.977 170.969L221.131 164.396H435.561L445.854 170.948Z" fill="#EEEEEE"/>
<path d="M242.003 130.822H221.512V165.311H242.003V130.822Z" fill="#0D529D"/>
<path d="M231.446 149.786C227.739 149.786 224.723 146.646 224.723 142.788C224.723 138.93 227.739 135.791 231.446 135.791C235.152 135.791 238.169 138.93 238.169 142.788C238.169 146.646 235.157 149.786 231.446 149.786Z" fill="#0B3C71"/>
<path d="M231.444 136.504C234.773 136.504 237.482 139.324 237.482 142.788C237.482 146.253 234.773 149.073 231.444 149.073C228.115 149.073 225.406 146.253 225.406 142.788C225.406 139.324 228.115 136.504 231.444 136.504ZM231.444 135.073C227.35 135.073 224.031 138.527 224.031 142.788C224.031 147.05 227.35 150.504 231.444 150.504C235.538 150.504 238.857 147.05 238.857 142.788C238.857 138.527 235.538 135.073 231.444 135.073Z" fill="#CDFF98"/>
<path d="M233.785 158.618C233.785 159.965 232.738 161.055 231.443 161.055C230.149 161.055 229.102 159.965 229.102 158.618C229.102 157.271 230.149 156.18 231.443 156.18C232.738 156.186 233.785 157.276 233.785 158.618Z" fill="#CDFF98"/>
<path d="M242.003 96.4536H221.512V130.943H242.003V96.4536Z" fill="#0D529D"/>
<path d="M231.446 111.979C227.739 111.979 224.723 115.119 224.723 118.976C224.723 122.834 227.739 125.974 231.446 125.974C235.152 125.974 238.169 122.834 238.169 118.976C238.169 115.119 235.157 111.979 231.446 111.979Z" fill="#0B3C71"/>
<path d="M231.444 125.256C228.115 125.256 225.406 122.436 225.406 118.971C225.406 115.506 228.115 112.687 231.444 112.687C234.773 112.687 237.482 115.506 237.482 118.971C237.482 122.441 234.773 125.256 231.444 125.256ZM231.444 126.687C235.538 126.687 238.857 123.233 238.857 118.971C238.857 114.71 235.538 111.256 231.444 111.256C227.35 111.256 224.031 114.71 224.031 118.971C224.036 123.233 227.355 126.687 231.444 126.687Z" fill="#CDFF98"/>
<path d="M233.785 103.142C233.785 101.795 232.738 100.704 231.443 100.704C230.149 100.704 229.102 101.795 229.102 103.142C229.102 104.489 230.149 105.579 231.443 105.579C232.738 105.579 233.785 104.489 233.785 103.142Z" fill="#CDFF98"/>
<path d="M409.334 58.3354V160.084H246.664V58.3354H409.334ZM414.456 53.646H241.543V164.773H414.456V53.646Z" fill="#0D529D"/>
<path d="M411.795 56.4241H244.203V162.921H411.795V56.4241Z" fill="#EEEEEE"/>
<path d="M236.848 36.3335H234.984V44.6099H236.848V36.3335Z" fill="#0B3C71"/>
<path d="M243.332 36.3335H241.469V47.9015H243.332V36.3335Z" fill="#0B3C71"/>
<path d="M252.505 57.2263C251.694 59.1447 250.758 61.0212 249.579 62.7194C249.579 63.2645 248.487 64.1975 248.159 64.5907C247.56 63.6524 246.961 62.7089 246.366 61.7707C245.979 61.1575 245.032 60.172 245.047 59.3963C245.052 59.1866 245.138 58.9875 245.218 58.7935C245.661 57.7924 246.16 56.8175 246.714 55.874C247.268 54.9358 247.938 54.139 248.245 53.0803C249.877 53.075 251.513 53.1851 253.13 53.4052C253.215 53.4157 253.311 53.4314 253.371 53.5048C253.427 53.573 253.432 53.6673 253.427 53.7564C253.407 54.962 252.974 56.1203 252.505 57.2263Z" fill="#0D529D"/>
<path d="M243.225 61.2937C242.192 61.3566 241.185 61.3042 240.168 61.1627C239.453 61.0631 237.846 61.0264 237.403 60.387C237.338 61.5139 237.67 62.8085 237.801 63.9407C237.967 65.3245 238.128 66.7082 238.294 68.0973C238.294 68.1497 241.119 67.6989 241.316 67.6622C242.726 67.4001 243.985 67.0647 245.309 66.4986C245.345 66.4829 245.38 66.4671 245.395 66.4357C245.415 66.3938 245.4 66.3413 245.385 66.2994C245.032 65.2773 244.68 64.2552 244.327 63.2384C244.146 62.6932 243.965 61.2466 243.225 61.2937Z" fill="#0D529D"/>
<path d="M248.014 50.9732C247.364 50.1345 246.659 49.385 245.879 48.6984C245.33 48.2109 244.232 46.9896 243.477 47.0735C244.242 46.2715 245.385 45.6583 246.287 45.0083C247.384 44.2116 248.487 43.4097 249.585 42.613C249.62 42.5763 251.192 45.066 251.292 45.239C252.048 46.5074 252.647 47.7025 253.125 49.1072C253.135 49.1439 253.151 49.1806 253.135 49.2173C253.12 49.2645 253.075 49.2854 253.03 49.3011C252.063 49.71 251.101 50.1188 250.134 50.5277C249.63 50.7478 248.477 51.5707 248.014 50.9732Z" fill="#0D529D"/>
<path d="M244.034 49.731C243.606 51.2982 242.674 52.8654 242.065 54.3487C241.4 55.9631 240.433 57.934 239.119 59.0714C239.048 59.129 238.973 59.1919 238.887 59.2024C238.791 59.2129 238.696 59.1657 238.61 59.1185C236.827 58.1227 235.034 57.1425 233.247 56.1518C232.315 55.6329 231.378 55.114 230.452 54.5846C229.842 54.2387 228.463 53.7774 228.13 53.117C227.848 52.5561 228.16 51.4502 228.281 50.8736C228.463 49.9721 228.76 49.102 229.127 48.2686C229.883 46.5756 230.96 45.0503 232.189 43.698C232.642 43.1948 233.327 42.4767 234.058 42.5029C234.818 42.5291 235.825 43.3206 236.5 43.677C238.263 44.61 240.01 45.5849 241.702 46.6489C242.714 47.2832 244.457 47.9384 244.114 49.4322C244.084 49.5318 244.059 49.6314 244.034 49.731Z" fill="#0B3C71"/>
<path d="M247.43 56.8319C249.363 52.5254 248.881 48.038 246.354 46.809C243.827 45.5799 240.211 48.0747 238.278 52.3811C236.344 56.6876 236.826 61.1751 239.354 62.4041C241.881 63.6332 245.497 61.1384 247.43 56.8319Z" fill="#0B3C71"/>
<path d="M245.838 56.0734C244.755 58.4897 242.726 59.8892 241.31 59.1973C239.895 58.5107 239.623 55.9948 240.706 53.5784C241.789 51.1621 243.818 49.7626 245.233 50.4545C246.649 51.1463 246.921 53.6623 245.838 56.0734Z" fill="#F5E663"/>
<path d="M245.639 53.6883C244.239 55.9212 242.844 58.154 241.444 60.3869C240.598 59.3806 239.686 58.4685 238.83 57.4622C238.372 56.9223 237.848 56.3877 237.445 55.8006C237.083 55.2712 237.183 55.0039 237.35 54.3592C237.642 53.2427 238.12 52.1944 238.719 51.2247C239.117 50.5853 240.145 48.6983 240.89 48.4992C241.318 48.3838 242.25 48.9342 242.668 49.0914C243.277 49.3168 243.881 49.5527 244.481 49.7938C244.888 49.9615 247.442 50.7949 247.16 51.251C246.656 52.0634 246.147 52.8758 245.639 53.6883Z" fill="#0D529D"/>
<path d="M329.953 47.1917H331.816V36.3312H329.953V47.1917Z" fill="#0B3C71"/>
<path d="M323.465 47.8962H325.328V36.3282H323.465V47.8962Z" fill="#0B3C71"/>
<path d="M317.573 67.5208C319.37 68.4643 321.239 69.2924 323.188 69.8218C323.52 70.2412 324.935 70.2412 325.429 70.325C325.318 69.2033 325.202 68.0817 325.091 66.96C325.016 66.2314 325.147 64.8424 324.658 64.2553C324.527 64.0981 324.341 63.9985 324.155 63.9042C323.203 63.4219 322.221 63.0026 321.219 62.6409C320.217 62.2845 319.214 62.1115 318.333 61.4983C317.069 62.5728 315.876 63.7417 314.763 64.9839C314.702 65.052 314.637 65.1254 314.637 65.2198C314.637 65.3089 314.692 65.3823 314.748 65.4504C315.493 66.3729 316.535 66.9757 317.573 67.5208Z" fill="#0D529D"/>
<path d="M327.215 64.5173C328.051 63.8778 328.796 63.1755 329.491 62.3945C329.98 61.8441 331.203 60.7539 331.153 59.9624C331.893 60.7906 332.427 62.0066 333.016 62.971C333.736 64.1504 334.457 65.3245 335.177 66.5038C335.207 66.5458 332.749 68.0658 332.583 68.1706C331.334 68.9044 330.161 69.4758 328.791 69.9108C328.756 69.9213 328.721 69.9318 328.685 69.9213C328.645 69.9056 328.625 69.8532 328.61 69.8112C328.257 68.7891 327.905 67.7723 327.552 66.7502C327.361 66.2051 326.621 64.9733 327.215 64.5173Z" fill="#0D529D"/>
<path d="M317.22 59.7212C317.205 58.6415 317.296 57.6037 317.477 56.5501C317.603 55.8111 317.709 54.139 318.338 53.7092C317.26 53.5939 316.001 53.8822 314.909 53.9713C313.574 54.0814 312.235 54.1914 310.9 54.3067C310.85 54.3067 311.162 57.263 311.187 57.4674C311.378 58.9455 311.645 60.2664 312.134 61.6658C312.144 61.7025 312.159 61.7392 312.189 61.7602C312.23 61.7864 312.28 61.7707 312.32 61.7549C313.317 61.4352 314.309 61.1102 315.306 60.7853C315.835 60.6175 317.23 60.4917 317.22 59.7212Z" fill="#0D529D"/>
<path d="M319.533 56.1308C320.822 57.0586 322.499 57.6509 323.874 58.3899C325.375 59.1971 327.324 60.0777 329.036 60.0829C329.126 60.0829 329.217 60.0777 329.293 60.0305C329.373 59.9729 329.419 59.8733 329.454 59.7789C330.224 57.8291 331.01 55.8897 331.78 53.9399C332.183 52.923 332.586 51.9061 332.979 50.8841C333.236 50.2131 334.026 48.9447 333.875 48.2161C333.749 47.5976 332.833 46.9529 332.39 46.5808C331.7 46.0094 330.939 45.5272 330.144 45.1341C328.527 44.3269 326.765 43.8656 324.987 43.6298C324.327 43.5459 323.365 43.4411 322.816 43.9443C322.247 44.4632 321.955 45.7421 321.648 46.4707C320.857 48.3576 320.107 50.2655 319.447 52.2102C319.055 53.3685 318.108 55.0301 319.286 55.9526C319.372 56.0103 319.452 56.0732 319.533 56.1308Z" fill="#0B3C71"/>
<path d="M321.25 63.8517C325.375 65.8959 329.691 65.4294 330.889 62.8086C332.088 60.1878 329.716 56.4087 325.596 54.3645C321.472 52.3203 317.156 52.7868 315.958 55.4076C314.754 58.0283 317.126 61.8075 321.25 63.8517Z" fill="#0B3C71"/>
<path d="M322.021 62.2217C324.332 63.3695 326.749 63.1075 327.424 61.6398C328.094 60.1722 326.77 58.0494 324.458 56.9067C322.147 55.7588 319.729 56.0209 319.055 57.4886C318.38 58.9562 319.709 61.0738 322.021 62.2217Z" fill="#F5E663"/>
<path d="M320.706 60.2507C323.148 61.0474 325.591 61.8494 328.038 62.6461C328.073 61.3095 328.224 60.0044 328.27 58.6573C328.295 57.934 328.37 57.1792 328.325 56.4611C328.285 55.8111 328.038 55.6696 327.519 55.287C326.613 54.6213 325.601 54.1234 324.548 53.7722C323.853 53.5416 321.904 52.7711 321.209 53.1065C320.812 53.3005 320.424 54.3435 320.197 54.7366C319.865 55.3132 319.542 55.895 319.225 56.4821C319.009 56.8804 317.553 59.2129 318.047 59.3806C318.933 59.6689 319.819 59.9572 320.706 60.2507Z" fill="#0D529D"/>
<path d="M330.461 9.65981V9.58643C330.441 9.59691 330.421 9.61263 330.401 9.62312C330.38 9.61263 330.36 9.59691 330.34 9.58643V9.65981C294.036 30.605 191.223 36.271 191.223 36.271H329.842H330.975H469.594C469.578 36.271 366.77 30.6102 330.461 9.65981Z" fill="#0D529D"/>
<path d="M408.341 170.28H172.422V198.421H408.341V170.28Z" fill="#0D529D"/>
</g>
<path d="M284.43 152.865C284.43 152.865 294.886 156.664 296.056 167.202C297.171 177.246 287.45 175.999 285.16 173.506C282.87 171.013 281.061 157.507 281.061 157.507L284.43 152.865Z" fill="white" stroke="black" stroke-linecap="round" stroke-linejoin="round"/>
<path d="M250.452 167.669C249.78 170.487 245.393 179.272 238.362 187.937C236.945 189.683 236.587 191.272 238.793 192.597C240.998 193.921 250.359 194.532 255.5 190.181L250.452 167.667V167.669Z" fill="white" stroke="black" stroke-linecap="round" stroke-linejoin="round"/>
<path d="M264.43 137.257C264.43 137.257 262.637 135.165 259.857 136.003C257.049 136.852 256.403 139.49 256.846 141.193C257.583 144.023 260.814 144.371 260.814 144.371L264.43 137.257Z" fill="#0D529D" stroke="black" stroke-linecap="round" stroke-linejoin="round"/>
<path d="M260.324 144.287C260.324 144.287 258.607 142.131 255.858 142.946C253.082 143.768 252.391 146.445 252.79 148.182C253.454 151.071 256.622 151.474 256.622 151.474L260.324 144.287Z" fill="#0D529D" stroke="black" stroke-linecap="round" stroke-linejoin="round"/>
<path d="M256.617 152.088C256.617 152.088 254.9 149.932 252.151 150.747C249.375 151.569 248.684 154.246 249.083 155.983C249.747 158.872 252.915 159.275 252.915 159.275L256.617 152.088Z" fill="#0D529D" stroke="black" stroke-linecap="round" stroke-linejoin="round"/>
<path d="M271.203 133.74C271.203 133.74 270.466 131.343 267.748 131.033C264.999 130.721 263.423 132.686 263.147 134.266C262.686 136.893 264.349 137.717 264.349 137.717L271.201 133.737L271.203 133.74Z" fill="#0D529D" stroke="black" stroke-linecap="round" stroke-linejoin="round"/>
<path d="M285.018 153.597C285.018 153.597 284.61 154.053 284.614 154.085C284.63 154.221 284.797 154.264 285.073 154.456C285.137 154.499 285.178 154.519 285.296 154.588C285.331 154.608 285.347 154.651 285.358 154.686C286.147 157.397 287.979 164.9 287.237 174.038C286.371 184.731 280.607 193.96 269.365 193.994C253.348 194.044 247.071 185.605 250.214 168.256C253.118 152.232 259.082 141.448 265.439 136.59C271.714 131.793 279.081 132.187 283.536 134.889C291.186 139.529 289.557 148.912 285.016 153.602L285.018 153.597Z" fill="white"/>
<path d="M274.755 161.247C263.065 160.195 260.399 175.803 259.997 179.386C259.293 190.397 265.611 190.616 266.092 193.304C266.689 193.48 267.33 193.609 268.021 193.689C275.163 194.513 279.3 188.708 281.549 181.519C283.798 174.327 284.273 162.103 274.755 161.247Z" fill="#0D529D"/>
<path d="M286.489 159.642C287.16 163.312 287.716 168.422 287.249 174.182C286.852 179.088 285.41 183.802 282.895 187.345" stroke="black" stroke-linecap="round" stroke-linejoin="round"/>
<path d="M248.839 171.721C249.441 170.744 250.046 169.399 250.226 168.399C253.13 152.375 259.094 141.591 265.451 136.733C271.726 131.937 279.093 132.33 283.547 135.033C291.197 139.672 289.569 149.056 285.028 153.746" stroke="black" stroke-linecap="round" stroke-linejoin="round"/>
<path d="M267.976 139.231C267.178 139.317 266.523 139.672 266.013 140.294C265.515 140.92 265.31 141.635 265.399 142.436C265.488 143.24 265.842 143.888 266.462 144.385C267.096 144.885 267.812 145.095 268.61 145.006C269.409 144.917 270.066 144.562 270.563 143.936C271.067 143.317 271.275 142.604 271.188 141.801C271.099 140.997 270.741 140.346 270.114 139.843C269.493 139.347 268.782 139.142 267.976 139.231Z" fill="#385DA4"/>
<path d="M284.646 138.295C283.964 138.375 283.408 138.721 282.977 139.335C282.557 139.955 282.391 140.667 282.475 141.471C282.559 142.274 282.869 142.928 283.405 143.431C283.953 143.939 284.569 144.155 285.253 144.075C285.942 143.995 286.494 143.647 286.913 143.026C287.338 142.411 287.509 141.703 287.424 140.899C287.34 140.096 287.028 139.44 286.485 138.932C285.949 138.429 285.335 138.218 284.646 138.297V138.295Z" fill="#385DA4"/>
<path d="M269.031 169.415C269.031 169.415 268.199 174.269 262.786 174.476C257.374 174.683 255.43 172.463 255.152 171.947" fill="white"/>
<path d="M269.031 169.415C269.031 169.415 268.199 174.269 262.786 174.476C257.374 174.683 255.43 172.463 255.152 171.947" stroke="black" stroke-linecap="round" stroke-linejoin="round"/>
<path d="M270.74 143.051C275.514 143.538 279.764 143.242 283.488 142.163C283.488 142.163 283.126 148.009 276.509 147.906C270.291 147.811 270.74 143.051 270.74 143.051Z" fill="#FEFEFF" stroke="black" stroke-linecap="round" stroke-linejoin="round"/>
<path d="M271.719 141.227C271.719 141.227 273.933 140.728 273.828 140.084C273.723 139.44 271.871 138.923 271.871 138.923" stroke="black" stroke-linecap="round" stroke-linejoin="round"/>
<path d="M282.43 140.485C282.43 140.485 280.657 140.021 280.751 139.376C280.844 138.732 282.341 138.186 282.341 138.186" stroke="black" stroke-linecap="round" stroke-linejoin="round"/>
<path d="M271.81 143.18C271.778 144.371 272.318 144.977 273.069 144.942C274.253 144.888 274.239 143.365 274.239 143.365C274.506 144.428 275.042 145.011 275.845 144.995C276.648 144.977 277.202 144.33 277.266 143.21C275.336 143.41 273.5 143.435 271.812 143.183L271.81 143.18Z" fill="white" stroke="black" stroke-linecap="round" stroke-linejoin="round"/>
<path d="M297.133 158.695C297.133 158.695 297.81 156.648 295.931 155.747C294.051 154.845 293.1 156.259 293.1 156.259C293.1 156.259 291.716 154.408 289.971 154.973C288.226 155.537 288.251 156.623 288.251 156.623C288.251 156.623 286.709 156.184 285.528 157.267C284.321 158.374 284.805 159.997 284.805 159.997C284.805 159.997 283.363 160.423 283.153 162.337C282.93 164.375 284.419 165.474 284.419 165.474C284.419 165.474 283.527 167.061 284.631 168.65C285.525 169.934 286.67 169.683 286.67 169.683C286.67 169.683 286.917 170.888 288.475 171.229C290.032 171.571 290.735 170.646 290.735 170.646C290.735 170.646 291.634 171.514 293.023 171.284C294.56 171.029 294.699 169.977 294.699 169.977C294.699 169.977 296.487 170.553 297.509 169.296C298.531 168.04 297.947 167.391 297.947 167.391C297.947 167.391 300.07 167.578 300.23 165.513C300.39 163.45 299.297 163.068 299.297 163.068C299.297 163.068 300.652 161.247 299.742 159.84C298.832 158.431 297.133 158.695 297.133 158.695Z" fill="#F5E663" stroke="#E5B428" stroke-linecap="round" stroke-linejoin="round"/>
<path d="M294.46 161.276C294.46 161.276 295.601 161.164 295.767 162.66C295.934 164.156 294.887 164.304 294.887 164.304" stroke="#E5B428" stroke-linecap="round" stroke-linejoin="round"/>
<path d="M290.32 166.535C290.32 166.535 289.415 167.136 288.598 166.535C287.779 165.934 288.08 164.987 288.08 164.987C288.08 164.987 287.015 164.704 286.858 163.53C286.705 162.371 287.608 161.804 287.608 161.804" stroke="#E5B428" stroke-linecap="round" stroke-linejoin="round"/>
<path d="M272.238 158.695C272.238 158.695 272.916 156.648 271.036 155.747C269.157 154.845 268.206 156.259 268.206 156.259C268.206 156.259 266.821 154.408 265.076 154.973C263.331 155.537 263.356 156.623 263.356 156.623C263.356 156.623 261.815 156.184 260.633 157.267C259.427 158.374 259.91 159.997 259.91 159.997C259.91 159.997 258.469 160.423 258.259 162.337C258.035 164.375 259.525 165.474 259.525 165.474C259.525 165.474 258.633 167.061 259.737 168.65C260.631 169.934 261.776 169.683 261.776 169.683C261.776 169.683 262.022 170.888 263.58 171.229C265.138 171.571 265.84 170.646 265.84 170.646C265.84 170.646 266.739 171.514 268.128 171.284C269.665 171.029 269.805 169.977 269.805 169.977C269.805 169.977 271.593 170.553 272.615 169.296C273.636 168.04 273.052 167.391 273.052 167.391C273.052 167.391 275.176 167.578 275.336 165.513C275.495 163.45 274.403 163.068 274.403 163.068C274.403 163.068 275.758 161.247 274.848 159.84C273.937 158.431 272.238 158.695 272.238 158.695Z" fill="#F5E663" stroke="#E5B428" stroke-linecap="round" stroke-linejoin="round"/>
<path d="M269.562 161.276C269.562 161.276 270.702 161.164 270.869 162.66C271.035 164.156 269.988 164.304 269.988 164.304" stroke="#E5B428" stroke-linecap="round" stroke-linejoin="round"/>
<path d="M265.422 166.535C265.422 166.535 264.516 167.136 263.7 166.535C262.881 165.934 263.182 164.987 263.182 164.987C263.182 164.987 262.117 164.704 261.959 163.53C261.807 162.371 262.71 161.804 262.71 161.804" stroke="#E5B428" stroke-linecap="round" stroke-linejoin="round"/>
<path d="M291.621 133.71C291.621 133.71 295.393 137.642 295.512 143.973" stroke="black" stroke-linecap="round" stroke-linejoin="round"/>
<path d="M295.805 134.814C295.805 134.814 293.713 135.891 291.624 136.968" stroke="black" stroke-linecap="round" stroke-linejoin="round"/>
<path d="M297.699 139.561C297.699 139.561 293.79 140.453 293.08 140.587" stroke="black" stroke-linecap="round" stroke-linejoin="round"/>
<path d="M302.329 157.836C302.329 157.836 303.366 159.908 303.453 163.102" stroke="black" stroke-linecap="round" stroke-linejoin="round"/>
<path d="M305.616 159.305C305.616 159.305 306.36 161.852 306.013 164.397" stroke="black" stroke-linecap="round" stroke-linejoin="round"/>
<path d="M250.575 152.865C250.575 152.865 261.03 156.664 262.2 167.202C263.316 177.246 253.595 175.999 251.305 173.506C249.015 171.013 247.206 157.507 247.206 157.507L250.575 152.865Z" fill="white" stroke="black" stroke-linecap="round" stroke-linejoin="round"/>
<path d="M216.597 167.669C215.924 170.487 211.538 179.272 204.506 187.937C203.09 189.683 202.732 191.272 204.937 192.597C207.143 193.921 216.503 194.532 221.645 190.181L216.597 167.667V167.669Z" fill="white" stroke="black" stroke-linecap="round" stroke-linejoin="round"/>
<path d="M230.574 137.257C230.574 137.257 228.781 135.165 226.001 136.003C223.193 136.852 222.548 139.49 222.99 141.193C223.727 144.023 226.959 144.371 226.959 144.371L230.574 137.257Z" fill="#0D529D" stroke="black" stroke-linecap="round" stroke-linejoin="round"/>
<path d="M226.469 144.287C226.469 144.287 224.751 142.131 222.003 142.946C219.227 143.768 218.536 146.445 218.935 148.182C219.599 151.071 222.767 151.474 222.767 151.474L226.469 144.287Z" fill="#0D529D" stroke="black" stroke-linecap="round" stroke-linejoin="round"/>
<path d="M222.762 152.088C222.762 152.088 221.044 149.932 218.296 150.747C215.52 151.569 214.829 154.246 215.228 155.983C215.892 158.872 219.06 159.275 219.06 159.275L222.762 152.088Z" fill="#0D529D" stroke="black" stroke-linecap="round" stroke-linejoin="round"/>
<path d="M237.348 133.74C237.348 133.74 236.611 131.343 233.892 131.033C231.144 130.721 229.568 132.686 229.292 134.266C228.831 136.893 230.494 137.717 230.494 137.717L237.345 133.737L237.348 133.74Z" fill="#0D529D" stroke="black" stroke-linecap="round" stroke-linejoin="round"/>
<path d="M251.163 153.597C251.163 153.597 250.754 154.053 250.759 154.085C250.775 154.221 250.941 154.264 251.217 154.456C251.281 154.499 251.322 154.519 251.441 154.588C251.475 154.608 251.491 154.651 251.503 154.686C252.292 157.397 254.123 164.9 253.382 174.038C252.515 184.731 246.752 193.96 235.509 193.994C219.493 194.044 213.216 185.605 216.359 168.256C219.262 152.232 225.227 141.448 231.584 136.59C237.858 131.793 245.226 132.187 249.68 134.889C257.33 139.529 255.702 148.912 251.16 153.602L251.163 153.597Z" fill="white"/>
<path d="M240.899 161.247C229.21 160.195 226.543 175.803 226.142 179.386C225.437 190.397 231.755 190.616 232.236 193.304C232.834 193.48 233.475 193.609 234.166 193.689C241.307 194.513 245.445 188.708 247.694 181.519C249.943 174.327 250.417 162.103 240.899 161.247Z" fill="#0D529D"/>
<path d="M252.634 159.642C253.304 163.312 253.861 168.422 253.393 174.182C252.997 179.088 251.555 183.802 249.039 187.345" stroke="black" stroke-linecap="round" stroke-linejoin="round"/>
<path d="M214.984 171.721C215.586 170.744 216.19 169.399 216.371 168.399C219.274 152.375 225.239 141.591 231.595 136.733C237.87 131.937 245.237 132.33 249.692 135.033C257.342 139.672 255.713 149.056 251.172 153.746" stroke="black" stroke-linecap="round" stroke-linejoin="round"/>
<path d="M234.121 139.231C233.323 139.317 232.668 139.672 232.157 140.294C231.66 140.92 231.455 141.635 231.544 142.436C231.633 143.24 231.986 143.888 232.606 144.385C233.241 144.885 233.957 145.095 234.755 145.006C235.553 144.917 236.21 144.562 236.707 143.936C237.212 143.317 237.419 142.604 237.332 141.801C237.243 140.997 236.885 140.346 236.258 139.843C235.638 139.347 234.926 139.142 234.121 139.231Z" fill="#385DA4"/>
<path d="M250.791 138.295C250.109 138.375 249.552 138.721 249.121 139.335C248.702 139.955 248.535 140.667 248.619 141.471C248.704 142.274 249.014 142.928 249.55 143.431C250.097 143.939 250.713 144.155 251.398 144.075C252.086 143.995 252.638 143.647 253.058 143.026C253.482 142.411 253.653 141.703 253.569 140.899C253.485 140.096 253.172 139.44 252.629 138.932C252.093 138.429 251.48 138.218 250.791 138.297V138.295Z" fill="#385DA4"/>
<path d="M235.176 169.415C235.176 169.415 234.343 174.269 228.931 174.476C223.518 174.683 221.575 172.463 221.297 171.947" fill="white"/>
<path d="M235.176 169.415C235.176 169.415 234.343 174.269 228.931 174.476C223.518 174.683 221.575 172.463 221.297 171.947" stroke="black" stroke-linecap="round" stroke-linejoin="round"/>
<path d="M236.885 143.05C241.659 143.538 245.908 143.242 249.633 142.163C249.633 142.163 249.27 148.009 242.653 147.906C236.436 147.811 236.885 143.05 236.885 143.05Z" fill="#FEFEFF" stroke="black" stroke-linecap="round" stroke-linejoin="round"/>
<path d="M237.863 141.227C237.863 141.227 240.078 140.728 239.973 140.084C239.868 139.44 238.016 138.923 238.016 138.923" stroke="black" stroke-linecap="round" stroke-linejoin="round"/>
<path d="M248.574 140.485C248.574 140.485 246.802 140.021 246.895 139.376C246.989 138.732 248.485 138.186 248.485 138.186" stroke="black" stroke-linecap="round" stroke-linejoin="round"/>
<path d="M237.954 143.18C237.922 144.371 238.463 144.977 239.213 144.942C240.397 144.888 240.383 143.365 240.383 143.365C240.65 144.428 241.186 145.011 241.989 144.995C242.792 144.977 243.346 144.33 243.41 143.21C241.481 143.41 239.644 143.435 237.957 143.183L237.954 143.18Z" fill="white" stroke="black" stroke-linecap="round" stroke-linejoin="round"/>
<path d="M263.277 158.695C263.277 158.695 263.955 156.648 262.075 155.747C260.196 154.845 259.245 156.259 259.245 156.259C259.245 156.259 257.86 154.408 256.115 154.973C254.37 155.537 254.396 156.623 254.396 156.623C254.396 156.623 252.854 156.184 251.672 157.267C250.466 158.374 250.949 159.997 250.949 159.997C250.949 159.997 249.508 160.423 249.298 162.337C249.074 164.375 250.564 165.474 250.564 165.474C250.564 165.474 249.672 167.061 250.776 168.65C251.67 169.934 252.815 169.683 252.815 169.683C252.815 169.683 253.061 170.888 254.619 171.229C256.177 171.571 256.879 170.646 256.879 170.646C256.879 170.646 257.778 171.514 259.167 171.284C260.704 171.029 260.844 169.977 260.844 169.977C260.844 169.977 262.632 170.553 263.654 169.296C264.675 168.04 264.092 167.391 264.092 167.391C264.092 167.391 266.215 167.578 266.375 165.513C266.534 163.45 265.442 163.068 265.442 163.068C265.442 163.068 266.797 161.247 265.887 159.84C264.977 158.431 263.277 158.695 263.277 158.695Z" fill="#F5E663" stroke="#E5B428" stroke-linecap="round" stroke-linejoin="round"/>
<path d="M260.605 161.276C260.605 161.276 261.745 161.164 261.912 162.66C262.078 164.156 261.031 164.304 261.031 164.304" stroke="#E5B428" stroke-linecap="round" stroke-linejoin="round"/>
<path d="M256.465 166.535C256.465 166.535 255.559 167.136 254.743 166.535C253.924 165.934 254.225 164.987 254.225 164.987C254.225 164.987 253.16 164.704 253.002 163.53C252.85 162.371 253.753 161.804 253.753 161.804" stroke="#E5B428" stroke-linecap="round" stroke-linejoin="round"/>
<path d="M238.383 158.695C238.383 158.695 239.06 156.648 237.181 155.747C235.301 154.845 234.35 156.259 234.35 156.259C234.35 156.259 232.966 154.408 231.221 154.973C229.476 155.537 229.501 156.623 229.501 156.623C229.501 156.623 227.959 156.184 226.778 157.267C225.571 158.374 226.055 159.997 226.055 159.997C226.055 159.997 224.613 160.423 224.403 162.337C224.18 164.375 225.669 165.474 225.669 165.474C225.669 165.474 224.777 167.061 225.881 168.65C226.775 169.934 227.92 169.683 227.92 169.683C227.92 169.683 228.167 170.888 229.725 171.229C231.282 171.571 231.985 170.646 231.985 170.646C231.985 170.646 232.884 171.514 234.273 171.284C235.81 171.029 235.949 169.977 235.949 169.977C235.949 169.977 237.737 170.553 238.759 169.296C239.781 168.04 239.197 167.391 239.197 167.391C239.197 167.391 241.32 167.578 241.48 165.513C241.64 163.45 240.547 163.068 240.547 163.068C240.547 163.068 241.902 161.247 240.992 159.84C240.082 158.431 238.383 158.695 238.383 158.695Z" fill="#F5E663" stroke="#E5B428" stroke-linecap="round" stroke-linejoin="round"/>
<path d="M235.706 161.276C235.706 161.276 236.847 161.164 237.013 162.66C237.18 164.156 236.133 164.304 236.133 164.304" stroke="#E5B428" stroke-linecap="round" stroke-linejoin="round"/>
<path d="M231.566 166.535C231.566 166.535 230.661 167.136 229.844 166.535C229.026 165.934 229.327 164.987 229.327 164.987C229.327 164.987 228.261 164.704 228.104 163.53C227.951 162.371 228.854 161.804 228.854 161.804" stroke="#E5B428" stroke-linecap="round" stroke-linejoin="round"/>
<path d="M257.765 133.71C257.765 133.71 261.538 137.642 261.656 143.973" stroke="black" stroke-linecap="round" stroke-linejoin="round"/>
<path d="M261.949 134.814C261.949 134.814 259.858 135.891 257.768 136.968" stroke="black" stroke-linecap="round" stroke-linejoin="round"/>
<path d="M263.844 139.561C263.844 139.561 259.934 140.453 259.225 140.587" stroke="black" stroke-linecap="round" stroke-linejoin="round"/>
<path d="M268.473 157.836C268.473 157.836 269.511 159.908 269.598 163.102" stroke="black" stroke-linecap="round" stroke-linejoin="round"/>
<path d="M271.761 159.305C271.761 159.305 272.505 161.852 272.158 164.397" stroke="black" stroke-linecap="round" stroke-linejoin="round"/>
<path d="M213.211 152.865C213.211 152.865 223.667 156.664 224.837 167.202C225.952 177.246 216.231 175.999 213.941 173.506C211.651 171.013 209.843 157.507 209.843 157.507L213.211 152.865Z" fill="white" stroke="black" stroke-linecap="round" stroke-linejoin="round"/>
<path d="M179.234 167.669C178.561 170.487 174.175 179.272 167.143 187.937C165.726 189.683 165.368 191.272 167.574 192.597C169.779 193.921 179.14 194.532 184.281 190.181L179.234 167.667V167.669Z" fill="white" stroke="black" stroke-linecap="round" stroke-linejoin="round"/>
<path d="M193.211 137.257C193.211 137.257 191.418 135.165 188.638 136.003C185.83 136.852 185.185 139.49 185.627 141.193C186.364 144.023 189.596 144.371 189.596 144.371L193.211 137.257Z" fill="#0D529D" stroke="black" stroke-linecap="round" stroke-linejoin="round"/>
<path d="M189.105 144.287C189.105 144.287 187.388 142.131 184.64 142.946C181.864 143.768 181.173 146.445 181.572 148.182C182.235 151.071 185.404 151.474 185.404 151.474L189.105 144.287Z" fill="#0D529D" stroke="black" stroke-linecap="round" stroke-linejoin="round"/>
<path d="M185.398 152.088C185.398 152.088 183.681 149.932 180.932 150.747C178.157 151.569 177.466 154.246 177.865 155.983C178.528 158.872 181.697 159.275 181.697 159.275L185.398 152.088Z" fill="#0D529D" stroke="black" stroke-linecap="round" stroke-linejoin="round"/>
<path d="M199.984 133.74C199.984 133.74 199.248 131.343 196.529 131.033C193.78 130.721 192.204 132.686 191.928 134.266C191.468 136.893 193.13 137.717 193.13 137.717L199.982 133.737L199.984 133.74Z" fill="#0D529D" stroke="black" stroke-linecap="round" stroke-linejoin="round"/>
<path d="M213.799 153.597C213.799 153.597 213.391 154.053 213.396 154.085C213.412 154.221 213.578 154.264 213.854 154.456C213.918 154.499 213.959 154.519 214.078 154.588C214.112 154.608 214.128 154.651 214.139 154.686C214.928 157.397 216.76 164.9 216.019 174.038C215.152 184.731 209.388 193.96 198.146 193.994C182.13 194.044 175.853 185.605 178.996 168.256C181.899 152.232 187.864 141.448 194.22 136.59C200.495 131.793 207.862 132.187 212.317 134.889C219.967 139.529 218.338 148.912 213.797 153.602L213.799 153.597Z" fill="white"/>
<path d="M203.536 161.247C191.846 160.195 189.18 175.803 188.779 179.386C188.074 190.397 194.392 190.616 194.873 193.304C195.471 193.48 196.112 193.609 196.803 193.689C203.944 194.513 208.082 188.708 210.331 181.519C212.58 174.327 213.054 162.103 203.536 161.247Z" fill="#0D529D"/>
<path d="M215.271 159.642C215.941 163.312 216.498 168.422 216.03 174.182C215.633 179.088 214.192 183.802 211.676 187.345" stroke="black" stroke-linecap="round" stroke-linejoin="round"/>
<path d="M177.621 171.721C178.223 170.744 178.827 169.399 179.007 168.399C181.911 152.375 187.875 141.591 194.232 136.733C200.507 131.937 207.874 132.33 212.329 135.033C219.979 139.672 218.35 149.056 213.809 153.746" stroke="black" stroke-linecap="round" stroke-linejoin="round"/>
<path d="M196.758 139.231C195.959 139.317 195.305 139.672 194.794 140.294C194.297 140.92 194.091 141.635 194.18 142.436C194.269 143.24 194.623 143.888 195.243 144.385C195.877 144.885 196.593 145.095 197.392 145.006C198.19 144.917 198.847 144.562 199.344 143.936C199.848 143.317 200.056 142.604 199.969 141.801C199.88 140.997 199.522 140.346 198.895 139.843C198.274 139.347 197.563 139.142 196.758 139.231Z" fill="#385DA4"/>
<path d="M213.428 138.295C212.746 138.375 212.189 138.721 211.758 139.335C211.338 139.955 211.172 140.667 211.256 141.471C211.341 142.274 211.651 142.928 212.187 143.431C212.734 143.939 213.35 144.155 214.034 144.075C214.723 143.995 215.275 143.647 215.695 143.026C216.119 142.411 216.29 141.703 216.206 140.899C216.121 140.096 215.809 139.44 215.266 138.932C214.73 138.429 214.116 138.218 213.428 138.297V138.295Z" fill="#385DA4"/>
<path d="M197.812 169.415C197.812 169.415 196.98 174.269 191.567 174.476C186.155 174.683 184.212 172.463 183.933 171.947" fill="white"/>
<path d="M197.812 169.415C197.812 169.415 196.98 174.269 191.567 174.476C186.155 174.683 184.212 172.463 183.933 171.947" stroke="black" stroke-linecap="round" stroke-linejoin="round"/>
<path d="M199.522 143.051C204.296 143.538 208.545 143.242 212.27 142.163C212.27 142.163 211.907 148.009 205.29 147.906C199.072 147.811 199.522 143.051 199.522 143.051Z" fill="#FEFEFF" stroke="black" stroke-linecap="round" stroke-linejoin="round"/>
<path d="M200.5 141.227C200.5 141.227 202.715 140.728 202.61 140.084C202.505 139.44 200.653 138.923 200.653 138.923" stroke="black" stroke-linecap="round" stroke-linejoin="round"/>
<path d="M211.211 140.485C211.211 140.485 209.439 140.021 209.532 139.376C209.626 138.732 211.122 138.186 211.122 138.186" stroke="black" stroke-linecap="round" stroke-linejoin="round"/>
<path d="M200.591 143.18C200.559 144.371 201.1 144.977 201.85 144.942C203.034 144.888 203.02 143.365 203.02 143.365C203.287 144.428 203.823 145.011 204.626 144.995C205.429 144.977 205.983 144.33 206.047 143.21C204.117 143.41 202.281 143.435 200.593 143.183L200.591 143.18Z" fill="white" stroke="black" stroke-linecap="round" stroke-linejoin="round"/>
<path d="M225.914 158.695C225.914 158.695 226.591 156.648 224.712 155.747C222.833 154.845 221.881 156.259 221.881 156.259C221.881 156.259 220.497 154.408 218.752 154.973C217.007 155.537 217.032 156.623 217.032 156.623C217.032 156.623 215.49 156.184 214.309 157.267C213.102 158.374 213.586 159.997 213.586 159.997C213.586 159.997 212.144 160.423 211.935 162.337C211.711 164.375 213.2 165.474 213.2 165.474C213.2 165.474 212.309 167.061 213.413 168.65C214.307 169.934 215.452 169.683 215.452 169.683C215.452 169.683 215.698 170.888 217.256 171.229C218.814 171.571 219.516 170.646 219.516 170.646C219.516 170.646 220.415 171.514 221.804 171.284C223.341 171.029 223.48 169.977 223.48 169.977C223.48 169.977 225.268 170.553 226.29 169.296C227.312 168.04 226.728 167.391 226.728 167.391C226.728 167.391 228.852 167.578 229.011 165.513C229.171 163.45 228.079 163.068 228.079 163.068C228.079 163.068 229.433 161.247 228.523 159.84C227.613 158.431 225.914 158.695 225.914 158.695Z" fill="#F5E663" stroke="#E5B428" stroke-linecap="round" stroke-linejoin="round"/>
<path d="M223.241 161.276C223.241 161.276 224.382 161.164 224.548 162.66C224.715 164.156 223.668 164.304 223.668 164.304" stroke="#E5B428" stroke-linecap="round" stroke-linejoin="round"/>
<path d="M219.102 166.535C219.102 166.535 218.196 167.136 217.379 166.535C216.561 165.934 216.862 164.987 216.862 164.987C216.862 164.987 215.797 164.704 215.639 163.53C215.486 162.371 216.39 161.804 216.39 161.804" stroke="#E5B428" stroke-linecap="round" stroke-linejoin="round"/>
<path d="M201.019 158.695C201.019 158.695 201.697 156.648 199.817 155.747C197.938 154.845 196.987 156.259 196.987 156.259C196.987 156.259 195.602 154.408 193.858 154.973C192.113 155.537 192.138 156.623 192.138 156.623C192.138 156.623 190.596 156.184 189.414 157.267C188.208 158.374 188.691 159.997 188.691 159.997C188.691 159.997 187.25 160.423 187.04 162.337C186.816 164.375 188.306 165.474 188.306 165.474C188.306 165.474 187.414 167.061 188.518 168.65C189.412 169.934 190.557 169.683 190.557 169.683C190.557 169.683 190.803 170.888 192.361 171.229C193.919 171.571 194.622 170.646 194.622 170.646C194.622 170.646 195.52 171.514 196.909 171.284C198.447 171.029 198.586 169.977 198.586 169.977C198.586 169.977 200.374 170.553 201.396 169.296C202.418 168.04 201.834 167.391 201.834 167.391C201.834 167.391 203.957 167.578 204.117 165.513C204.277 163.45 203.184 163.068 203.184 163.068C203.184 163.068 204.539 161.247 203.629 159.84C202.719 158.431 201.019 158.695 201.019 158.695Z" fill="#F5E663" stroke="#E5B428" stroke-linecap="round" stroke-linejoin="round"/>
<path d="M198.343 161.276C198.343 161.276 199.484 161.164 199.65 162.66C199.817 164.156 198.77 164.304 198.77 164.304" stroke="#E5B428" stroke-linecap="round" stroke-linejoin="round"/>
<path d="M194.203 166.535C194.203 166.535 193.298 167.136 192.481 166.535C191.662 165.934 191.963 164.987 191.963 164.987C191.963 164.987 190.898 164.704 190.741 163.53C190.588 162.371 191.491 161.804 191.491 161.804" stroke="#E5B428" stroke-linecap="round" stroke-linejoin="round"/>
<path d="M220.402 133.71C220.402 133.71 224.174 137.642 224.293 143.973" stroke="black" stroke-linecap="round" stroke-linejoin="round"/>
<path d="M224.586 134.814C224.586 134.814 222.494 135.891 220.405 136.968" stroke="black" stroke-linecap="round" stroke-linejoin="round"/>
<path d="M226.48 139.561C226.48 139.561 222.571 140.453 221.862 140.587" stroke="black" stroke-linecap="round" stroke-linejoin="round"/>
<path d="M231.11 157.836C231.11 157.836 232.148 159.908 232.234 163.102" stroke="black" stroke-linecap="round" stroke-linejoin="round"/>
<path d="M234.398 159.305C234.398 159.305 235.141 161.852 234.795 164.397" stroke="black" stroke-linecap="round" stroke-linejoin="round"/>
</g>
<rect x="0.25" y="0.25" width="389.5" height="181.5" rx="19.75" stroke="#0073F0" stroke-opacity="0.16" stroke-width="0.5"/>
<defs>
<clipPath id="clip0_6701_49687">
<rect width="390" height="182" rx="20" fill="white"/>
</clipPath>
<clipPath id="clip1_6701_49687">
<rect width="274" height="190" fill="white" transform="translate(191 10)"/>
</clipPath>
</defs>
</svg>
