<svg width="390" height="182" viewBox="0 0 390 182" fill="none" xmlns="http://www.w3.org/2000/svg">
<g clip-path="url(#clip0_6701_49630)">
<rect width="390" height="182" rx="20" fill="#06D1FF"/>
<path d="M369.12 100.637C369.12 100.637 377.371 99.5322 381.925 107.013C386.527 114.573 382.658 121.818 378.233 124.759C370.875 129.651 362.907 123.931 362.907 123.931L369.12 100.637Z" fill="#0255A9"/>
<path d="M369.12 100.637C369.12 100.637 377.371 99.5322 381.925 107.013C386.527 114.573 382.658 121.818 378.233 124.759C370.875 129.651 362.907 123.931 362.907 123.931L369.12 100.637Z" stroke="black" stroke-width="2.5" stroke-linecap="round" stroke-linejoin="round"/>
<path d="M364.175 124.731C364.175 124.731 372.382 123.333 376.918 130.693C381.503 138.132 377.659 145.549 373.26 148.659C365.943 153.832 358.012 148.362 358.012 148.362L364.175 124.731Z" fill="#0255A9"/>
<path d="M364.175 124.731C364.175 124.731 372.382 123.333 376.918 130.693C381.503 138.132 377.659 145.549 373.26 148.659C365.943 153.832 358.012 148.362 358.012 148.362L364.175 124.731Z" stroke="black" stroke-width="2.5" stroke-linecap="round" stroke-linejoin="round"/>
<path d="M360.988 79.0961C360.988 79.0961 367.473 75.1789 374.208 79.9513C381.014 84.7739 380.595 92.3761 378.033 96.4897C373.771 103.331 368.373 101.842 368.373 101.842L360.988 79.0961Z" fill="#0255A9"/>
<path d="M360.988 79.0961C360.988 79.0961 367.473 75.1789 374.208 79.9513C381.014 84.7739 380.595 92.3761 378.033 96.4897C373.771 103.331 368.373 101.842 368.373 101.842L360.988 79.0961Z" stroke="black" stroke-width="2.5" stroke-linecap="round" stroke-linejoin="round"/>
<path d="M355.291 150.467C355.291 150.467 362.599 149.149 366.535 155.475C370.512 161.868 367.003 168.351 363.054 171.105C356.488 175.686 349.513 171.043 349.513 171.043L355.291 150.467Z" fill="#0255A9"/>
<path d="M355.291 150.467C355.291 150.467 362.599 149.149 366.535 155.475C370.512 161.868 367.003 168.351 363.054 171.105C356.488 175.686 349.513 171.043 349.513 171.043L355.291 150.467Z" stroke="black" stroke-width="2.5" stroke-linecap="round" stroke-linejoin="round"/>
<path d="M270.318 100.579C264.17 100.579 260.055 100.914 254.301 101.987C218.038 108.751 206.194 136.136 206.194 136.136C188.522 170.085 198.52 198.918 198.52 198.918C195.182 208.342 182.965 211.612 174.937 219.319C164.912 228.943 168.836 235.696 177.415 239.114C190.087 244.163 235.088 242.589 257.613 235.451C280.137 228.312 299.727 222.317 321.179 203.735C339 188.298 353.427 169.301 361.837 147.275C370.614 124.29 371.66 107.317 366.869 91.9557C359.734 69.085 341.68 62.6548 325.944 61.1849C300.069 58.7677 285.843 80.5 286.963 99.6557C286.963 99.6557 287.112 102.109 287.268 102.497C287.422 102.885 277.252 100.579 270.318 100.579Z" fill="white"/>
<path d="M270.318 100.579C264.17 100.579 260.055 100.914 254.301 101.987C218.038 108.751 206.194 136.136 206.194 136.136C188.522 170.085 198.52 198.918 198.52 198.918C195.182 208.342 182.965 211.612 174.937 219.319C164.912 228.943 168.836 235.696 177.415 239.114C190.087 244.163 235.088 242.589 257.613 235.451C280.137 228.312 299.727 222.317 321.179 203.735C339 188.298 353.427 169.301 361.837 147.275C370.614 124.29 371.66 107.317 366.869 91.9557C359.734 69.085 341.68 62.6548 325.944 61.1849C300.069 58.7677 285.843 80.5 286.963 99.6557C286.963 99.6557 287.112 102.109 287.268 102.497C287.422 102.885 277.252 100.579 270.318 100.579Z" stroke="black" stroke-width="2.5" stroke-linecap="round" stroke-linejoin="round"/>
<path d="M290.782 118.271C262.797 100.946 232.513 120.554 221.348 133.069C208.462 147.513 199.774 173.906 218.88 184.289C239.628 195.564 267.325 187.016 282.997 173.327C298.669 159.638 311.985 131.399 290.782 118.271Z" fill="#0D57A7"/>
<path d="M346.626 100.059C344.165 100.044 342.047 100.893 340.273 102.607C338.537 104.341 337.662 106.448 337.647 108.929C337.632 111.409 338.481 113.518 340.196 115.252C341.949 117.008 344.056 117.893 346.517 117.908C348.998 117.923 351.106 117.064 352.842 115.33C354.596 113.616 355.481 111.518 355.496 109.038C355.511 106.557 354.652 104.439 352.918 102.684C351.204 100.949 349.107 100.074 346.626 100.059Z" fill="#3A61AF"/>
<path d="M316.118 71.7513C314.356 70.392 312.313 69.9053 309.988 70.2892C307.678 70.7101 305.759 71.8974 304.23 73.8511C302.701 75.8041 302.023 77.9361 302.195 80.2464C302.383 82.5937 303.357 84.4467 305.119 85.806C306.895 87.1758 308.937 87.6499 311.247 87.229C313.559 86.8339 315.479 85.6599 317.007 83.7062C318.536 81.7532 319.213 79.608 319.04 77.2718C318.868 74.9608 317.895 73.1211 316.118 71.7513Z" fill="#3A61AF"/>
<path d="M343.176 87.997C343.176 87.997 345.496 92.3463 345.602 94.4426Z" fill="#0255A9"/>
<path d="M343.176 87.997C343.176 87.997 345.496 92.3463 345.602 94.4426" stroke="black" stroke-width="2.5" stroke-linecap="round" stroke-linejoin="round"/>
<path d="M327.371 77.5842C327.371 77.5842 323.978 77.0102 320.353 77.4758Z" fill="#0255A9"/>
<path d="M327.371 77.5842C327.371 77.5842 323.978 77.0102 320.353 77.4758" stroke="black" stroke-width="2.5" stroke-linecap="round" stroke-linejoin="round"/>
<path d="M347.465 99.3969C347.465 99.3969 337.931 97.8852 336.42 109.279" stroke="black" stroke-width="2.5" stroke-linecap="round" stroke-linejoin="round"/>
<path d="M314.554 79.0123C314.554 79.0123 327.181 93.4929 340.527 100.78C338.701 102.663 338.472 103.519 337.559 104.888C333.682 105.98 327.52 106.198 321.072 102.499C312.859 97.7862 311.068 87.4563 314.554 79.0123Z" fill="white"/>
<path d="M314.554 79.0123C314.554 79.0123 327.181 93.4929 340.527 100.78C338.701 102.663 338.472 103.519 337.559 104.888C333.682 105.98 327.52 106.198 321.072 102.499C312.859 97.7862 311.068 87.4563 314.554 79.0123Z" stroke="black" stroke-width="2.5" stroke-linecap="round" stroke-linejoin="round"/>
<path d="M306.361 94.5834C307.503 95.4211 308.878 96.9014 307.938 98.7684C307.384 99.8662 306.274 100.628 305.046 100.689C303.844 100.749 302.346 100.2 301.621 97.472C301.621 97.472 300.993 94.8512 303.218 94.0464C304.276 93.6639 305.455 93.9184 306.361 94.5834Z" fill="#FFEE5D"/>
<path d="M306.361 94.5834C307.503 95.4211 308.878 96.9014 307.938 98.7684C307.384 99.8662 306.274 100.628 305.046 100.689C303.844 100.749 302.346 100.2 301.621 97.472C301.621 97.472 300.993 94.8512 303.218 94.0464C304.276 93.6639 305.455 93.9184 306.361 94.5834Z" stroke="#EFB91A" stroke-width="2.5" stroke-linecap="round" stroke-linejoin="round"/>
<path d="M304.015 81.7619C304.981 82.4709 306.145 83.7233 305.349 85.3028C304.881 86.2321 303.941 86.8768 302.902 86.9286C301.885 86.9789 300.618 86.5153 300.004 84.2064C300.004 84.2064 299.473 81.9884 301.355 81.3074C302.25 80.9836 303.248 81.199 304.015 81.7619Z" fill="#FFEE5D"/>
<path d="M304.015 81.7619C304.981 82.4709 306.145 83.7233 305.349 85.3028C304.881 86.2321 303.941 86.8768 302.902 86.9286C301.885 86.9789 300.618 86.5153 300.004 84.2064C300.004 84.2064 299.473 81.9884 301.355 81.3074C302.25 80.9836 303.248 81.199 304.015 81.7619Z" stroke="#EFB91A" stroke-width="2.5" stroke-linecap="round" stroke-linejoin="round"/>
<path d="M308.398 113.92C308.398 113.92 299.905 105.853 285.377 102.271" stroke="black" stroke-width="2.5" stroke-linecap="round" stroke-linejoin="round"/>
<path d="M218.441 193.055C207.36 202.979 199.821 207.071 190.161 204.803C183.727 203.293 168.011 195.162 171.92 179.526C175.828 163.891 198.941 158.672 198.941 158.672" fill="white"/>
<path d="M218.441 193.055C207.36 202.979 199.821 207.071 190.161 204.803C183.727 203.293 168.011 195.162 171.92 179.526C175.828 163.891 198.941 158.672 198.941 158.672" stroke="black" stroke-width="2.5" stroke-linecap="round" stroke-linejoin="round"/>
<path d="M316.026 144.74C316.026 144.74 299.785 136.824 291.53 139.806C283.275 142.787 273.406 165.429 279.985 172.395C283.998 176.644 297.982 186.135 317.721 187.102C345.358 188.457 353.441 165.374 353.441 165.374" fill="white"/>
<path d="M316.026 144.74C316.026 144.74 299.785 136.824 291.53 139.806C283.275 142.787 273.406 165.429 279.985 172.395C283.998 176.644 297.982 186.135 317.721 187.102C345.358 188.457 353.441 165.374 353.441 165.374" stroke="black" stroke-width="2.5" stroke-linecap="round" stroke-linejoin="round"/>
<path d="M286.184 144.079C288.612 145.57 289.693 148.303 288.978 150.488C288.122 153.106 286.272 154.428 282.748 153.884C285.909 156.064 285.883 158.388 285.143 160.22C284.403 162.052 281.999 163.701 278.434 162.988L278.408 162.98C278.427 162.775 278.322 162.375 278.169 161.833C279.188 155.648 282.444 148.583 286.184 144.079Z" fill="white"/>
<path d="M286.184 144.079C288.612 145.57 289.693 148.303 288.978 150.488C288.122 153.106 286.272 154.428 282.748 153.884C285.909 156.064 285.883 158.388 285.143 160.22C284.403 162.052 281.999 163.701 278.434 162.988L278.408 162.98C278.427 162.775 278.322 162.375 278.169 161.833C279.188 155.648 282.444 148.583 286.184 144.079Z" stroke="black" stroke-width="2.5" stroke-linecap="round" stroke-linejoin="round"/>
<path d="M257.004 115.093C257.004 115.093 265.09 111.504 261.77 104.305C258.864 98.0018 257.108 92.7198 242.355 96.6495C229.405 100.1 220.41 108.615 223.753 117.069C228.047 127.931 238.751 124.859 257.004 115.093Z" fill="white"/>
<path d="M257.004 115.093C257.004 115.093 265.09 111.504 261.77 104.305C258.864 98.0018 257.108 92.7198 242.355 96.6495C229.405 100.1 220.41 108.615 223.753 117.069C228.047 127.931 238.751 124.859 257.004 115.093Z" stroke="black" stroke-width="2.5" stroke-linecap="round" stroke-linejoin="round"/>
<path d="M256.444 114.232L256.457 114.255C255.345 115.208 254.245 116.048 253.163 116.798C251.652 117.556 250.078 118.307 248.492 119.015C248.179 119.151 247.872 119.285 247.545 119.425C246.982 119.665 246.449 119.895 245.939 120.116C244.061 120.896 242.233 121.587 240.564 122.135C239.517 122.313 238.561 122.412 237.716 122.457C236.966 119.66 238.105 116.896 240.168 115.818C242.609 114.541 244.856 114.887 246.999 117.737C246.259 113.97 247.9 112.323 249.709 111.529C251.518 110.735 254.389 111.232 256.444 114.232Z" fill="white"/>
<path d="M256.444 114.232L256.457 114.255C255.345 115.208 254.245 116.048 253.163 116.798C251.652 117.556 250.078 118.307 248.492 119.015C248.179 119.151 247.872 119.285 247.545 119.425C246.982 119.665 246.449 119.895 245.939 120.116C244.061 120.896 242.233 121.587 240.564 122.135C239.517 122.313 238.561 122.412 237.716 122.457C236.966 119.66 238.105 116.896 240.168 115.818C242.609 114.541 244.856 114.887 246.999 117.737C246.259 113.97 247.9 112.323 249.709 111.529C251.518 110.735 254.389 111.232 256.444 114.232Z" stroke="black" stroke-width="2.5" stroke-linecap="round" stroke-linejoin="round"/>
<path d="M223.52 93.8162C223.52 93.8162 214.218 95.5601 210.963 105.907" stroke="black" stroke-width="2.5" stroke-linecap="round" stroke-linejoin="round"/>
<path d="M208.52 91.4139C208.52 91.4139 199.916 93.9333 198.056 103.583" stroke="black" stroke-width="2.5" stroke-linecap="round" stroke-linejoin="round"/>
<path d="M197.24 180.195C192.634 174.79 182.155 169.549 176.09 171.542C176.09 171.542 182.624 166.217 186.898 166.872C191.171 167.528 189.051 172.313 189.051 172.313C189.051 172.313 192.73 168.373 197.093 171.273C201.455 174.173 197.24 180.195 197.24 180.195Z" fill="white"/>
<path d="M197.24 180.195C192.634 174.79 182.155 169.549 176.09 171.542C176.09 171.542 182.624 166.217 186.898 166.872C191.171 167.528 189.051 172.313 189.051 172.313C189.051 172.313 192.73 168.373 197.093 171.273C201.455 174.173 197.24 180.195 197.24 180.195Z" stroke="black" stroke-width="2.5" stroke-linecap="round" stroke-linejoin="round"/>
<path d="M197.239 180.196C200.885 183.073 203.022 186.806 203.664 188.62Z" fill="white"/>
<path d="M197.239 180.196C200.885 183.073 203.022 186.806 203.664 188.62" stroke="black" stroke-width="2.5" stroke-linecap="round" stroke-linejoin="round"/>
</g>
<rect x="0.25" y="0.25" width="389.5" height="181.5" rx="19.75" stroke="#0073F0" stroke-opacity="0.16" stroke-width="0.5"/>
<defs>
<clipPath id="clip0_6701_49630">
<rect width="390" height="182" rx="20" fill="white"/>
</clipPath>
</defs>
</svg>
