<svg width="390" height="182" viewBox="0 0 390 182" fill="none" xmlns="http://www.w3.org/2000/svg">
<rect width="390" height="182" rx="20" fill="#06D1FF"/>
<rect x="0.25" y="0.25" width="389.5" height="181.5" rx="19.75" stroke="#0073F0" stroke-opacity="0.16" stroke-width="0.5"/>
<path d="M35.922 132.391C19.1964 134.484 9.8787 139.917 11.1081 145.803C12.3381 151.69 28.1733 151.425 29.776 154.49C31.3782 157.555 22.9464 160.904 29.9074 167.508C40.34 177.407 143.075 174.261 173.017 169.69C185.249 167.822 201.071 165.718 197.287 157.043C194.799 151.34 184.171 151.962 182.581 148.123C180.99 144.285 190.873 145.022 190.304 139.145C189.733 133.269 170.446 133.525 163.679 133.165C154.436 132.674 35.922 132.391 35.922 132.391Z" fill="#99D6FF"/>
<path d="M35.922 132.391C19.1964 134.484 9.8787 139.917 11.1081 145.803C12.3381 151.69 28.1733 151.425 29.776 154.49C31.3782 157.555 22.9464 160.904 29.9074 167.508C40.34 177.407 143.075 174.261 173.017 169.69C185.249 167.822 201.071 165.718 197.287 157.043C194.799 151.34 184.171 151.962 182.581 148.123C180.99 144.285 190.873 145.022 190.304 139.145C189.733 133.269 170.446 133.525 163.679 133.165C154.436 132.674 35.922 132.391 35.922 132.391Z" stroke="#6C97D3" stroke-width="2.5" stroke-linecap="round" stroke-linejoin="round"/>
<path d="M168.035 160.122C168.035 160.122 174.623 157.111 176.556 154.156" stroke="#6C97D3" stroke-width="2.5" stroke-linecap="round" stroke-linejoin="round"/>
<path d="M170.565 148.643C170.565 148.643 167.019 155.131 155.719 158.48" stroke="#6C97D3" stroke-width="2.5" stroke-linecap="round" stroke-linejoin="round"/>
<path d="M44.5703 159.096C44.5703 159.096 51.7413 162.619 62.9452 162.619" stroke="#6C97D3" stroke-width="2.5" stroke-linecap="round" stroke-linejoin="round"/>
<path d="M132.384 77.8731C132.384 77.8731 154.237 87.3811 157.107 118.166L135.254 115.847L127.457 88.4685L132.384 77.8731Z" fill="white"/>
<path d="M132.384 77.8731C132.384 77.8731 154.237 87.3811 157.107 118.166L135.254 115.847L127.457 88.4685L132.384 77.8731Z" stroke="black" stroke-width="2.5" stroke-linecap="round" stroke-linejoin="round"/>
<path d="M74.2679 56.479C74.2679 56.479 70.0071 51.123 63.192 53.145C56.3051 55.1879 54.5929 61.839 55.5826 66.1571C57.2285 73.3382 65.0866 74.3352 65.0866 74.3352L74.2679 56.479Z" fill="#0D57A7"/>
<path d="M74.2679 56.479C74.2679 56.479 70.0071 51.123 63.192 53.145C56.3051 55.1879 54.5929 61.839 55.5826 66.1571C57.2285 73.3382 65.0866 74.3352 65.0866 74.3352L74.2679 56.479Z" stroke="black" stroke-width="2.5" stroke-linecap="round" stroke-linejoin="round"/>
<path d="M65.0676 75.8621C65.0676 75.8621 60.8067 70.5061 53.9917 72.5281C47.1047 74.571 45.3184 81.2401 46.3822 85.5402C48.566 94.3695 58.9127 94.5918 58.9127 94.5918L65.0676 75.8621Z" fill="#0D57A7"/>
<path d="M65.0676 75.8621C65.0676 75.8621 60.8067 70.5061 53.9917 72.5281C47.1047 74.571 45.3184 81.2401 46.3822 85.5402C48.566 94.3695 58.9127 94.5918 58.9127 94.5918L65.0676 75.8621Z" stroke="black" stroke-width="2.5" stroke-linecap="round" stroke-linejoin="round"/>
<path d="M84.4445 39.0087C84.4445 39.0087 79.9961 33.8087 73.1042 35.8942C66.1398 38.0021 64.5376 44.5618 65.6356 48.7895C67.4612 55.8207 75.4782 56.6858 75.4782 56.6858L84.4445 39.0087Z" fill="#0D57A7"/>
<path d="M84.4445 39.0087C84.4445 39.0087 79.9961 33.8087 73.1042 35.8942C66.1398 38.0021 64.5376 44.5618 65.6356 48.7895C67.4612 55.8207 75.4782 56.6858 75.4782 56.6858L84.4445 39.0087Z" stroke="black" stroke-width="2.5" stroke-linecap="round" stroke-linejoin="round"/>
<path d="M102.748 29.7899C102.748 29.7899 101.45 23.6973 94.8016 22.3411C88.0819 20.9696 83.7577 25.4954 82.7309 29.3453C81.0232 35.7483 84.9517 38.1499 84.9517 38.1499L102.748 29.7899Z" fill="#0D57A7"/>
<path d="M102.748 29.7899C102.748 29.7899 101.45 23.6973 94.8016 22.3411C88.0819 20.9696 83.7577 25.4954 82.7309 29.3453C81.0232 35.7483 84.9517 38.1499 84.9517 38.1499L102.748 29.7899Z" stroke="black" stroke-width="2.5" stroke-linecap="round" stroke-linejoin="round"/>
<path d="M104.792 8.68226C99.123 10.0997 96.4132 15.1695 96.7686 19.1272C96.7686 19.1272 92.7199 18.9402 90.0209 19.1272C87.8377 19.2788 86.7778 30.4804 95.5577 32.9022C101.474 34.5346 110.846 34.9978 116.678 31.6469C123.714 27.6045 123.236 21.5613 122.405 18.3974C120.857 12.4968 116.222 5.82487 104.792 8.68226Z" fill="#FFED69"/>
<path d="M104.792 8.68226C99.123 10.0997 96.4132 15.1695 96.7686 19.1272C96.7686 19.1272 92.7199 18.9402 90.0209 19.1272C87.8377 19.2788 86.7778 30.4804 95.5577 32.9022C101.474 34.5346 110.846 34.9978 116.678 31.6469C123.714 27.6045 123.236 21.5613 122.405 18.3974C120.857 12.4968 116.222 5.82487 104.792 8.68226Z" stroke="black" stroke-width="2.5" stroke-linecap="round" stroke-linejoin="round"/>
<path d="M105.332 14.005C105.465 13.8484 105.689 13.6969 106.004 13.5509C106.027 13.5402 106.053 13.5318 106.078 13.5279C106.769 13.415 107.314 13.584 107.715 14.0348C108.01 14.3666 108.144 14.7584 108.117 15.2098C108.091 15.6521 107.913 16.0159 107.582 16.3011C107.347 16.5093 107.09 16.6418 106.809 16.6991C106.678 16.7193 106.544 16.7255 106.406 16.717C106.268 16.7086 106.139 16.6873 106.022 16.6525C105.74 16.5621 105.5 16.3999 105.301 16.1663C105.006 15.8441 104.872 15.4613 104.898 15.0195C104.904 14.9178 104.909 14.8303 104.913 14.7567C104.985 14.4744 105.125 14.224 105.332 14.005Z" fill="#BF6C21"/>
<path d="M106.52 19.7792C106.836 23.7369 117.412 22.919 116.68 18.3264C116.098 14.6786 106.177 15.4713 106.52 19.7792Z" fill="#ED8835"/>
<path d="M96.7687 19.1254C96.7687 19.1254 93.7047 21.0055 93.9124 23.2886C94.1202 25.5711 98.4259 26.0898 98.4259 26.0898" fill="#FFED69"/>
<path d="M96.7687 19.1254C96.7687 19.1254 93.7047 21.0055 93.9124 23.2886C94.1202 25.5711 98.4259 26.0898 98.4259 26.0898" stroke="black" stroke-width="2.5" stroke-linecap="round" stroke-linejoin="round"/>
<path d="M36.1992 143.668C38.9421 138.534 44.8691 124.837 48.5152 116.2C54.3288 102.429 70.6569 49.7784 86.4214 37.7044C101.98 25.7881 120.253 26.7632 131.302 33.4767C150.274 45.005 146.235 68.3234 134.975 79.9725C134.975 79.9725 131.83 79.9725 136.147 82.5744C138.131 89.4591 142.3 108.256 140.479 130.762C140.026 136.37 139.031 140.695 137.481 145.799L36.1992 143.668Z" fill="white"/>
<path d="M139.078 97.4639C140.506 106.299 141.517 117.875 140.475 130.76C140.021 136.368 139.027 140.692 137.477 145.796" stroke="black" stroke-width="2.5" stroke-linecap="round" stroke-linejoin="round"/>
<path d="M36.1992 142.971C38.9421 137.837 44.8691 124.838 48.5152 116.2C54.3288 102.429 70.6569 49.7787 86.4214 37.7052C101.98 25.7889 120.253 26.764 131.302 33.4775C150.274 45.0059 146.235 68.3236 134.975 79.9733" stroke="black" stroke-width="2.5" stroke-linecap="round" stroke-linejoin="round"/>
<path d="M78.7163 144.791C78.5552 142.675 78.4945 140.489 78.5288 138.253C78.7679 122.489 86.6844 89.5657 111.531 90.6733C133.355 91.6461 134.932 121.354 131.374 139.535C130.963 141.636 130.484 143.69 129.944 145.688L86.3728 144.984L78.7163 144.791Z" fill="#0D57A7"/>
<path d="M40.7053 120.186C40.7053 120.186 88.9593 133.103 140.903 122.797V112.493C140.903 112.493 155.53 112.035 162.088 121.632C168.646 131.229 166.697 142.169 159.12 148.424C148.203 157.434 121.731 159.514 98.4258 159.032C75.1209 158.55 36.9935 157.398 33.6663 138.546C32.2202 130.351 33.6663 122.376 40.7053 120.186Z" fill="#FFF1BD"/>
<path d="M40.7053 120.186C40.7053 120.186 88.9593 133.103 140.903 122.797V112.493C140.903 112.493 155.53 112.035 162.088 121.632C168.646 131.229 166.697 142.169 159.12 148.424C148.203 157.434 121.731 159.514 98.4258 159.032C75.1209 158.55 36.9935 157.398 33.6663 138.546C32.2202 130.351 33.6663 122.376 40.7053 120.186Z" stroke="black" stroke-width="2.5" stroke-linecap="round" stroke-linejoin="round"/>
<path d="M140.902 122.798C140.902 122.798 144.536 122.101 145.815 121.633" stroke="black" stroke-width="2.5" stroke-linecap="round" stroke-linejoin="round"/>
<path d="M91.5488 43.3538C89.5694 43.571 87.947 44.4507 86.6806 45.9934C85.4472 47.5478 84.9403 49.3229 85.1587 51.3174C85.3776 53.3125 86.2562 54.9276 87.7955 56.1621C89.3679 57.4094 91.1435 57.9248 93.1223 57.7075C95.1175 57.4886 96.7314 56.6022 97.9647 55.0472C99.2155 53.5068 99.7314 51.7385 99.5124 49.7439C99.2941 47.7488 98.406 46.127 96.8499 44.8779C95.3106 43.6434 93.5439 43.1348 91.5488 43.3538Z" fill="#3C63AE"/>
<path d="M132.897 41.0281C131.204 41.224 129.824 42.0857 128.756 43.6132C127.717 45.1536 127.301 46.9214 127.509 48.9171C127.718 50.9128 128.488 52.5357 129.82 53.7864C131.18 55.0495 132.706 55.5828 134.399 55.3875C136.105 55.1899 137.478 54.3214 138.518 52.781C139.573 51.2546 139.995 49.4936 139.787 47.4985C139.578 45.5028 138.801 43.8726 137.454 42.6078C136.123 41.3576 134.604 40.8311 132.897 41.0281Z" fill="#3C63AE"/>
<path d="M121.43 40.9275C121.722 40.5817 122.216 40.2482 122.91 39.926C122.961 39.903 123.019 39.885 123.073 39.8761C124.596 39.6262 125.799 39.999 126.682 40.9938C127.332 41.7247 127.627 42.5881 127.569 43.5828C127.511 44.5574 127.117 45.3596 126.387 45.9883C125.871 46.4469 125.304 46.7394 124.685 46.8657C124.397 46.9101 124.101 46.923 123.796 46.905C123.491 46.8871 123.209 46.8399 122.949 46.763C122.329 46.5637 121.8 46.2061 121.362 45.6913C120.711 44.9806 120.415 44.138 120.472 43.1629C120.485 42.94 120.496 42.7469 120.506 42.5847C120.665 41.9621 120.973 41.4097 121.43 40.9275Z" fill="black"/>
<path d="M100.933 43.157C101.225 42.8112 101.719 42.4777 102.414 42.1555C102.464 42.1325 102.522 42.1145 102.577 42.1055C104.1 41.8557 105.303 42.2285 106.186 43.2232C106.835 43.9542 107.131 44.8175 107.072 45.8123C107.014 46.7868 106.621 47.589 105.89 48.2178C105.375 48.6764 104.807 48.9689 104.188 49.0952C103.9 49.1396 103.604 49.1525 103.3 49.1345C102.995 49.1165 102.713 49.0694 102.452 48.9925C101.832 48.7932 101.303 48.4356 100.865 47.9208C100.214 47.2101 99.918 46.3675 99.9758 45.3924C99.9887 45.1695 100 44.9764 100.01 44.8142C100.169 44.1916 100.477 43.6392 100.933 43.157Z" fill="black"/>
<path d="M129.675 48.962C120.635 52.0277 110.22 53.2217 98.4297 52.5436" stroke="black" stroke-width="2.5" stroke-linecap="round" stroke-linejoin="round"/>
<path d="M129.577 49.143C130.386 52.3445 129.455 54.2594 127.627 54.5451C124.738 54.997 123.838 50.8703 123.838 50.8703C123.85 53.8832 122.917 55.7302 120.969 56.0917C119.021 56.4532 117.29 54.9835 116.449 51.9864C121.22 51.5496 125.662 50.6868 129.577 49.143Z" fill="white"/>
<path d="M129.577 49.143C130.386 52.3445 129.455 54.2594 127.627 54.5451C124.738 54.997 123.838 50.8703 123.838 50.8703C123.85 53.8832 122.917 55.7302 120.969 56.0917C119.021 56.4532 117.29 54.9835 116.449 51.9864C121.22 51.5496 125.662 50.6868 129.577 49.143Z" stroke="black" stroke-width="2.5" stroke-linecap="round" stroke-linejoin="round"/>
<path d="M60.8834 84.8249C45.2862 94.5933 41.8871 108.774 40.9569 116.833C39.2812 131.357 45.5444 140.917 47.9269 143.465C50.5446 146.264 53.132 147.074 57.6235 146.83C62.1151 146.586 73.3925 141.301 75.2013 137.692C77.0454 134.012 73.1601 128.44 74.8279 120.888" fill="white"/>
<path d="M60.8834 84.8249C45.2862 94.5933 41.8871 108.774 40.9569 116.833C39.2812 131.357 45.5444 140.917 47.9269 143.465C50.5446 146.264 53.132 147.074 57.6235 146.83C62.1151 146.586 73.3925 141.301 75.2013 137.692C77.0454 134.012 73.1601 128.44 74.8279 120.888" stroke="black" stroke-width="2.5" stroke-linecap="round" stroke-linejoin="round"/>
<path d="M67.4352 136.727C65.0954 137.549 63.8463 139.232 64.1545 142.372C62.3923 139.593 60.3506 139.666 58.7069 140.367C57.0627 141.069 55.4998 143.254 55.9551 146.427L56.0561 146.868C56.5529 146.872 57.075 146.858 57.6257 146.828C61.4649 146.619 68.9278 142.633 73.0315 139.96C73.0753 139.821 73.1196 139.685 73.1623 139.543C72.0659 137.076 69.5235 135.993 67.4352 136.727Z" fill="white"/>
<path d="M67.4352 136.727C65.0954 137.549 63.8463 139.232 64.1545 142.372C62.3923 139.593 60.3506 139.666 58.7069 140.367C57.0627 141.069 55.4998 143.254 55.9551 146.427L56.0561 146.868C56.5529 146.872 57.075 146.858 57.6257 146.828C61.4649 146.619 68.9278 142.633 73.0315 139.96C73.0753 139.821 73.1196 139.685 73.1623 139.543C72.0659 137.076 69.5235 135.993 67.4352 136.727Z" stroke="black" stroke-width="2.5" stroke-linecap="round" stroke-linejoin="round"/>
<path d="M112.871 12.7743C113.004 12.6177 113.228 12.4661 113.543 12.3202C113.566 12.3095 113.592 12.3011 113.617 12.2972C114.308 12.1843 114.853 12.3533 115.254 12.8041C115.549 13.1359 115.683 13.5277 115.656 13.979C115.63 14.4214 115.452 14.7852 115.121 15.0704C114.886 15.2786 114.629 15.4111 114.348 15.4684C114.217 15.4886 114.083 15.4942 113.945 15.4863C113.807 15.4779 113.678 15.4566 113.561 15.4218C113.279 15.3314 113.039 15.1692 112.84 14.9356C112.545 14.6134 112.411 14.2305 112.437 13.7887C112.443 13.6871 112.448 13.5996 112.452 13.526C112.524 13.2436 112.664 12.9933 112.871 12.7743Z" fill="#BF6C21"/>
</svg>
