<svg width="80" height="80" viewBox="0 0 80 80" fill="none" xmlns="http://www.w3.org/2000/svg">
<mask id="mask0_6701_53199" style="mask-type:alpha" maskUnits="userSpaceOnUse" x="0" y="0" width="80" height="80">
<circle cx="40" cy="40" r="40" fill="#0D529D"/>
</mask>
<g mask="url(#mask0_6701_53199)">
<circle cx="40" cy="40" r="40" fill="#0D529D"/>
<path d="M26.6826 43.9831C26.6826 43.9831 24.5804 41.5398 21.3233 42.5197C18.0319 43.5102 17.2748 46.5924 17.7934 48.5788C18.6565 51.8826 22.4452 52.2891 22.4452 52.2891L26.6826 43.9831Z" fill="#0D57A7"/>
<path d="M26.6826 43.9831C26.6826 43.9831 24.5804 41.5398 21.3233 42.5197C18.0319 43.5102 17.2748 46.5924 17.7934 48.5788C18.6565 51.8826 22.4452 52.2891 22.4452 52.2891L26.6826 43.9831Z" stroke="black" stroke-linecap="round" stroke-linejoin="round"/>
<path d="M21.8706 52.1919C21.8706 52.1919 19.857 49.6753 16.6362 50.6254C13.3815 51.5853 12.5723 54.7104 13.0401 56.7394C13.8179 60.1136 17.5316 60.582 17.5316 60.582L21.8706 52.1919Z" fill="#0D57A7"/>
<path d="M21.8706 52.1919C21.8706 52.1919 19.857 49.6753 16.6362 50.6254C13.3815 51.5853 12.5723 54.7104 13.0401 56.7394C13.8179 60.1136 17.5316 60.582 17.5316 60.582L21.8706 52.1919Z" stroke="black" stroke-linecap="round" stroke-linejoin="round"/>
<path d="M17.5236 61.2991C17.5236 61.2991 15.51 58.7824 12.2892 59.7325C9.03453 60.6924 8.19034 63.826 8.69309 65.8465C9.72511 69.9952 14.6149 70.0996 14.6149 70.0996L17.5236 61.2991Z" fill="#0D57A7"/>
<path d="M17.5236 61.2991C17.5236 61.2991 15.51 58.7824 12.2892 59.7325C9.03453 60.6924 8.19034 63.826 8.69309 65.8465C9.72511 69.9952 14.6149 70.0996 14.6149 70.0996L17.5236 61.2991Z" stroke="black" stroke-linecap="round" stroke-linejoin="round"/>
<path d="M35.1641 39.5042C35.1641 39.5042 34.4839 36.6565 31.3273 36.0925C28.1376 35.5223 26.1444 37.6957 25.7019 39.5155C24.9659 42.5421 26.8488 43.627 26.8488 43.627L35.1641 39.5042Z" fill="#0D57A7"/>
<path d="M35.1641 39.5042C35.1641 39.5042 34.4839 36.6565 31.3273 36.0925C28.1376 35.5223 26.1444 37.6957 25.7019 39.5155C24.9659 42.5421 26.8488 43.627 26.8488 43.627L35.1641 39.5042Z" stroke="black" stroke-linecap="round" stroke-linejoin="round"/>
<path d="M3 94.2586C4.29626 91.8461 7.97811 84.3109 9.7015 80.2525C12.449 73.7816 20.1655 49.0429 27.6154 43.3699C34.9685 37.7708 43.6043 38.229 48.8257 41.3834C57.7916 46.8003 55.883 57.7566 50.5613 63.2304C50.5613 63.2304 54.2572 73.6466 53.1628 87.0948C52.9485 89.7301 52.4784 92.2893 51.7456 94.6875L3 94.2586Z" fill="#FEFFFF"/>
<path d="M47.6559 92.0429C50.0093 83.8852 50.0093 70.5536 38.6807 70.1131C25.7823 69.6111 20.7538 84.3838 20.1935 91.4579C20.1139 92.4613 20.0852 93.4423 20.1104 94.3918L22.2825 94.4398L46.7979 94.6445C47.1112 93.7976 47.3998 92.9305 47.6559 92.0429Z" fill="#0D57A7"/>
<path d="M51.7461 94.6875C52.4786 92.2893 52.949 89.7299 53.1633 87.0945C53.5812 81.9594 53.3554 77.2587 52.794 73.4263" stroke="black" stroke-linecap="round" stroke-linejoin="round"/>
<path d="M3 94.2578C4.29626 91.8453 7.97811 84.3101 9.7015 80.2517C12.449 73.7808 20.1655 49.0421 27.6154 43.3691C34.9685 37.77 43.6043 38.2282 48.8257 41.3826C57.7916 46.7995 56.2743 58.2602 50.9526 63.734" stroke="black" stroke-linecap="round" stroke-linejoin="round"/>
<path d="M30.5745 46.2876C29.639 46.3896 28.8723 46.803 28.2738 47.5278C27.6909 48.2582 27.4514 49.0923 27.5546 50.0295C27.658 50.9669 28.0732 51.7255 28.8007 52.3058C29.5438 52.8919 30.3829 53.1341 31.3181 53.032C32.261 52.9291 33.0237 52.5126 33.6066 51.782C34.1977 51.0582 34.4415 50.2273 34.338 49.2901C34.2348 48.3526 33.8151 47.5906 33.0797 47.0037C32.3523 46.4237 31.5174 46.1847 30.5745 46.2876Z" fill="#3C63AE"/>
<path d="M50.3023 45.1805C49.5536 45.2686 48.9445 45.6703 48.4752 46.3854C48.0186 47.1068 47.8387 47.9361 47.9356 48.8741C48.0324 49.8118 48.3768 50.5759 48.9689 51.1663C49.5735 51.7624 50.2503 52.0164 50.999 51.9283C51.7538 51.8394 52.3595 51.4345 52.816 50.7134C53.2793 49.9988 53.4626 49.1727 53.3658 48.2349C53.2689 47.297 52.9211 46.5297 52.3226 45.9327C51.7304 45.3424 51.0571 45.0916 50.3023 45.1805Z" fill="#3C63AE"/>
<path d="M44.6698 44.5956C44.8128 44.4374 45.0508 44.2873 45.3832 44.1456C45.4074 44.1353 45.435 44.1274 45.4607 44.124C46.1834 44.0277 46.7466 44.219 47.1504 44.6982C47.4473 45.0504 47.5749 45.4598 47.5335 45.9264C47.4929 46.3832 47.2961 46.7546 46.9424 47.04C46.6925 47.2484 46.4203 47.3782 46.1263 47.4291C45.9897 47.4457 45.8496 47.4478 45.7061 47.4354C45.5623 47.4228 45.4297 47.3966 45.3076 47.3571C45.0176 47.255 44.7725 47.0798 44.5727 46.8322C44.2751 46.4895 44.1464 46.0896 44.187 45.6325C44.1963 45.5278 44.2042 45.4373 44.2111 45.3614C44.2947 45.0712 44.4475 44.8159 44.6698 44.5956Z" fill="black"/>
<path d="M48.4497 48.4812C44.1373 49.7982 39.2011 50.217 33.6406 49.738" stroke="black" stroke-linecap="round" stroke-linejoin="round"/>
<path d="M48.4081 48.5659C48.7466 50.0805 48.2805 50.9673 47.4127 51.0767C46.0424 51.2495 45.6737 49.2992 45.6737 49.2992C45.6381 50.7146 45.172 51.5692 44.2466 51.7124C43.3215 51.8557 42.524 51.1416 42.168 49.7228C44.4275 49.5825 46.5375 49.2377 48.4081 48.5659Z" fill="white"/>
<path d="M48.4081 48.5659C48.7466 50.0805 48.2805 50.9673 47.4127 51.0767C46.0424 51.2495 45.6737 49.2992 45.6737 49.2992C45.6381 50.7146 45.172 51.5692 44.2466 51.7124C43.3215 51.8557 42.524 51.1416 42.168 49.7228C44.4275 49.5825 46.5375 49.2377 48.4081 48.5659Z" stroke="black" stroke-linecap="round" stroke-linejoin="round"/>
<path d="M51.7481 66.2315L46.1523 58.1626C46.5522 56.297 50.1149 55.0195 52.5644 55.9796C55.5246 57.1403 57.1544 58.6788 58.6475 65.7986C60.1406 72.9184 57.0865 77.775 53.3948 79.3945C53.3948 79.3945 52.8265 73.4219 52.5933 72.0089L51.7481 66.2315Z" fill="white"/>
<path d="M52.628 58.2137C51.6442 57.8629 50.8176 58.1082 50.1604 59.2841C50.2429 57.8381 49.5404 57.3079 48.8193 57.1046C48.098 56.9012 47.0447 57.2359 46.4284 58.4633L46.3555 58.6442C46.5213 58.7806 46.6996 58.9177 46.8916 59.0573C48.2296 60.0293 50.1328 61.097 52.1565 61.2841C52.2048 61.2476 53.4584 62.1073 53.8664 60.7515C54.0962 59.5951 53.5059 58.5268 52.628 58.2137Z" fill="white"/>
<path d="M52.628 58.2137C51.6442 57.8629 50.8176 58.1082 50.1604 59.2841C50.2429 57.8381 49.5404 57.3079 48.8193 57.1046C48.098 56.9012 47.0447 57.2359 46.4284 58.4633L46.3555 58.6442C46.5213 58.7806 46.6996 58.9177 46.8916 59.0573C48.2296 60.0293 50.1328 61.097 52.1565 61.2841C52.2048 61.2476 53.4584 62.1073 53.8664 60.7515C54.0962 59.5951 53.5059 58.5268 52.628 58.2137Z" stroke="black" stroke-linecap="round" stroke-linejoin="round"/>
<path d="M52.5898 67.9688C52.5898 67.9688 54.4247 67.4795 55.0502 66.3943" stroke="black" stroke-linecap="round" stroke-linejoin="round"/>
<path d="M51.7481 66.2315L46.1523 58.1626C46.5522 56.297 50.1149 55.0195 52.5644 55.9796C55.5246 57.1403 57.5645 59.2813 59.0346 65.3325C60.7521 72.4022 57.0865 77.775 53.3948 79.3945C53.3948 79.3945 53.168 77.01 52.9419 74.898C52.8103 73.6672 52.8817 73.9463 52.796 73.4261" stroke="black" stroke-linecap="round" stroke-linejoin="round"/>
<path d="M39.8047 58.5067C39.8047 58.5067 39.3325 56.5714 40.3865 56.3912C41.3792 56.2216 46.3138 56.1691 46.7869 56.7178C47.2657 57.2733 47.0172 58.666 47.0172 58.666L39.8047 58.5067Z" fill="#FFED69"/>
<path d="M39.8047 58.5067C39.8047 58.5067 39.3325 56.5714 40.3865 56.3912C41.3792 56.2216 46.3138 56.1691 46.7869 56.7178C47.2657 57.2733 47.0172 58.666 47.0172 58.666L39.8047 58.5067Z" stroke="black" stroke-linecap="round" stroke-linejoin="round"/>
<path d="M35.1542 47.7363C35.1542 47.7363 37.6685 46.9334 37.4815 46.2017C37.2942 45.4703 35.0938 45.0614 35.0938 45.0614" stroke="black" stroke-linecap="round" stroke-linejoin="round"/>
<path d="M37.8414 58.5111C35.9647 58.5316 34.7109 59.1726 34.5029 60.8415C34.3355 62.1857 34.0742 68.7196 34.7682 70.102C35.1547 70.8717 36.1637 71.154 37.7597 71.154C39.3555 71.154 48.2232 71.4359 49.9864 71.154C51.7496 70.8717 52.2704 70.102 52.334 68.7178C52.3887 67.5313 52.2369 62.4732 52.1563 61.2831C52.0655 59.9402 51.4278 58.9724 49.9864 58.8054C48.7493 58.6622 39.9474 58.4879 37.8414 58.5111Z" fill="#D3D7E0"/>
<path d="M37.8414 58.5111C35.9647 58.5316 34.7109 59.1726 34.5029 60.8415C34.3355 62.1857 34.0742 68.7196 34.7682 70.102C35.1547 70.8717 36.1637 71.154 37.7597 71.154C39.3555 71.154 48.2232 71.4359 49.9864 71.154C51.7496 70.8717 52.2704 70.102 52.334 68.7178C52.3887 67.5313 52.2369 62.4732 52.1563 61.2831C52.0655 59.9402 51.4278 58.9724 49.9864 58.8054C48.7493 58.6622 39.9474 58.4879 37.8414 58.5111Z" stroke="black" stroke-linecap="round" stroke-linejoin="round"/>
<path d="M37.608 60.5423C36.6354 60.5687 36.6725 61.9583 37.5936 61.9802C38.6158 62.0047 38.6291 60.5146 37.608 60.5423Z" fill="#949BA8"/>
<path d="M39.9634 60.5423C38.9908 60.5687 39.028 61.9583 39.9491 61.9802C40.9713 62.0047 40.9846 60.5146 39.9634 60.5423Z" fill="#949BA8"/>
<path d="M49.3775 60.5423C48.4049 60.5687 48.442 61.9583 49.3632 61.9802C50.3854 62.0047 50.3986 60.5146 49.3775 60.5423Z" fill="#949BA8"/>
<path d="M44.1394 61.5008C38.9557 61.6416 39.1542 69.0473 44.0633 69.1644C49.5107 69.2942 49.5818 61.3531 44.1394 61.5008Z" fill="#FFED69"/>
<path d="M44.1394 61.5008C38.9557 61.6416 39.1542 69.0473 44.0633 69.1644C49.5107 69.2942 49.5818 61.3531 44.1394 61.5008Z" stroke="black" stroke-linecap="round" stroke-linejoin="round"/>
<path d="M44.1991 63.4849C41.6992 63.5527 41.795 67.1244 44.1625 67.1809C46.7895 67.2434 46.8238 63.4137 44.1991 63.4849Z" fill="#FEFFFF"/>
<path d="M44.1991 63.4849C41.6992 63.5527 41.795 67.1244 44.1625 67.1809C46.7895 67.2434 46.8238 63.4137 44.1991 63.4849Z" stroke="black" stroke-linecap="round" stroke-linejoin="round"/>
<path d="M27.0457 70.9303C28.0589 69.1865 29.8518 66.8283 31.2998 65.8479C32.465 65.0587 33.4923 65.271 34.6798 65.8479C35.8672 66.4245 39.5624 69.0219 40.5657 70.1007C41.5691 71.1793 41.6513 71.8308 41.6818 73.2723C41.7325 75.6584 41.4709 82.3881 35.7582 84.7567C29.8319 87.2141 22.455 86.0308 20.7148 79.9759" fill="white"/>
<path d="M27.0457 70.9303C28.0589 69.1865 29.8518 66.8283 31.2998 65.8479C32.465 65.0587 33.4923 65.271 34.6798 65.8479C35.8672 66.4245 39.5624 69.0219 40.5657 70.1007C41.5691 71.1793 41.6513 71.8308 41.6818 73.2723C41.7325 75.6584 41.4709 82.3881 35.7582 84.7567C29.8319 87.2141 22.455 86.0308 20.7148 79.9759" stroke="black" stroke-linecap="round" stroke-linejoin="round"/>
<path d="M34.1496 68.6525C34.9717 69.2937 35.8339 69.3201 36.8307 68.4103C36.294 69.7566 36.7925 70.4799 37.4122 70.899C38.0322 71.3182 39.138 71.3308 40.1119 70.3594L40.2385 70.2103C40.1244 70.0288 39.9989 69.8429 39.8607 69.6503C38.8995 68.3085 35.8125 66.6093 33.9514 65.7977C33.8941 65.8169 33.8376 65.8354 33.7792 65.856C33.1942 66.8812 33.4157 68.0801 34.1496 68.6525Z" fill="white"/>
<path d="M34.1496 68.6525C34.9717 69.2937 35.8339 69.3201 36.8307 68.4103C36.294 69.7566 36.7925 70.4799 37.4122 70.899C38.0322 71.3182 39.138 71.3308 40.1119 70.3594L40.2385 70.2103C40.1244 70.0288 39.9989 69.8429 39.8607 69.6503C38.8995 68.3085 35.8125 66.6093 33.9514 65.7977C33.8941 65.8169 33.8376 65.8354 33.7792 65.856C33.1942 66.8812 33.4157 68.0801 34.1496 68.6525Z" stroke="black" stroke-linecap="round" stroke-linejoin="round"/>
<path d="M64.5841 53.0565C64.5841 53.0565 65.5129 57.3257 61.4883 58.1645C61.4883 58.1645 64.5629 59.6184 64.6767 62.5938C64.6767 62.5938 66.5447 57.7527 70.6722 60.5835C70.6722 60.5835 69.7437 56.9179 71.8074 55.4983C71.8074 55.4983 68.402 55.3178 68.2988 53.0565C68.2988 53.0565 66.6479 55.01 64.5841 53.0565Z" fill="#FFED69"/>
<path d="M64.5841 53.0565C64.5841 53.0565 65.5129 57.3257 61.4883 58.1645C61.4883 58.1645 64.5629 59.6184 64.6767 62.5938C64.6767 62.5938 66.5447 57.7527 70.6722 60.5835C70.6722 60.5835 69.7437 56.9179 71.8074 55.4983C71.8074 55.4983 68.402 55.3178 68.2988 53.0565C68.2988 53.0565 66.6479 55.01 64.5841 53.0565Z" stroke="#EFB933" stroke-linecap="round" stroke-linejoin="round"/>
<path d="M24.2102 56.3924C24.2102 56.3924 24.598 59.9956 21.875 60.583C21.875 60.583 24.5856 62.0084 24.2293 64.3555C24.2293 64.3555 25.7277 62.0084 28.0883 63.5172C28.0883 63.5172 27.1609 60.8858 29.5215 59.5192C29.5215 59.5192 25.8121 59.0747 24.2102 56.3924Z" fill="#FFED69"/>
<path d="M24.2102 56.3924C24.2102 56.3924 24.598 59.9956 21.875 60.583C21.875 60.583 24.5856 62.0084 24.2293 64.3555C24.2293 64.3555 25.7277 62.0084 28.0883 63.5172C28.0883 63.5172 27.1609 60.8858 29.5215 59.5192C29.5215 59.5192 25.8121 59.0747 24.2102 56.3924Z" stroke="#EFB933" stroke-linecap="round" stroke-linejoin="round"/>
</g>
</svg>
