<svg width="80" height="80" viewBox="0 0 80 80" fill="none" xmlns="http://www.w3.org/2000/svg">
<circle cx="40" cy="40" r="40" fill="#0D529D"/>
<path d="M52.1375 17.2206C54.0455 18.416 54.9652 19.8122 55.3667 22.1532C55.7687 24.4942 55.6086 28.6581 55.4254 32.7897C55.2657 36.3954 55.0698 37.2983 52.8439 38.9588C51.5223 39.9446 47.3527 42.0133 43.9028 43.3398C41.5799 44.233 39.0752 43.7952 37.104 43.2498C33.2384 42.1801 26.5288 39.2183 25.7866 36.2829C25.0448 33.348 25.0541 27.4997 25.0007 22.3182C24.9649 18.8635 26.3902 17.578 27.3447 17.105C28.0464 16.7572 28.7467 16.4131 29.4196 16.0124C31.0541 15.0389 34.1686 13.821 38.1622 13.3775C40.5045 13.1171 42.8137 13.0841 44.8657 13.8395C47.1506 14.6806 50.1508 15.9757 52.1375 17.2206Z" fill="#F9DCDC"/>
<path d="M52.1375 17.2206C54.0455 18.416 54.9652 19.8122 55.3667 22.1532C55.7687 24.4942 55.6086 28.6581 55.4254 32.7897C55.2657 36.3954 55.0698 37.2983 52.8439 38.9588C51.5223 39.9446 47.3527 42.0133 43.9028 43.3398C41.5799 44.233 39.0752 43.7952 37.104 43.2498C33.2384 42.1801 26.5288 39.2183 25.7866 36.2829C25.0448 33.348 25.0541 27.4997 25.0007 22.3182C24.9649 18.8635 26.3902 17.578 27.3447 17.105C28.0464 16.7572 28.7467 16.4131 29.4196 16.0124C31.0541 15.0389 34.1686 13.821 38.1622 13.3775C40.5045 13.1171 42.8137 13.0841 44.8657 13.8395C47.1506 14.6806 50.1508 15.9757 52.1375 17.2206Z" stroke="#EA9DB1" stroke-width="2" stroke-linecap="round" stroke-linejoin="round"/>
<path d="M37.795 31.2499C33.7163 29.42 27.6218 25.2618 25.0156 23.6392C25.0328 25.5005 25.0505 27.4068 25.1052 29.2015C27.7052 31.4459 35.6954 35.4068 38.1489 35.927C39.7049 36.2571 42.7232 36.87 46.7631 34.4064C50.5506 32.0963 53.677 30.5483 55.5181 29.3246C55.5851 27.4858 55.6293 25.7198 55.4064 24.077C52.6449 25.8416 46.7786 29.4544 44.1578 30.6988C41.2895 32.061 39.5156 32.0222 37.795 31.2499Z" fill="white"/>
<path d="M37.795 31.2499C33.7163 29.42 27.6218 25.2618 25.0156 23.6392C25.0328 25.5005 25.0505 27.4068 25.1052 29.2015C27.7052 31.4459 35.6954 35.4068 38.1489 35.927C39.7049 36.2571 42.7232 36.87 46.7631 34.4064C50.5506 32.0963 53.677 30.5483 55.5181 29.3246C55.5851 27.4858 55.6293 25.7198 55.4064 24.077C52.6449 25.8416 46.7786 29.4544 44.1578 30.6988C41.2895 32.061 39.5156 32.0222 37.795 31.2499Z" stroke="#EA9DB1" stroke-width="2" stroke-linecap="round" stroke-linejoin="round"/>
<path d="M49.5869 22.8857L45.7227 25.4429C45.7227 25.4429 47.5641 27.4684 47.4723 35.2958C47.4498 37.1791 47.4909 39.9111 47.5248 41.7168C49.2132 40.8334 50.6204 40.1498 51.7562 39.4636C51.7562 39.4636 51.6265 37.4611 51.6265 34.2323C51.6265 25.2611 49.5869 22.8857 49.5869 22.8857Z" fill="white"/>
<path d="M49.5869 22.8857L45.7227 25.4429C45.7227 25.4429 47.5641 27.4684 47.4723 35.2958C47.4498 37.1791 47.4909 39.9111 47.5248 41.7168C49.2132 40.8334 50.6204 40.1498 51.7562 39.4636C51.7562 39.4636 51.6265 37.4611 51.6265 34.2323C51.6265 25.2611 49.5869 22.8857 49.5869 22.8857Z" stroke="#EA9DB1" stroke-width="2" stroke-linecap="round" stroke-linejoin="round"/>
<path d="M34.0758 20.0129C34.0758 20.0129 30.6511 21.3385 30.1665 24.157C29.7429 26.6224 29.761 36.4973 30.3527 40.5125C31.5482 41.14 32.5057 41.5067 32.5057 41.5067C32.5057 41.5067 33.387 42.0132 34.7969 42.541C34.5572 38.5236 34.0577 29.7925 34.1213 27.7926C34.1892 25.6577 33.6897 23.5242 39.4356 21.538L40.7837 19.4573L38.2229 18.2858C38.2229 18.2858 36.1401 18.8934 34.0758 20.0129Z" fill="white"/>
<path d="M34.0758 20.0129C34.0758 20.0129 30.6511 21.3385 30.1665 24.157C29.7429 26.6224 29.761 36.4973 30.3527 40.5125C31.5482 41.14 32.5057 41.5067 32.5057 41.5067C32.5057 41.5067 33.387 42.0132 34.7969 42.541C34.5572 38.5236 34.0577 29.7925 34.1213 27.7926C34.1892 25.6577 33.6897 23.5242 39.4356 21.538L40.7837 19.4573L38.2229 18.2858C38.2229 18.2858 36.1401 18.8934 34.0758 20.0129Z" stroke="#EA9DB1" stroke-width="2" stroke-linecap="round" stroke-linejoin="round"/>
<path d="M36.5769 18.9482C35.5492 19.4124 32.3958 20.445 29.7353 18.4094C26.4103 15.8646 30.2816 11.2095 34.078 11.0136C35.1847 10.9567 40.1358 10.7277 39.6407 15.7357C39.6407 15.7357 36.9012 18.8017 36.5769 18.9482Z" fill="white"/>
<path d="M36.5769 18.9482C35.5492 19.4124 32.3958 20.445 29.7353 18.4094C26.4103 15.8646 30.2816 11.2095 34.078 11.0136C35.1847 10.9567 40.1358 10.7277 39.6407 15.7357C39.6407 15.7357 36.9013 18.8017 36.5769 18.9482Z" stroke="#EA9DB1" stroke-width="2" stroke-linecap="round" stroke-linejoin="round"/>
<path d="M37.0285 16.2656C37.0285 16.2656 36.1878 15.2785 34.5039 14.9917L37.0285 16.2656Z" fill="#F9DCDC"/>
<path d="M37.0285 16.2656C37.0285 16.2656 36.1878 15.2785 34.5039 14.9917" stroke="#EA9DB1" stroke-width="2" stroke-linecap="round" stroke-linejoin="round"/>
<path d="M38.9609 19.7323C38.9609 19.7323 40.899 26.3533 45.592 25.7099C48.677 25.2871 51.074 23.5675 51.3357 21.0359C51.5268 19.1887 50.2051 17.8225 48.8367 17.1085C47.5884 16.4572 44.4668 15.8562 42.0728 17.2109C42.0728 17.2109 39.9 17.672 38.9609 19.7323Z" fill="white"/>
<path d="M38.9609 19.7323C38.9609 19.7323 40.899 26.3533 45.592 25.7099C48.677 25.2871 51.074 23.5675 51.3357 21.0359C51.5268 19.1887 50.2051 17.8225 48.8367 17.1085C47.5884 16.4572 44.4668 15.8562 42.0728 17.2109C42.0728 17.2109 39.9 17.672 38.9609 19.7323Z" stroke="#EA9DB1" stroke-width="2" stroke-linecap="round" stroke-linejoin="round"/>
<path d="M45.3366 20.041C45.3366 20.041 43.4801 18.6625 42.4961 18.8655L45.3366 20.041Z" fill="#F9DCDC"/>
<path d="M45.3366 20.041C45.3366 20.041 43.4801 18.6625 42.4961 18.8655" stroke="#EA9DB1" stroke-width="2" stroke-linecap="round" stroke-linejoin="round"/>
<path d="M42.2194 17.2677C42.6903 18.5236 41.3519 19.7843 40.0219 19.9582C38.6071 20.1435 36.6183 19.4136 36.8142 17.7835C37.1244 15.2074 41.3483 14.9435 42.2194 17.2677Z" fill="white"/>
<path d="M42.2194 17.2677C42.6903 18.5236 41.3519 19.7843 40.0219 19.9582C38.6071 20.1435 36.6183 19.4136 36.8142 17.7835C37.1244 15.2074 41.3483 14.9435 42.2194 17.2677Z" stroke="#EA9DB1" stroke-width="2" stroke-linecap="round" stroke-linejoin="round"/>
<path d="M31.025 48.6V64.656H28.757V48.6H31.025ZM18.101 55.44C18.101 51.948 19.901 49.752 22.349 49.752C24.761 49.752 26.543 51.948 26.561 55.44C26.543 58.95 24.761 61.164 22.349 61.164C19.901 61.164 18.101 58.95 18.101 55.44ZM20.261 55.44C20.261 57.834 21.107 59.112 22.349 59.112C23.555 59.112 24.383 57.834 24.401 55.44C24.383 53.064 23.555 51.768 22.349 51.768C21.107 51.768 20.261 53.064 20.261 55.44ZM46.9417 48.6V60.732H44.8177V48.6H46.9417ZM33.7657 57.924V49.86H35.8897V52.308H38.0497V49.86H40.1377V53.028H41.5777V48.852H43.7017V60.228H41.5777V54.828H40.1377V57.924H33.7657ZM35.8897 56.124H38.0497V54H35.8897V56.124ZM36.1057 64.332V59.112H38.3377V62.532H47.3377V64.332H36.1057ZM61.8143 56.88V58.644H50.4743V49.788H61.6703V51.624H52.7783V53.316H61.3103V55.08H52.7783V56.88H61.8143ZM48.7463 62.748V60.948H63.3983V62.748H48.7463Z" fill="white"/>
</svg>
