<svg width="80" height="80" viewBox="0 0 80 80" fill="none" xmlns="http://www.w3.org/2000/svg">
<mask id="mask0_6701_53147" style="mask-type:alpha" maskUnits="userSpaceOnUse" x="0" y="0" width="80" height="80">
<circle cx="40" cy="40" r="40" fill="#0D529D"/>
</mask>
<g mask="url(#mask0_6701_53147)">
<circle cx="40" cy="40" r="40" fill="#0D529D"/>
<path d="M48.1835 58.0229C48.1835 58.0229 52.7849 60.6246 55.8812 60.9279L62.4297 68.5062C62.4297 68.5062 59.3981 74.3999 52.0022 73.3289L48.4298 66.5923L48.1835 58.0229Z" fill="#FFFFFE"/>
<path d="M48.1835 58.0229C48.1835 58.0229 52.7849 60.6246 55.8812 60.9279L62.4297 68.5062C62.4297 68.5062 59.3981 74.3999 52.0022 73.3289L48.4298 66.5923L48.1835 58.0229Z" stroke="black" stroke-linecap="round" stroke-linejoin="round"/>
<path d="M13.1204 74.2036C12.4028 77.2169 7.72055 86.6104 0.218456 95.8747C-1.29306 97.7414 -1.67471 99.441 0.677996 100.858C3.03046 102.275 13.0203 102.926 18.5078 98.2766L13.1204 74.2036Z" fill="white"/>
<path d="M13.1204 74.2036C12.4028 77.2169 7.72055 86.6104 0.218456 95.8747C-1.29306 97.7414 -1.67471 99.441 0.677996 100.858C3.03046 102.275 13.0203 102.926 18.5078 98.2766L13.1204 74.2036Z" stroke="black" stroke-linecap="round" stroke-linejoin="round"/>
<path d="M28.0391 41.6867C28.0391 41.6867 26.125 39.4491 23.1596 40.3465C20.1629 41.2535 19.4733 44.0762 19.9458 45.8951C20.7315 48.9206 24.1809 49.293 24.1809 49.293L28.0391 41.6867Z" fill="#0D57A7"/>
<path d="M28.0391 41.6867C28.0391 41.6867 26.125 39.4491 23.1596 40.3465C20.1629 41.2535 19.4733 44.0762 19.9458 45.8951C20.7315 48.9206 24.1809 49.293 24.1809 49.293L28.0391 41.6867Z" stroke="black" stroke-linecap="round" stroke-linejoin="round"/>
<path d="M23.6484 49.2055C23.6484 49.2055 21.8149 46.9007 18.8827 47.7709C15.9193 48.6501 15.1825 51.512 15.6084 53.3698C16.3165 56.4596 19.6978 56.8887 19.6978 56.8887L23.6484 49.2055Z" fill="#0D57A7"/>
<path d="M23.6484 49.2055C23.6484 49.2055 21.8149 46.9007 18.8827 47.7709C15.9193 48.6501 15.1825 51.512 15.6084 53.3698C16.3165 56.4596 19.6978 56.8887 19.6978 56.8887L23.6484 49.2055Z" stroke="black" stroke-linecap="round" stroke-linejoin="round"/>
<path d="M19.6953 57.5453C19.6953 57.5453 17.8618 55.2406 14.9295 56.1107C11.9661 56.9899 11.2294 59.8518 11.6553 61.7097C12.3634 64.7994 15.7447 65.2285 15.7447 65.2285L19.6953 57.5453Z" fill="#0D57A7"/>
<path d="M19.6953 57.5453C19.6953 57.5453 17.8618 55.2406 14.9295 56.1107C11.9661 56.9899 11.2294 59.8518 11.6553 61.7097C12.3634 64.7994 15.7447 65.2285 15.7447 65.2285L19.6953 57.5453Z" stroke="black" stroke-linecap="round" stroke-linejoin="round"/>
<path d="M35.2617 37.9299C35.2617 37.9299 34.4763 35.3674 31.5752 35.0364C28.6432 34.702 26.9601 36.8047 26.6651 38.4934C26.1744 41.3025 27.9488 42.1836 27.9488 42.1836L35.2617 37.9299Z" fill="#0D57A7"/>
<path d="M35.2617 37.9299C35.2617 37.9299 34.4763 35.3674 31.5752 35.0364C28.6432 34.702 26.9601 36.8047 26.6651 38.4934C26.1744 41.3025 27.9488 42.1836 27.9488 42.1836L35.2617 37.9299Z" stroke="black" stroke-linecap="round" stroke-linejoin="round"/>
<path d="M50.0133 59.3142C50.0133 59.3142 53.3783 68.8528 52.3821 81.1679C51.4574 92.5995 45.3054 102.467 33.3099 102.504C16.2184 102.556 9.51997 93.5356 12.875 74.9838C15.9737 57.8499 22.3387 46.322 29.1217 41.1268C35.8165 35.9996 43.679 36.4192 48.4329 39.3079C56.5963 44.2684 54.8587 54.3016 50.0133 59.3142Z" fill="white"/>
<path d="M39.0478 67.3377C26.5745 66.2142 23.727 82.9005 23.2991 86.7328C22.5477 98.5059 29.288 98.7403 29.802 101.614C30.4388 101.802 31.1244 101.941 31.8614 102.026C39.4833 102.906 43.8978 96.7013 46.2983 89.0133C48.6984 81.325 49.2032 68.2524 39.0478 67.3377Z" fill="#0D57A7"/>
<path d="M51.5712 65.6216C52.288 69.5457 52.8802 75.009 52.3819 81.1666C51.9577 86.4116 50.4192 91.4522 47.7344 95.2402" stroke="black" stroke-linecap="round" stroke-linejoin="round"/>
<path d="M11.3947 78.5352C12.0368 77.4905 12.6818 76.0513 12.8751 74.9827C15.9736 57.849 22.3387 46.3211 29.1218 41.126C35.8166 35.9985 43.6791 36.4181 48.433 39.3068C56.5964 44.2673 54.8585 54.3005 50.0134 59.3131" stroke="black" stroke-linecap="round" stroke-linejoin="round"/>
<path d="M31.818 43.7991C30.9663 43.8926 30.268 44.2711 29.7233 44.9348C29.1927 45.6037 28.9743 46.3675 29.0685 47.2257C29.1625 48.0842 29.5407 48.7791 30.203 49.3104C30.8794 49.8471 31.6435 50.0686 32.4951 49.9754C33.3536 49.8812 34.048 49.4995 34.5786 48.8307C35.1168 48.1677 35.3388 47.407 35.2446 46.5485C35.1506 45.6903 34.7687 44.9925 34.0989 44.4551C33.4366 43.9237 32.6762 43.7049 31.818 43.7991Z" fill="#3C63AE"/>
<path d="M49.6071 42.7987C48.8786 42.8829 48.2847 43.2536 47.8252 43.911C47.3778 44.5738 47.1989 45.3345 47.2887 46.1932C47.3785 47.0519 47.7098 47.7502 48.2828 48.2884C48.8679 48.8319 49.5246 49.0614 50.2531 48.9772C50.9874 48.8925 51.5782 48.5186 52.0255 47.8558C52.4792 47.1991 52.6613 46.4414 52.5715 45.5827C52.4817 44.724 52.1472 44.0225 51.5677 43.4785C50.995 42.9404 50.3412 42.7138 49.6071 42.7987Z" fill="#3C63AE"/>
<path d="M44.6553 42.2457C44.6845 42.2131 44.7181 42.1809 44.7561 42.1491C45.0786 41.8789 45.4493 41.7623 45.8677 41.7991C46.2948 41.8368 46.6436 42.0169 46.9138 42.3396C47.184 42.6622 47.3003 43.037 47.2626 43.4642C47.2256 43.8826 47.0462 44.2226 46.7244 44.4842C46.4969 44.6751 46.2491 44.7936 45.9813 44.8403C45.857 44.8557 45.7294 44.8576 45.5987 44.8462C45.468 44.8345 45.347 44.8106 45.2361 44.7746C44.972 44.6809 44.7488 44.5208 44.5667 44.2937C44.2958 43.9799 44.1787 43.6138 44.2157 43.1952C44.2242 43.0993 44.2315 43.0165 44.2376 42.9469C44.3138 42.6811 44.453 42.4475 44.6553 42.2457Z" fill="black"/>
<path d="M35.6323 43.1517C35.6703 43.1198 35.7082 43.0881 35.7462 43.0563C36.0782 42.7781 36.4579 42.6578 36.8851 42.6955C37.321 42.734 37.6822 42.9197 37.9692 43.2524C38.2474 43.5844 38.3674 43.9685 38.3289 44.4045C38.2905 44.8404 38.105 45.1975 37.773 45.4757C37.5367 45.6655 37.2845 45.7838 37.017 45.8305C36.8831 45.8539 36.7463 45.8595 36.6069 45.8471C36.4762 45.8356 36.3469 45.8067 36.2191 45.7602C35.9638 45.6675 35.7406 45.5071 35.55 45.2795C35.2718 44.9472 35.1518 44.5634 35.1903 44.1275C35.1981 44.0403 35.2054 43.9573 35.2122 43.879C35.2891 43.6046 35.4293 43.3622 35.6323 43.1517Z" fill="black"/>
<path d="M48.3047 46.529C44.3784 47.735 39.884 48.1186 34.8213 47.68" stroke="black" stroke-linecap="round" stroke-linejoin="round"/>
<path d="M35.9519 47.847C35.9293 49.2589 36.5086 49.9648 37.3025 49.9047C38.5568 49.8097 38.5259 48.0039 38.5259 48.0039C38.8184 49.2594 39.3919 49.9365 40.2435 49.8961C41.095 49.8557 41.6745 49.0744 41.7305 47.7447C39.6893 48.03 37.7441 48.1059 35.9519 47.847Z" stroke="black" stroke-linecap="round" stroke-linejoin="round"/>
<path d="M59.771 50.3877L60.3984 58.5494L57.5626 58.7285L56.8757 50.3507L59.771 50.3877Z" fill="white"/>
<path d="M59.771 50.3877L60.3984 58.5494L57.5626 58.7285L56.8757 50.3507L59.771 50.3877Z" stroke="black" stroke-linecap="round" stroke-linejoin="round"/>
<path d="M58.0578 36.9885C62.605 36.8505 65.0678 40.9647 64.9945 44.3161C64.9173 47.84 62.0659 50.651 58.2674 50.8567C54.6213 51.0539 51.46 48.9076 51.1005 44.1423C50.741 39.377 54.3022 37.1024 58.0578 36.9885Z" fill="#D3D7E0"/>
<path d="M58.0578 36.9885C62.605 36.8505 65.0678 40.9647 64.9945 44.3161C64.9173 47.84 62.0659 50.651 58.2674 50.8567C54.6213 51.0539 51.46 48.9076 51.1005 44.1423C50.741 39.377 54.3022 37.1024 58.0578 36.9885Z" stroke="black" stroke-linecap="round" stroke-linejoin="round"/>
<path d="M58.0497 39.6103C60.8795 39.5244 62.412 42.0847 62.3662 44.1702C62.3182 46.363 60.5439 48.1123 58.1802 48.2403C55.9112 48.363 53.944 47.0275 53.7201 44.0621C53.4964 41.0965 55.7126 39.6811 58.0497 39.6103Z" fill="#99D6FF"/>
<path d="M58.0497 39.6103C60.8795 39.5244 62.412 42.0847 62.3662 44.1702C62.3182 46.363 60.5439 48.1123 58.1802 48.2403C55.9112 48.363 53.944 47.0275 53.7201 44.0621C53.4964 41.0965 55.7126 39.6811 58.0497 39.6103Z" stroke="black" stroke-linecap="round" stroke-linejoin="round"/>
<path d="M56.8799 41.2141C57.8469 41.1846 58.3707 42.0597 58.3551 42.7723C58.3386 43.5218 57.7323 44.1196 56.9244 44.1634C56.1489 44.2052 55.4767 43.7489 55.4002 42.7354C55.3238 41.7221 56.0813 41.2384 56.8799 41.2141Z" fill="white"/>
<path d="M56.8799 41.2141C57.8469 41.1846 58.3707 42.0597 58.3551 42.7723C58.3386 43.5218 57.7323 44.1196 56.9244 44.1634C56.1489 44.2052 55.4767 43.7489 55.4002 42.7354C55.3238 41.7221 56.0813 41.2384 56.8799 41.2141Z" stroke="#6C97D3" stroke-linecap="round" stroke-linejoin="round"/>
<path d="M62.1585 68.9434C64.306 65.5986 64.4513 60.5022 64.0492 57.9037C63.6474 55.3051 62.3449 55.1143 61.2384 54.7597C60.4204 54.4975 58.6314 54.2529 57.3713 54.2181C56.302 54.1887 55.87 55.0941 55.6792 55.873C55.0989 58.2418 54.7119 62.7062 54.5968 63.4759C54.4437 64.4989 54.6759 66.4256 56.0973 66.9531" fill="#FFFFFE"/>
<path d="M62.1585 68.9434C64.306 65.5986 64.4513 60.5022 64.0492 57.9037C63.6474 55.3051 62.3449 55.1143 61.2384 54.7597C60.4204 54.4975 58.6314 54.2529 57.3713 54.2181C56.302 54.1887 55.87 55.0941 55.6792 55.873C55.0989 58.2418 54.7119 62.7062 54.5968 63.4759C54.4437 64.4989 54.6759 66.4256 56.0973 66.9531" stroke="black" stroke-linecap="round" stroke-linejoin="round"/>
<path d="M57.365 58.1798C57.2827 59.2274 56.8059 59.8355 55.6858 59.8243C56.8069 60.4807 56.9595 61.3699 56.8587 62.1108C56.7577 62.8517 56.1334 63.6155 54.9889 63.542L54.7806 63.5076C54.7784 63.347 54.782 63.1725 54.7884 62.9914C54.8539 62.0387 54.9588 60.9999 55.0921 59.9822C55.1102 59.8544 55.1274 59.7288 55.1467 59.5955C55.18 59.3669 55.2109 59.1496 55.2401 58.9412C55.4239 57.7449 55.6447 56.6372 55.8851 55.8035C56.8398 56.1835 57.4385 57.2447 57.365 58.1798Z" fill="white"/>
<path d="M57.365 58.1798C57.2827 59.2274 56.8059 59.8355 55.6858 59.8243C56.8069 60.4807 56.9595 61.3699 56.8587 62.1108C56.7577 62.8517 56.1334 63.6155 54.9889 63.542L54.7806 63.5076C54.7784 63.347 54.782 63.1725 54.7884 62.9914C54.8539 62.0387 54.9588 60.9999 55.0921 59.9822C55.1102 59.8544 55.1274 59.7288 55.1467 59.5955C55.18 59.3669 55.2109 59.1496 55.2401 58.9412C55.4239 57.7449 55.6447 56.6372 55.8851 55.8035C56.8398 56.1835 57.4385 57.2447 57.365 58.1798Z" stroke="black" stroke-linecap="round" stroke-linejoin="round"/>
<path d="M16.529 62.012C11.5797 64.9206 7.32629 69.9218 8.07621 76.9853C8.69177 82.786 12.2089 85.523 13.5566 86.2092C15.0375 86.963 16.2121 86.9109 18.0065 86.1471C19.8011 85.3836 23.6166 81.5622 23.8201 79.8236C24.0275 78.0509 22.1377 77.1766 21.8403 74.3091" fill="white"/>
<path d="M16.529 62.012C11.5797 64.9206 7.32629 69.9218 8.07621 76.9853C8.69177 82.786 12.2089 85.523 13.5566 86.2092C15.0375 86.963 16.2121 86.9109 18.0065 86.1471C19.8011 85.3836 23.6166 81.5622 23.8201 79.8236C24.0275 78.0509 22.1377 77.1766 21.8403 74.3091" stroke="black" stroke-linecap="round" stroke-linejoin="round"/>
<path d="M20.5106 80.5787C19.6784 81.2598 19.418 82.1304 20.008 83.3644C18.8788 82.4923 18.0574 82.8241 17.4912 83.353C16.9248 83.8819 16.6108 85.0037 17.2656 86.2297L17.3719 86.3945C17.5749 86.3225 17.7857 86.24 18.0058 86.1463C19.5397 85.4935 21.9924 82.7652 23.2695 81.0689C23.2669 81.0059 23.2649 80.9441 23.2613 80.8796C22.4495 80.0362 21.2532 79.9709 20.5106 80.5787Z" fill="white"/>
<path d="M20.5106 80.5787C19.6784 81.2598 19.418 82.1304 20.008 83.3644C18.8788 82.4923 18.0574 82.8241 17.4912 83.353C16.9248 83.8819 16.6108 85.0037 17.2656 86.2297L17.3719 86.3945C17.5749 86.3225 17.7857 86.24 18.0058 86.1463C19.5397 85.4935 21.9924 82.7652 23.2695 81.0689C23.2669 81.0059 23.2649 80.9441 23.2613 80.8796C22.4495 80.0362 21.2532 79.9709 20.5106 80.5787Z" stroke="black" stroke-linecap="round" stroke-linejoin="round"/>
</g>
</svg>
