<svg width="80" height="80" viewBox="0 0 80 80" fill="none" xmlns="http://www.w3.org/2000/svg">
<mask id="mask0_6701_53247" style="mask-type:alpha" maskUnits="userSpaceOnUse" x="0" y="0" width="80" height="80">
<circle cx="40" cy="40" r="40" fill="#0D529D"/>
</mask>
<g mask="url(#mask0_6701_53247)">
<circle cx="40" cy="40" r="40" fill="#0D529D"/>
<path d="M24.7281 54.9791C24.7281 54.9791 19.4333 61.5136 18.9904 69.4109C18.752 73.6604 20.9618 75.5268 23.0265 76.1273C25.9424 76.9755 30.5034 65.4985 30.961 60.792C31.4185 56.0857 26.4382 54.1314 24.7281 54.9791Z" fill="white"/>
<path d="M24.7281 54.9791C24.7281 54.9791 19.4333 61.5136 18.9904 69.4109C18.752 73.6604 20.9618 75.5268 23.0265 76.1273C25.9424 76.9755 30.5034 65.4985 30.961 60.792C31.4185 56.0857 26.4382 54.1314 24.7281 54.9791Z" stroke="#152A4A" stroke-linecap="round" stroke-linejoin="round"/>
<path d="M52.4844 46.8641C52.4844 46.8641 54.4067 44.5981 57.3365 45.5687C60.2969 46.5495 60.9492 49.4592 60.4607 51.3192C59.6482 54.413 56.2245 54.7383 56.2245 54.7383L52.4844 46.8641Z" fill="#0255A9"/>
<path d="M52.4844 46.8641C52.4844 46.8641 54.4067 44.598 57.3365 45.5687C60.2969 46.5495 60.9492 49.4592 60.4607 51.3192C59.6482 54.413 56.2245 54.7383 56.2245 54.7383L52.4844 46.8641Z" stroke="#152A4A" stroke-linecap="round" stroke-linejoin="round"/>
<path d="M48.1953 39.9827C48.1953 39.9827 49.7561 37.454 52.7984 37.9745C55.8724 38.5004 56.9535 41.2795 56.7492 43.1917C56.4097 46.3724 53.0736 47.207 53.0736 47.207L48.1953 39.9827Z" fill="#0255A9"/>
<path d="M48.1953 39.9827C48.1953 39.9827 49.7561 37.454 52.7984 37.9745C55.8724 38.5004 56.9535 41.2795 56.7492 43.1917C56.4097 46.3724 53.0736 47.207 53.0736 47.207L48.1953 39.9827Z" stroke="#152A4A" stroke-linecap="round" stroke-linejoin="round"/>
<path d="M40.0234 36.2054C40.0234 36.2054 40.1685 33.2375 43.0833 32.2234C46.0291 31.1986 48.3181 33.1095 49.0632 34.8825C50.3026 37.8312 47.7848 40.1738 47.7848 40.1738L40.0234 36.2054Z" fill="#0255A9"/>
<path d="M40.0234 36.2054C40.0234 36.2054 40.1685 33.2375 43.0833 32.2234C46.0291 31.1986 48.3181 33.1095 49.0632 34.8825C50.3026 37.8312 47.7848 40.1738 47.7848 40.1738L40.0234 36.2054Z" stroke="#152A4A" stroke-linecap="round" stroke-linejoin="round"/>
<path d="M56.4258 55.202C56.4258 55.202 58.3481 52.9359 61.2779 53.9066C64.2383 54.8873 64.8906 57.7971 64.4021 59.6571C63.5896 62.7508 60.1659 63.0762 60.1659 63.0762L56.4258 55.202Z" fill="#0255A9"/>
<path d="M56.4258 55.202C56.4258 55.202 58.3481 52.9359 61.2779 53.9066C64.2383 54.8873 64.8906 57.7971 64.4021 59.6571C63.5896 62.7508 60.1659 63.0762 60.1659 63.0762L56.4258 55.202Z" stroke="#152A4A" stroke-linecap="round" stroke-linejoin="round"/>
<path d="M24.7023 55.6988C24.7023 55.6988 20.8573 67.0819 22.6351 79.9162C24.2959 91.9062 29.2221 100.077 41.9015 100.344C59.9671 100.723 68.0215 93.3502 63.7489 74.039C59.7108 55.7884 54.2846 43.8087 47.212 38.2334C40.2317 32.7304 31.9125 33.0213 26.8332 35.9599C18.1107 41.0059 19.675 50.3515 24.7023 55.6988Z" fill="white"/>
<path d="M60.967 98.7338C63.3586 100.047 69.3379 100.064 69.3379 100.064C81.8941 99.1205 75.7156 94.4313 73.6562 91.8402C71.5965 89.2493 63.4048 70.7803 63.4048 70.7803C63.1522 70.4413 58.9969 58.5972 57.0586 53.052C56.1511 50.4553 54.9832 47.9553 53.5341 45.6173C50.1246 40.1161 47.4122 38.3599 47.2213 38.2404C47.2127 38.2351 47.2058 38.23 47.1978 38.2239C40.1924 32.7662 31.9081 33.0235 26.8317 35.9602C18.2568 40.9209 19.8727 50.2723 24.7009 55.6994" fill="white"/>
<path d="M60.967 98.7338C63.3586 100.047 69.3379 100.064 69.3379 100.064C81.8941 99.1205 75.7156 94.4313 73.6562 91.8402C71.5965 89.2493 63.4048 70.7803 63.4048 70.7803C63.1522 70.4413 58.9969 58.5972 57.0586 53.052C56.1511 50.4553 54.9832 47.9553 53.5341 45.6173C50.1246 40.1161 47.4122 38.3599 47.2213 38.2404C47.2127 38.2351 47.2058 38.23 47.1978 38.2239C40.1924 32.7662 31.9081 33.0235 26.8317 35.9602C18.2568 40.9209 19.8727 50.2723 24.7009 55.6994" stroke="#152A4A" stroke-linecap="round" stroke-linejoin="round"/>
<path d="M41.4869 100.561C41.9162 102.351 41.4869 104.838 41.4869 104.838C40.6651 107.288 38.6766 107.458 34.0671 107.851C29.4579 108.245 27.5759 107.94 26.9863 106.071C26.4607 104.405 27.2388 93.7557 27.2388 93.7557C22.9869 87.8548 22.9376 79.9161 22.9376 79.9161C22.9376 79.9161 22.7283 75.3855 22.6328 74.0568" fill="white"/>
<path d="M41.4869 100.561C41.9162 102.351 41.4869 104.838 41.4869 104.838C40.6651 107.288 38.6766 107.458 34.0671 107.851C29.4579 108.245 27.5759 107.94 26.9863 106.071C26.4607 104.405 27.2388 93.7557 27.2388 93.7557C22.9869 87.8548 22.9376 79.9161 22.9376 79.9161C22.9376 79.9161 22.7283 75.3855 22.6328 74.0568" stroke="#152A4A" stroke-linecap="round" stroke-linejoin="round"/>
<path d="M36.004 62.8845C49.3582 61.9246 52.0931 79.9374 52.4797 84.0698C53.0648 96.7534 46.5778 95.9334 45.8991 99.9056C45.6261 100.739 43.8309 100.256 43.044 100.355C33.4075 101.562 30.2761 94.3849 27.8525 86.0641C25.4291 77.743 25.1315 63.6661 36.004 62.8845Z" fill="#0255A9"/>
<path d="M44.2404 40.8248C45.1526 40.9077 45.9065 41.2983 46.5019 41.9967C47.0824 42.7012 47.3309 43.5132 47.2475 44.4324C47.164 45.3518 46.7739 46.1022 46.0766 46.6833C45.3643 47.2704 44.5521 47.5224 43.6399 47.4398C42.7204 47.3563 41.9706 46.9624 41.3901 46.2579C40.8015 45.5601 40.5493 44.7513 40.6327 43.8319C40.7162 42.9127 41.1103 42.1591 41.8154 41.5714C42.5127 40.9901 43.3209 40.7413 44.2404 40.8248Z" fill="#3A61AF"/>
<path d="M25.2073 40.1106C25.9875 40.186 26.6299 40.5706 27.1342 41.2639C27.6256 41.9633 27.832 42.7729 27.7531 43.6926C27.6742 44.6123 27.3339 45.3654 26.7323 45.9517C26.1177 46.5443 25.4204 46.8029 24.6401 46.7275C23.8535 46.6515 23.2146 46.2637 22.7234 45.5643C22.225 44.8712 22.0154 44.0651 22.0943 43.1454C22.173 42.2257 22.5167 41.4695 23.1252 40.8764C23.7268 40.2898 24.4209 40.0346 25.2073 40.1106Z" fill="#3A61AF"/>
<path d="M33.9489 50.2971C41.6988 50.6249 41.8084 44.8402 41.8084 44.8402C36.395 45.2935 29.1677 44.8744 26.3516 43.5896C26.3516 43.5896 26.6252 49.9873 33.9489 50.2971Z" fill="white"/>
<path d="M33.9489 50.2971C41.6988 50.6249 41.8084 44.8402 41.8084 44.8402C36.395 45.2935 29.1677 44.8744 26.3516 43.5896C26.3516 43.5896 26.6252 49.9873 33.9489 50.2971Z" stroke="#152A4A" stroke-linecap="round" stroke-linejoin="round"/>
<path d="M37.9846 40.3709C38.0152 40.3426 38.0499 40.3149 38.0888 40.2882C38.419 40.06 38.7813 39.9821 39.1755 40.0544C39.5779 40.128 39.893 40.3298 40.121 40.6602C40.349 40.9903 40.4264 41.3567 40.3525 41.7591C40.2805 42.1532 40.08 42.4602 39.7512 42.6799C39.5181 42.841 39.2723 42.9319 39.0141 42.9524C38.8947 42.9559 38.7733 42.9466 38.6501 42.9239C38.527 42.9015 38.4142 42.8682 38.312 42.8239C38.0696 42.7116 37.8718 42.5396 37.719 42.3079C37.4894 41.9861 37.4107 41.6279 37.483 41.2338C37.4995 41.1434 37.5136 41.0655 37.5256 40.9997C37.6216 40.7541 37.7744 40.5445 37.9846 40.3709Z" fill="#152A4A"/>
<path d="M28.3791 39.41C28.4098 39.3817 28.4444 39.354 28.4834 39.3273C28.8135 39.099 29.1759 39.0212 29.57 39.0934C29.9724 39.167 30.2876 39.3689 30.5156 39.6993C30.7436 40.0294 30.8209 40.3958 30.747 40.7982C30.675 41.1923 30.4745 41.4992 30.1457 41.719C29.9127 41.88 29.6668 41.971 29.4087 41.9915C29.2892 41.995 29.1679 41.9856 29.0447 41.963C28.9215 41.9406 28.8087 41.9072 28.7066 41.863C28.4642 41.7507 28.2663 41.5787 28.1135 41.347C27.8839 41.0251 27.8052 40.667 27.8775 40.2729C27.894 40.1825 27.9082 40.1046 27.9202 40.0387C28.0162 39.7932 28.169 39.5836 28.3791 39.41Z" fill="#152A4A"/>
<path d="M33.6904 44.8937C33.6128 46.251 34.2043 46.9616 35.0541 46.9467C36.3962 46.9232 36.4319 45.1838 36.4319 45.1838C36.6967 46.4075 37.2829 47.0904 38.1935 47.0976C39.1039 47.1048 39.7521 46.384 39.8622 45.1075C37.6727 45.2718 35.5936 45.2398 33.6904 44.8937Z" stroke="#152A4A" stroke-linecap="round" stroke-linejoin="round"/>
<path d="M18.9956 69.3492C18.5527 77.2465 25.9863 76.5745 25.9863 76.5745C25.9863 76.5745 30.7814 77.6468 32.0955 71.3976C32.2368 70.7251 33.7042 66.1725 32.6512 63.5733C32.2629 62.6155 31.1355 61.9368 30.0411 61.7955C28.3473 61.5771 26.3599 62.4176 25.6021 62.7539" fill="white"/>
<path d="M19.0651 68.6868C17.8905 76.2959 25.1884 76.9593 25.9847 76.9097C26.7807 76.8604 30.7853 77.2447 32.0938 71.3982C32.2994 70.4801 32.5199 69.5646 32.7797 68.6604C33.4375 66.3701 34.1034 62.32 30.0395 61.7961C28.3459 61.5777 26.3583 62.4179 25.6004 62.7542" stroke="#152A4A" stroke-linecap="round" stroke-linejoin="round"/>
<path d="M30.0599 66.4911C29.7917 67.5238 30.2124 68.3518 31.7207 68.9371C29.9778 68.9601 29.4517 69.7184 29.3194 70.4718C29.1871 71.2248 29.7498 72.2781 31.3129 72.8178L31.6052 72.8965C31.666 72.7458 31.7241 72.5792 31.7815 72.405C32.0375 71.4707 32.2721 70.4342 32.4606 69.4022C32.4828 69.2721 32.5049 69.1443 32.527 69.0083C32.5652 68.7745 32.6022 68.5531 32.6382 68.3409C32.8236 67.1137 32.9276 65.9503 32.9057 65.0354C31.4865 64.8858 30.2994 65.5692 30.0599 66.4911Z" fill="white"/>
<path d="M30.0599 66.4911C29.7917 67.5238 30.2124 68.3518 31.7207 68.9371C29.9778 68.9601 29.4517 69.7184 29.3194 70.4718C29.1871 71.2248 29.7498 72.2781 31.3129 72.8178L31.6052 72.8965C31.666 72.7458 31.7241 72.5792 31.7815 72.405C32.0375 71.4707 32.2721 70.4342 32.4606 69.4022C32.4828 69.2721 32.5049 69.1443 32.527 69.0083C32.5652 68.7745 32.6022 68.5531 32.6382 68.3409C32.8236 67.1137 32.9276 65.9503 32.9057 65.0354C31.4865 64.8858 30.2994 65.5692 30.0599 66.4911Z" stroke="#152A4A" stroke-linecap="round" stroke-linejoin="round"/>
<path d="M51.0919 75.1268C49.4621 77.106 44.5772 77.7073 42.2442 77.5716C31.0925 76.9225 32.3914 72.8136 32.9362 67.2841C33.686 59.671 38.8536 62.5872 39.969 62.8347C41.0847 63.0821 44.6889 63.3475 45.6321 60.8798" fill="white"/>
<path d="M51.0919 75.1268C49.4621 77.106 44.5772 77.7073 42.2442 77.5716C31.0925 76.9225 32.3914 72.8136 32.9362 67.2841C33.686 59.671 38.8536 62.5872 39.969 62.8347C41.0847 63.0821 44.6889 63.3475 45.6321 60.8798" stroke="#152A4A" stroke-linecap="round" stroke-linejoin="round"/>
<path d="M35.5183 71.2535C35.6799 70.1991 35.1986 69.4183 33.6951 68.989C35.3676 68.7893 35.8028 67.9816 35.8601 67.2189C35.9172 66.4565 35.2786 65.4659 33.7261 65.0878L33.4381 65.0393C33.3936 65.1952 33.3533 65.3667 33.3144 65.5459C33.1552 66.5011 33.0261 67.556 32.9408 68.6015C32.9314 68.7333 32.9221 68.8626 32.9136 69.0002C32.8986 69.2365 32.8837 69.4605 32.8688 69.6754C32.8045 70.9145 32.813 72.0822 32.9189 72.9902C34.2965 72.9947 35.374 72.1945 35.5183 71.2535Z" fill="white"/>
<path d="M35.5183 71.2535C35.6799 70.1991 35.1986 69.4183 33.6951 68.989C35.3676 68.7893 35.8028 67.9816 35.8601 67.2189C35.9172 66.4565 35.2786 65.4659 33.7261 65.0878L33.4381 65.0393C33.3936 65.1952 33.3533 65.3667 33.3144 65.5459C33.1552 66.5011 33.0261 67.556 32.9408 68.6015C32.9314 68.7333 32.9221 68.8626 32.9136 69.0002C32.8986 69.2365 32.8837 69.4605 32.8688 69.6754C32.8045 70.9145 32.813 72.0822 32.9189 72.9902C34.2965 72.9947 35.374 72.1945 35.5183 71.2535Z" stroke="#152A4A" stroke-linecap="round" stroke-linejoin="round"/>
<path d="M16.0703 70.9562C16.0703 70.9562 15.1845 73.3479 16.6017 75.5625L16.0703 70.9562Z" fill="white"/>
<path d="M16.0703 70.9562C16.0703 70.9562 15.1845 73.3479 16.6017 75.5625" stroke="#152A4A" stroke-linecap="round" stroke-linejoin="round"/>
<path d="M13.238 72.9897C13.238 72.9897 12.5293 75.9485 14.3895 77.9258L13.238 72.9897Z" fill="white"/>
<path d="M13.238 72.9897C13.238 72.9897 12.5293 75.9485 14.3895 77.9258" stroke="#152A4A" stroke-linecap="round" stroke-linejoin="round"/>
<path d="M54.6148 73.614C54.6148 73.614 55.3247 75.4203 54.1602 77.5117L54.6148 73.614Z" fill="white"/>
<path d="M54.6148 73.614C54.6148 73.614 55.3247 75.4203 54.1602 77.5117" stroke="#152A4A" stroke-linecap="round" stroke-linejoin="round"/>
<path d="M57.5707 74.1377C57.5707 74.1377 58.4566 76.3665 56.7734 78.7832L57.5707 74.1377Z" fill="white"/>
<path d="M57.5707 74.1377C57.5707 74.1377 58.4566 76.3665 56.7734 78.7832" stroke="#152A4A" stroke-linecap="round" stroke-linejoin="round"/>
<path d="M14.7521 53.4305C14.7521 53.4305 15.5622 55.9075 10.8359 58.681C10.8359 58.681 15.0227 58.2872 15.8665 62.2676C15.8665 62.2676 16.5742 58.2805 20.0186 58.2813C20.0186 58.2813 17.2501 57.2413 18.9381 55.0942C18.9381 55.0942 16.1699 55.1966 14.7521 53.4305Z" fill="#FFEE5D"/>
<path d="M14.7521 53.4305C14.7521 53.4305 15.5622 55.9075 10.8359 58.681C10.8359 58.681 15.0227 58.2872 15.8665 62.2676C15.8665 62.2676 16.5742 58.2805 20.0186 58.2813C20.0186 58.2813 17.2501 57.2413 18.9381 55.0942C18.9381 55.0942 16.1699 55.1966 14.7521 53.4305Z" stroke="#EFB91A" stroke-linecap="round" stroke-linejoin="round"/>
<path d="M36.0977 56.5236C36.0977 56.5236 39.1821 56.631 39.3221 53.1943C39.3221 53.1943 40.9002 56.2801 43.126 56.0142C43.126 56.0142 40.0069 57.9798 39.753 59.8555C39.753 59.8555 39.3573 57.4913 36.0977 56.5236Z" fill="#FFEE5D"/>
<path d="M36.0977 56.5236C36.0977 56.5236 39.1821 56.631 39.3221 53.1943C39.3221 53.1943 40.9002 56.2801 43.126 56.0142C43.126 56.0142 40.0069 57.9798 39.753 59.8555C39.753 59.8555 39.3573 57.4913 36.0977 56.5236Z" stroke="#EFB91A" stroke-linecap="round" stroke-linejoin="round"/>
</g>
</svg>
