<svg width="430" height="267" viewBox="0 0 430 267" fill="none" xmlns="http://www.w3.org/2000/svg">
<g clip-path="url(#clip0_6701_50734)">
<rect width="430" height="267" fill="url(#paint0_linear_6701_50734)"/>
<circle cx="302.5" cy="196.5" r="168.5" fill="url(#paint1_radial_6701_50734)" fill-opacity="0.5"/>
<rect x="372.453" y="131.024" width="45.143" height="46.0834" fill="white"/>
<path d="M349.158 132.136C357.486 124.366 361.946 119.905 369.68 120.5C377.412 121.095 384.848 123.458 386.93 126.292C389.011 129.125 368.043 152.918 368.043 152.918L345.273 145.608L349.158 132.136Z" fill="white"/>
<path d="M349.158 132.136C357.486 124.366 361.946 119.905 369.68 120.5C377.412 121.095 384.848 123.458 386.93 126.292C389.011 129.125 368.043 152.918 368.043 152.918L345.273 145.608L349.158 132.136Z" stroke="black" stroke-width="4" stroke-linecap="round" stroke-linejoin="round"/>
<path d="M345.273 146.2C361.351 145.88 388.832 114.809 399.421 97.1856C406.262 85.8012 414.687 79.8649 423.215 87.289C433.463 96.2113 440.168 138.925 424.404 153.477" fill="white"/>
<path d="M345.273 146.2C361.351 145.88 388.832 114.809 399.421 97.1857C406.262 85.8012 414.687 79.8649 423.215 87.289C433.463 96.2113 440.168 138.925 424.404 153.477" stroke="black" stroke-width="4" stroke-linecap="round" stroke-linejoin="round"/>
<path d="M223.719 243.856C223.719 243.856 236.057 248.806 248.137 242.09C260.102 235.437 260.214 225.607 260.214 225.607L296.374 248.806C296.374 248.806 314.212 255.76 335.627 248.806C335.627 248.806 378.239 254.932 414.183 222.806C414.183 222.806 461.181 205.313 470.771 180.317C472.927 174.698 463.963 168.786 463.963 168.786L291.113 174.138L246.122 202.784L223.719 243.856Z" fill="#C2C5CC"/>
<path d="M348.085 153.421C348.085 153.421 345.058 142.361 354.533 135.146C364.109 127.856 374.893 132.038 379.654 137.73C389.432 149.416 379.498 163.626 379.498 163.626L348.085 153.421Z" fill="#0D57A7"/>
<path d="M348.085 153.421C348.085 153.421 345.058 142.361 354.533 135.146C364.109 127.856 374.893 132.038 379.654 137.73C389.432 149.416 379.498 163.626 379.498 163.626L348.085 153.421Z" stroke="black" stroke-width="4" stroke-linecap="round" stroke-linejoin="round"/>
<path d="M317.707 126.925C317.707 126.925 319.832 115.657 331.51 113.324C343.312 110.965 351.05 119.481 352.96 126.651C356.137 138.579 345.274 146.201 345.274 146.201L317.707 126.925Z" fill="#0D57A7"/>
<path d="M317.707 126.925C317.707 126.925 319.832 115.657 331.51 113.324C343.312 110.965 351.05 119.481 352.96 126.651C356.137 138.579 345.274 146.201 345.274 146.201L317.707 126.925Z" stroke="black" stroke-width="4" stroke-linecap="round" stroke-linejoin="round"/>
<path d="M287.348 109.12C287.348 109.12 289.88 96.2807 301.599 93.416C313.44 90.5202 321.341 98.6168 323.36 105.65C326.719 117.348 315.893 125.428 315.893 125.428L287.348 109.12Z" fill="#0D57A7"/>
<path d="M287.348 109.12C287.348 109.12 289.88 96.2807 301.599 93.416C313.44 90.5202 321.341 98.6168 323.36 105.65C326.719 117.348 315.893 125.428 315.893 125.428L287.348 109.12Z" stroke="black" stroke-width="4" stroke-linecap="round" stroke-linejoin="round"/>
<path d="M253.226 103.163C253.226 103.163 251.742 92.8333 261.412 86.8546C271.185 80.813 280.602 85.427 284.443 90.8865C290.83 99.9668 284.914 110.046 284.914 110.046L253.226 103.163Z" fill="#0D57A7"/>
<path d="M253.226 103.163C253.226 103.163 251.742 92.8333 261.412 86.8546C271.185 80.813 280.602 85.427 284.443 90.8865C290.83 99.9668 284.914 110.046 284.914 110.046L253.226 103.163Z" stroke="black" stroke-width="4" stroke-linecap="round" stroke-linejoin="round"/>
<path d="M377.248 160.94C327.357 141.32 316.93 120.595 284.734 108.065C254.137 96.1578 224.882 107.559 211.22 124.365C187.76 153.223 207.241 187.753 231.56 199.808C231.56 199.808 241.046 248.808 335.625 240.46C416.894 233.288 432.181 192.464 424.808 177.125C416.078 158.968 377.248 160.94 377.248 160.94Z" fill="#FFFFFE"/>
<path d="M313.547 210.342C304.678 196.573 289.837 187.825 276.077 187.874C264.343 187.916 254.53 191.88 250.815 203.318C247.74 212.785 250.149 224.833 259.821 230.575C275.328 238.221 350.617 267.897 313.547 210.342Z" fill="#0D57A7"/>
<path d="M287.634 132.762C290.925 133.123 293.623 134.585 295.728 137.15C297.778 139.734 298.621 142.686 298.258 146.002C297.895 149.319 296.433 152.004 293.874 154.057C291.26 156.131 288.308 156.986 285.017 156.626C281.7 156.262 279.017 154.788 276.967 152.203C274.888 149.641 274.03 146.702 274.394 143.385C274.757 140.069 276.232 137.373 278.821 135.296C281.38 133.243 284.317 132.398 287.634 132.762Z" fill="#3C63AE"/>
<path d="M218.896 128.897C221.71 129.223 224.005 130.655 225.781 133.195C227.509 135.756 228.201 138.695 227.854 142.013C227.507 145.331 226.227 148.029 224.013 150.109C221.752 152.209 219.214 153.096 216.4 152.77C213.562 152.442 211.28 150.999 209.551 148.438C207.798 145.9 207.094 142.973 207.441 139.655C207.788 136.337 209.081 133.626 211.32 131.524C213.533 129.445 216.059 128.569 218.896 128.897Z" fill="#3C63AE"/>
<path d="M382.578 162.058C330.727 142.655 316.93 120.594 284.734 108.065C254.137 96.1563 224.882 107.558 211.22 124.363C187.76 153.223 207.241 187.752 231.56 199.807C231.56 199.807 232.678 205.578 237.968 212.821" stroke="black" stroke-width="4" stroke-linecap="round" stroke-linejoin="round"/>
<path d="M246.121 221.608C259.818 233.438 286.015 244.839 335.626 240.46C416.895 233.288 432.183 192.464 424.809 177.125" stroke="black" stroke-width="4" stroke-linecap="round" stroke-linejoin="round"/>
<path d="M238.909 127.868C238.785 127.753 238.643 127.641 238.486 127.533C237.148 126.609 235.681 126.293 234.084 126.586C232.454 126.885 231.177 127.703 230.253 129.042C229.33 130.38 229.018 131.864 229.317 133.494C229.609 135.091 230.422 136.334 231.754 137.225C232.699 137.876 233.694 138.244 234.741 138.327C235.225 138.342 235.717 138.303 236.215 138.211C236.715 138.12 237.171 137.985 237.585 137.806C238.567 137.351 239.368 136.654 239.986 135.715C240.916 134.41 241.235 132.96 240.942 131.363C240.874 130.997 240.817 130.681 240.768 130.415C240.38 129.421 239.76 128.571 238.909 127.868Z" fill="black"/>
<path d="M273.913 128.102C273.756 127.993 273.598 127.885 273.441 127.776C272.063 126.825 270.559 126.5 268.929 126.799C267.267 127.104 265.942 127.947 264.959 129.332C264.008 130.709 263.685 132.229 263.99 133.892C264.295 135.556 265.136 136.863 266.513 137.813C267.491 138.459 268.504 138.824 269.55 138.907C270.074 138.948 270.601 138.921 271.134 138.823C271.632 138.732 272.119 138.574 272.594 138.349C273.543 137.899 274.344 137.203 274.995 136.258C275.946 134.88 276.269 133.361 275.964 131.697C275.903 131.365 275.846 131.049 275.79 130.749C275.396 129.722 274.77 128.839 273.913 128.102Z" fill="black"/>
<path d="M226.398 145.657C241.937 148.884 259.366 148.742 278.685 145.232" stroke="black" stroke-width="4" stroke-linecap="round" stroke-linejoin="round"/>
<path d="M274.386 146.28C274.985 151.734 273.013 154.672 269.936 154.725C265.077 154.808 264.54 147.812 264.54 147.812C263.87 152.773 261.91 155.598 258.619 155.747C255.328 155.897 252.815 153.082 252.117 147.958C260.074 148.33 267.585 147.925 274.386 146.28Z" fill="white"/>
<path d="M274.386 146.28C274.985 151.734 273.013 154.672 269.936 154.725C265.077 154.808 264.54 147.812 264.54 147.812C263.87 152.773 261.91 155.598 258.619 155.747C255.328 155.897 252.815 153.082 252.117 147.958C260.074 148.33 267.585 147.925 274.386 146.28Z" stroke="black" stroke-width="4" stroke-linecap="round" stroke-linejoin="round"/>
<path d="M407.625 216.427C443.5 199.819 466.339 178.894 468.124 169.42C469.908 159.945 455.632 149.747 450.279 146.603C444.925 143.459 439.869 142.014 434.515 141.842C429.162 141.669 418.157 144.393 411.019 147.442" fill="white"/>
<path d="M407.625 216.427C443.5 199.819 466.339 178.894 468.124 169.42C469.908 159.945 455.632 149.747 450.279 146.603C444.925 143.459 439.869 142.014 434.515 141.842C429.162 141.669 418.157 144.393 411.019 147.442" stroke="black" stroke-width="4" stroke-linecap="round" stroke-linejoin="round"/>
<path d="M250.812 224.261C245.686 235.935 233.371 245.083 214.783 241.073C197.647 237.376 189.328 225.582 190.042 208.683C190.796 190.862 204.326 183.286 210.696 181.908C215.89 180.785 240.268 197.111 240.782 204.303C241.095 208.687 238.266 212.6 238.266 212.6C243.823 210.104 252.841 220.57 250.812 224.261Z" fill="white"/>
<path d="M250.812 224.261C245.686 235.935 233.371 245.083 214.783 241.073C197.647 237.376 189.328 225.582 190.042 208.683C190.796 190.862 204.326 183.286 210.696 181.908C215.89 180.785 240.268 197.111 240.782 204.303C241.095 208.687 238.266 212.6 238.266 212.6" stroke="black" stroke-width="4" stroke-linecap="round" stroke-linejoin="round"/>
<path d="M239.203 211.029C239.203 211.029 234.606 218.482 232.91 220.177" stroke="black" stroke-width="4" stroke-linecap="round" stroke-linejoin="round"/>
<path d="M210.42 191.4C212.75 193.518 216.68 193.334 219.874 189.325C217.14 194.538 218.937 198.138 220.903 199.251C223.474 200.705 226.421 200.282 230.369 196.322L232.274 194.162C231.97 193.788 231.618 193.402 231.245 193.009C229.16 191.052 225.803 188.905 223.348 187.024C223.036 186.791 215.548 182.263 212.057 181.914C209.049 185.081 208.341 189.508 210.42 191.4Z" fill="white"/>
<path d="M210.42 191.4C212.75 193.518 216.68 193.334 219.874 189.325C217.14 194.538 218.937 198.138 220.903 199.251C223.474 200.705 226.421 200.282 230.369 196.322L232.274 194.162C231.97 193.788 231.618 193.402 231.245 193.009C229.16 191.052 225.803 188.905 223.348 187.024C223.036 186.791 215.548 182.263 212.057 181.914C209.049 185.081 208.341 189.508 210.42 191.4Z" stroke="black" stroke-width="4" stroke-linecap="round" stroke-linejoin="round"/>
<path d="M327.386 240.932C317.712 246.623 307.777 248.807 296.375 248.807C284.973 248.807 261.605 243.573 260.386 218.089C259.673 203.197 261.098 193.155 266.443 190.337C271.788 187.52 303.501 183.6 309.202 186.807C314.903 190.014 319.335 210.518 319.335 217.094" fill="white"/>
<path d="M327.386 240.932C317.712 246.623 307.777 248.807 296.375 248.807C284.973 248.807 261.605 243.573 260.386 218.089C259.673 203.197 261.098 193.155 266.443 190.337C271.788 187.52 303.501 183.6 309.202 186.807C314.903 190.014 319.335 210.518 319.335 217.094" stroke="black" stroke-width="4" stroke-linecap="round" stroke-linejoin="round"/>
<path d="M281.544 197.321C285.251 197.283 287.654 195.171 288.272 189.714C289.907 195.401 292.923 196.451 295.57 196.216C298.217 195.981 301.25 193.205 301.665 187.607L301.667 186.581C301.107 186.515 300.496 186.472 299.86 186.44C296.494 186.428 292.804 186.581 289.171 186.878C288.715 186.92 288.267 186.962 287.79 187.01C286.971 187.092 286.195 187.168 285.449 187.237C281.164 187.719 277.165 188.41 274.113 189.293C274.88 194.073 278.235 197.355 281.544 197.321Z" fill="white"/>
<path d="M281.544 197.321C285.251 197.283 287.654 195.171 288.272 189.713C289.907 195.401 292.923 196.451 295.57 196.216C298.217 195.981 301.25 193.205 301.665 187.607L301.667 186.581C301.107 186.515 300.496 186.472 299.86 186.44C296.494 186.428 292.804 186.581 289.171 186.878C288.715 186.92 288.267 186.962 287.79 187.01C286.971 187.092 286.195 187.168 285.449 187.237C281.164 187.719 277.165 188.41 274.113 189.293C274.88 194.073 278.235 197.355 281.544 197.321Z" stroke="black" stroke-width="4" stroke-linecap="round" stroke-linejoin="round"/>
<path fill-rule="evenodd" clip-rule="evenodd" d="M55.9794 17C50.9159 17 46.4806 19.8838 44.0863 24.1467C42.9281 23.6939 41.6919 23.4672 40.397 23.4672C36.4328 23.4672 32.9589 25.7332 31.0944 29.0898C29.8583 28.3486 28.4061 27.9159 26.8554 27.9159C22.8126 27.9159 19.4371 30.8406 18.495 34.7748C18.456 34.7748 18.3965 34.7748 18.3575 34.7748C15.3944 34.7748 13 37.2877 13 40.3774C13 43.4872 15.3944 46 18.3575 46C35.2944 46 51.8389 46 69.266 46C74.6434 46 79 41.407 79 35.7636C79 30.1202 74.6434 25.5473 69.266 25.5473C69.0301 25.5473 68.8148 25.5681 68.5987 25.5889C66.4402 20.5224 61.5927 17 55.9794 17Z" fill="white"/>
<path fill-rule="evenodd" clip-rule="evenodd" d="M410.366 44.6662H408.698C408.364 39.9437 404.283 36.2282 399.298 36.2282C398.788 36.2282 398.297 36.2675 397.826 36.3466C395.922 30.9123 390.506 27 384.108 27C379.124 27 374.728 29.3909 372.137 33.0271C371.235 32.8096 370.312 32.7111 369.35 32.7111C362.913 32.7111 357.713 37.572 357.713 43.5599C357.713 43.9351 357.732 44.291 357.771 44.6662H357.614C353.434 44.6662 350 48.1049 350 52.3331C350 56.5421 353.434 60 357.614 60H410.366C414.566 60 418 56.5421 418 52.3331C418 48.1049 414.566 44.6662 410.366 44.6662Z" fill="white"/>
<path fill-rule="evenodd" clip-rule="evenodd" d="M319.823 17C317.156 17 314.89 18.7341 314.089 21.1283C311.256 21.5823 308.921 23.5365 307.94 26.1513C307.484 26.0549 307 26.0137 306.517 26.0137C302.372 26.0137 299 29.3716 299 33.5138C299 37.656 302.372 41 306.517 41C317.101 41 327.215 41 337.882 41C340.162 41 342 39.1695 342 36.899C342 35.1927 340.964 33.7338 339.485 33.1144C338.877 30.7063 336.874 28.8346 334.373 28.4218C333.806 25.133 330.918 22.628 327.45 22.628C326.911 22.628 326.372 22.6831 325.875 22.7934C325.75 19.5736 323.097 17 319.823 17Z" fill="white"/>
<path d="M296.939 81.939L293 83L296.939 84.06L298 88L299.06 84.06L303 83L299.06 81.939L298 78L296.939 81.939Z" fill="white"/>
<path d="M170.939 191.939L167 193L170.939 194.06L172 198L173.06 194.06L177 193L173.06 191.939L172 188L170.939 191.939Z" fill="white"/>
<path d="M189.939 156.939L186 158L189.939 159.06L191 163L192.06 159.06L196 158L192.06 156.939L191 153L189.939 156.939Z" fill="white"/>
<path d="M286.484 68.2719L279 70.5L286.484 72.726L288.5 81L290.514 72.726L298 70.5L290.514 68.2719L288.5 60L286.484 68.2719Z" fill="white"/>
<path d="M184.484 172.272L177 174.5L184.484 176.726L186.5 185L188.514 176.726L196 174.5L188.514 172.272L186.5 164L184.484 172.272Z" fill="white"/>
</g>
<defs>
<linearGradient id="paint0_linear_6701_50734" x1="215" y1="0" x2="215" y2="267" gradientUnits="userSpaceOnUse">
<stop offset="0.245198" stop-color="#02D1FF"/>
<stop offset="1" stop-color="#D8FFFD"/>
</linearGradient>
<radialGradient id="paint1_radial_6701_50734" cx="0" cy="0" r="1" gradientUnits="userSpaceOnUse" gradientTransform="translate(302.5 196.5) rotate(90) scale(168.5)">
<stop stop-color="#FEFFA9"/>
<stop offset="1" stop-color="white" stop-opacity="0.65"/>
</radialGradient>
<clipPath id="clip0_6701_50734">
<rect width="430" height="267" fill="white"/>
</clipPath>
</defs>
</svg>
