<svg width="430" height="267" viewBox="0 0 430 267" fill="none" xmlns="http://www.w3.org/2000/svg">
<g clip-path="url(#clip0_6701_50670)">
<rect width="430" height="267" fill="url(#paint0_linear_6701_50670)"/>
<g clip-path="url(#clip1_6701_50670)">
<path d="M457.008 23.7409L429.235 6.43913L457.008 -10.8627C463.75 -15.0712 468.173 -22.553 468.884 -30.9367L473.678 -87.9858C473.74 -88.6205 473.616 -89.2885 473.307 -89.8897C472.998 -90.4909 472.534 -90.9251 471.977 -91.1924L423.822 -115.241C416.771 -118.782 408.513 -118.381 401.77 -114.172L373.997 -96.8705V-131.508C373.997 -139.925 370.193 -147.807 363.822 -152.65L320.491 -185.684C319.996 -186.052 319.409 -186.252 318.79 -186.252C318.172 -186.252 317.553 -186.052 317.089 -185.684L273.728 -152.684C267.357 -147.841 263.583 -139.925 263.583 -131.541V-96.9039L235.81 -114.206C229.067 -118.414 220.841 -118.815 213.758 -115.275L165.603 -91.2258C165.077 -90.9585 164.613 -90.5243 164.273 -89.9231C163.964 -89.3219 163.84 -88.6539 163.902 -88.0192L168.696 -30.9701C169.407 -22.5864 173.83 -15.1046 180.572 -10.8961L208.346 6.40573L180.572 23.7075C173.83 27.9161 169.407 35.3979 168.696 43.7816L163.871 100.898C163.809 101.532 163.933 102.2 164.242 102.768C164.551 103.369 165.015 103.803 165.572 104.071L213.727 128.119C220.779 131.66 229.037 131.259 235.779 127.051L263.552 109.749V144.386C263.552 152.803 267.357 160.686 273.728 165.529L317.089 198.529C317.584 198.896 318.172 199.097 318.79 199.097C319.409 199.097 320.027 198.896 320.491 198.529L363.852 165.529C370.224 160.686 373.997 152.769 373.997 144.386V109.749L401.77 127.051C408.513 131.259 416.74 131.66 423.822 128.119L471.977 104.071C472.503 103.803 472.967 103.369 473.307 102.768C473.616 102.167 473.74 101.532 473.678 100.898L468.884 43.8484C468.173 35.4647 463.75 27.9829 457.008 23.7743V23.7409ZM455.029 27.4484C460.658 30.9556 464.369 37.235 464.957 44.2158L469.441 97.9248L373.997 38.404V-23.0875L407.368 -2.27855L454.998 27.415L455.029 27.4484ZM370.038 -23.0875V35.9323L322.687 6.40573L370.038 -23.1209V-23.0875ZM320.739 -56.2882L368.059 -26.7616L320.739 2.76501V-56.2548V-56.2882ZM314.8 6.43913L267.48 35.9657V-23.0541L314.8 6.47253V6.43913ZM316.78 69.1664L269.429 39.6398L316.78 10.1133V69.133V69.1664ZM320.739 10.1467L368.059 39.6732L320.739 69.1999V10.1801V10.1467ZM316.78 2.76501L269.429 -26.7616L316.78 -56.2882V2.73161V2.76501ZM464.926 -31.3041C464.338 -24.3233 460.627 -18.0439 454.998 -14.5368L425.245 4.00085L375.945 -26.7616L469.41 -85.0465L464.926 -31.3375V-31.3041ZM403.719 -110.465C406.75 -112.369 410.214 -113.371 413.709 -113.371C416.647 -113.371 419.461 -112.703 422.121 -111.367L467.431 -88.7207L373.966 -30.4357V-91.9606L403.719 -110.498V-110.465ZM370.038 -131.474V-94.7663V-30.4357L320.739 -61.1647V-180.24L361.564 -149.177C366.883 -145.135 370.038 -138.522 370.038 -131.508V-131.474ZM275.955 -149.143L316.811 -180.24V-61.2315L267.511 -30.4691V-131.508C267.511 -138.522 270.697 -145.135 275.986 -149.177L275.955 -149.143ZM215.366 -111.367C218.026 -112.703 220.841 -113.371 223.779 -113.371C227.305 -113.371 230.738 -112.369 233.769 -110.465L263.521 -91.9272V-30.4357L170.057 -88.7541L215.366 -111.4V-111.367ZM182.521 -14.5702C176.892 -18.0773 173.18 -24.3567 172.593 -31.3375L168.108 -85.0465L261.573 -26.7616L212.274 3.96745L182.552 -14.5702H182.521ZM172.593 44.2158C173.18 37.235 176.892 30.9556 182.521 27.4484L222.882 2.26399L263.552 -23.0875V38.404L168.108 97.9248L172.593 44.2158ZM233.8 123.376C230.769 125.28 227.305 126.282 223.81 126.282C220.872 126.282 218.057 125.614 215.397 124.278L170.057 101.632L265.501 42.1115L314.8 72.874L283.254 92.5472L233.769 123.41L233.8 123.376ZM267.48 144.386V107.311L316.78 76.5481V193.118L275.955 162.055C270.635 158.013 267.48 151.4 267.48 144.386ZM361.564 162.055L320.739 193.118V76.5481L370.038 107.277V144.352C370.038 151.367 366.852 157.98 361.564 162.022V162.055ZM422.152 124.278C419.492 125.614 416.678 126.282 413.74 126.282C410.245 126.282 406.781 125.28 403.75 123.376L354.481 92.6808L322.718 72.874L372.017 42.1449L467.462 101.666L422.152 124.312V124.278Z" fill="white" fill-opacity="0.16"/>
<path d="M265.484 119.272L258 121.5L265.484 123.726L267.5 132L269.514 123.726L277 121.5L269.514 119.272L267.5 111L265.484 119.272Z" fill="white"/>
<path d="M292.939 88.939L289 90L292.939 91.06L294 95L295.06 91.06L299 90L295.06 88.939L294 85L292.939 88.939Z" fill="white"/>
<path d="M235.939 122.939L232 124L235.939 125.06L237 129L238.06 125.06L242 124L238.06 122.939L237 119L235.939 122.939Z" fill="white"/>
</g>
<g clip-path="url(#clip2_6701_50670)">
<path d="M135.18 241.533L117.199 230.383L135.18 219.233C139.546 216.521 142.409 211.699 142.87 206.297L145.973 169.532C146.013 169.123 145.933 168.692 145.733 168.305C145.533 167.917 145.232 167.637 144.872 167.465L113.695 151.967C109.129 149.685 103.783 149.944 99.4174 152.656L81.4359 163.806V141.484C81.4359 136.06 78.9729 130.98 74.848 127.859L46.7944 106.571C46.474 106.334 46.0935 106.205 45.6931 106.205C45.2926 106.205 44.8921 106.334 44.5917 106.571L16.5181 127.837C12.3931 130.959 9.95021 136.06 9.95021 141.463V163.784L-8.03135 152.634C-12.3966 149.922 -17.723 149.664 -22.3085 151.946L-53.4858 167.444C-53.8262 167.616 -54.1266 167.896 -54.3469 168.283C-54.5471 168.671 -54.6272 169.101 -54.5872 169.51L-51.4834 206.275C-51.0229 211.678 -48.1594 216.5 -43.7942 219.212L-25.8127 230.362L-43.7942 241.512C-48.1594 244.224 -51.0229 249.046 -51.4834 254.448L-54.6072 291.256C-54.6472 291.665 -54.5671 292.096 -54.3669 292.462C-54.1666 292.849 -53.8663 293.129 -53.5059 293.301L-22.3285 308.799C-17.763 311.081 -12.4166 310.823 -8.05137 308.111L9.93018 296.961V319.282C9.93018 324.707 12.3931 329.787 16.5181 332.908L44.5917 354.175C44.9121 354.411 45.2926 354.54 45.6931 354.54C46.0935 354.54 46.494 354.411 46.7944 354.175L74.868 332.908C78.993 329.787 81.4359 324.685 81.4359 319.282V296.961L99.4174 308.111C103.783 310.823 109.109 311.081 113.695 308.799L144.872 293.301C145.212 293.129 145.513 292.849 145.733 292.462C145.933 292.074 146.013 291.665 145.973 291.256L142.87 254.491C142.409 249.089 139.546 244.267 135.18 241.555V241.533ZM133.899 243.923C137.543 246.183 139.946 250.23 140.326 254.728L143.23 289.341L81.4359 250.983V211.355L103.042 224.765L133.879 243.901L133.899 243.923ZM78.8728 211.355V249.39L48.2161 230.362L78.8728 211.334V211.355ZM46.9546 189.959L77.5913 208.987L46.9546 228.016V189.981V189.959ZM43.11 230.383L12.4732 249.412V211.377L43.11 230.405V230.383ZM44.3915 270.808L13.7347 251.779L44.3915 232.751V270.786V270.808ZM46.9546 232.773L77.5913 251.801L46.9546 270.829V232.794V232.773ZM44.3915 228.016L13.7347 208.987L44.3915 189.959V227.994V228.016ZM140.306 206.06C139.926 210.559 137.523 214.605 133.879 216.865L114.616 228.812L82.6974 208.987L143.21 171.426L140.306 206.038V206.06ZM100.679 155.045C102.641 153.818 104.884 153.173 107.147 153.173C109.049 153.173 110.871 153.603 112.593 154.464L141.928 169.058L81.4159 206.62V166.97L100.679 155.024V155.045ZM78.8728 141.506V165.162V206.62L46.9546 186.816V110.079L73.3862 130.098C76.8304 132.702 78.8728 136.964 78.8728 141.484V141.506ZM17.9598 130.119L44.4115 110.079V186.773L12.4933 206.598V141.484C12.4933 136.964 14.5557 132.702 17.9798 130.098L17.9598 130.119ZM-21.2672 154.464C-19.5452 153.603 -17.723 153.173 -15.8207 153.173C-13.5379 153.173 -11.3153 153.818 -9.35293 155.045L9.91016 166.992V206.62L-50.6024 169.037L-21.2672 154.442V154.464ZM-42.5327 216.844C-46.1771 214.584 -48.58 210.537 -48.9604 206.038L-51.8639 171.426L8.64864 208.987L-23.2696 228.79L-42.5127 216.844H-42.5327ZM-48.9604 254.728C-48.58 250.23 -46.1771 246.183 -42.5327 243.923L-16.4014 227.693L9.93018 211.355V250.983L-51.8639 289.341L-48.9604 254.728ZM-9.33291 305.743C-11.2953 306.97 -13.538 307.616 -15.8007 307.616C-17.7029 307.616 -19.5251 307.185 -21.2472 306.324L-50.6024 291.73L11.1917 253.372L43.11 273.197L22.6855 285.875L-9.35293 305.764L-9.33291 305.743ZM12.4732 319.282V295.389L44.3915 275.565V350.687L17.9598 330.669C14.5157 328.065 12.4732 323.803 12.4732 319.282ZM73.3862 330.669L46.9546 350.687V275.565L78.8728 295.368V319.261C78.8728 323.781 76.8103 328.043 73.3862 330.648V330.669ZM112.613 306.324C110.891 307.185 109.069 307.616 107.167 307.616C104.904 307.616 102.661 306.97 100.699 305.743L68.8008 285.961L48.2361 273.197L80.1544 253.394L141.948 291.752L112.613 306.346V306.324Z" fill="white" fill-opacity="0.3"/>
</g>
<path d="M400.129 123.504C400.129 123.504 410.387 121.207 416.939 130.119C423.561 139.123 419.49 148.663 414.246 152.85C405.527 159.813 394.874 153.494 394.874 153.494L400.129 123.504Z" fill="#0255A9"/>
<path d="M400.129 123.504C400.129 123.504 410.387 121.207 416.939 130.119C423.561 139.123 419.49 148.663 414.246 152.85C405.527 159.813 394.874 153.494 394.874 153.494L400.129 123.504Z" stroke="black" stroke-width="3" stroke-linecap="round" stroke-linejoin="round"/>
<path d="M396.554 154.36C396.554 154.36 406.726 151.7 413.242 160.461C419.828 169.315 415.808 179.07 410.615 183.466C401.978 190.779 391.399 184.769 391.399 184.769L396.554 154.36Z" fill="#0255A9"/>
<path d="M396.554 154.36C396.554 154.36 406.726 151.7 413.242 160.461C419.828 169.315 415.808 179.07 410.615 183.466C401.978 190.779 391.399 184.769 391.399 184.769L396.554 154.36Z" stroke="black" stroke-width="3" stroke-linecap="round" stroke-linejoin="round"/>
<path d="M387.531 97.2968C387.531 97.2968 395.259 91.6555 404.258 96.9191C413.35 102.238 413.659 111.849 410.888 117.306C406.278 126.381 399.322 125.102 399.322 125.102L387.531 97.2968Z" fill="#0255A9"/>
<path d="M387.531 97.2968C387.531 97.2968 395.259 91.6555 404.258 96.9191C413.35 102.238 413.659 111.849 410.888 117.306C406.278 126.381 399.322 125.102 399.322 125.102L387.531 97.2968Z" stroke="black" stroke-width="3" stroke-linecap="round" stroke-linejoin="round"/>
<path d="M388.208 187.716C388.208 187.716 397.258 185.254 402.904 192.78C408.611 200.386 404.908 208.928 400.243 212.827C392.486 219.312 383.201 214.238 383.201 214.238L388.208 187.716Z" fill="#0255A9"/>
<path d="M388.208 187.716C388.208 187.716 397.258 185.254 402.904 192.78C408.611 200.386 404.908 208.928 400.243 212.827C392.486 219.312 383.201 214.238 383.201 214.238L388.208 187.716Z" stroke="black" stroke-width="3" stroke-linecap="round" stroke-linejoin="round"/>
<path d="M275.819 134.293C268.084 134.969 262.943 135.843 255.823 137.826C210.944 150.323 199.053 186.077 199.053 186.077C180.552 230.732 196.301 265.907 196.301 265.907C193.138 278.131 178.127 283.589 168.874 294.167C157.32 307.378 162.999 315.442 174.168 318.798C190.666 323.758 247.109 316.831 274.663 305.373C302.216 293.915 326.203 284.219 351.148 258.482C371.873 237.101 387.934 211.616 396.094 182.979C404.609 153.097 404.059 131.628 396.342 112.829C384.851 84.8395 361.43 78.7346 341.471 78.6155C308.652 78.4191 293.143 107.325 296.658 131.302C296.658 131.302 297.116 134.372 297.354 134.842C297.591 135.314 284.543 133.53 275.819 134.293Z" fill="white"/>
<path d="M275.819 134.293C268.084 134.969 262.943 135.843 255.823 137.825C210.944 150.323 199.053 186.077 199.053 186.077C180.552 230.732 196.301 265.907 196.301 265.907C193.138 278.131 178.127 283.589 168.874 294.167C157.32 307.378 162.999 315.442 174.168 318.798C190.666 323.758 247.109 316.831 274.663 305.373C302.216 293.915 326.203 284.219 351.148 258.482C371.873 237.101 387.934 211.616 396.094 182.979C404.609 153.097 404.059 131.628 396.342 112.829C384.851 84.8395 361.43 78.7346 341.471 78.6155C308.652 78.4191 293.143 107.325 296.658 131.302C296.658 131.302 297.116 134.372 297.354 134.842C297.591 135.314 284.543 133.53 275.819 134.293Z" stroke="black" stroke-width="3" stroke-linecap="round" stroke-linejoin="round"/>
<path d="M303.508 154.302C266.396 135.581 230.451 163.581 217.78 180.554C203.157 200.143 195.128 234.303 220.307 245.264C247.65 257.168 281.556 243.369 299.768 224.423C317.98 205.478 331.627 168.487 303.508 154.302Z" fill="#0D57A7"/>
<path d="M371.769 125.25C368.671 125.502 366.1 126.802 364.056 129.155C362.063 131.526 361.194 134.274 361.447 137.396C361.701 140.519 363.002 143.078 365.349 145.072C367.748 147.087 370.496 147.969 373.594 147.717C376.717 147.464 379.275 146.151 381.268 143.779C383.286 141.429 384.169 138.693 383.915 135.571C383.662 132.448 382.348 129.879 379.974 127.861C377.626 125.866 374.892 124.996 371.769 125.25Z" fill="#3A61AF"/>
<path d="M330.272 92.989C327.906 91.4726 325.282 91.0849 322.398 91.8236C319.539 92.6071 317.255 94.3118 315.546 96.9379C313.838 99.563 313.219 102.32 313.689 105.208C314.183 108.14 315.613 110.364 317.979 111.881C320.364 113.409 322.986 113.781 325.845 112.997C328.71 112.246 330.997 110.558 332.705 107.932C334.413 105.307 335.03 102.533 334.555 99.6132C334.084 96.7246 332.657 94.5171 330.272 92.989Z" fill="#3A61AF"/>
<path d="M366.099 110.454C366.099 110.454 369.496 115.67 369.859 118.296L366.099 110.454Z" fill="#0255A9"/>
<path d="M366.099 110.454C366.099 110.454 369.496 115.67 369.859 118.296" stroke="black" stroke-width="3" stroke-linecap="round" stroke-linejoin="round"/>
<path d="M345.066 99.0908C345.066 99.0908 340.735 98.7416 336.225 99.7261L345.066 99.0908Z" fill="#0255A9"/>
<path d="M345.066 99.0908C345.066 99.0908 340.735 98.7416 336.225 99.7261" stroke="black" stroke-width="3" stroke-linecap="round" stroke-linejoin="round"/>
<path d="M372.749 124.325C372.749 124.325 360.589 123.471 359.94 137.972" stroke="black" stroke-width="3" stroke-linecap="round" stroke-linejoin="round"/>
<path d="M329.1 102.297C329.1 102.297 346.578 119.126 364.171 126.827C362.08 129.396 361.886 130.498 360.888 132.322C356.131 134.122 348.402 135.074 339.883 131.129C329.032 126.102 325.642 113.303 329.1 102.297Z" fill="white"/>
<path d="M329.1 102.297C329.1 102.297 346.578 119.126 364.171 126.827C362.08 129.396 361.886 130.498 360.888 132.322C356.131 134.122 348.402 135.074 339.883 131.129C329.032 126.102 325.642 113.303 329.1 102.297Z" stroke="black" stroke-width="3" stroke-linecap="round" stroke-linejoin="round"/>
<path d="M320.507 122.788C322.035 123.717 323.928 125.428 322.95 127.88C322.375 129.322 321.062 130.403 319.523 130.615C318.018 130.821 316.072 130.297 314.861 126.944C314.861 126.944 313.783 123.715 316.494 122.458C317.782 121.861 319.294 122.051 320.507 122.788Z" fill="#FFEE5D"/>
<path d="M320.507 122.788C322.035 123.717 323.928 125.428 322.95 127.88C322.375 129.322 321.062 130.403 319.523 130.615C318.018 130.821 316.072 130.297 314.861 126.944C314.861 126.944 313.783 123.715 316.494 122.458C317.782 121.861 319.294 122.051 320.507 122.788Z" stroke="#EFB91A" stroke-width="3" stroke-linecap="round" stroke-linejoin="round"/>
<path d="M316.144 106.914C317.436 107.7 319.039 109.148 318.211 111.223C317.724 112.443 316.613 113.358 315.311 113.537C314.038 113.712 312.392 113.268 311.365 110.431C311.365 110.431 310.454 107.699 312.747 106.635C313.837 106.129 315.117 106.291 316.144 106.914Z" fill="#FFEE5D"/>
<path d="M316.144 106.914C317.436 107.7 319.039 109.148 318.211 111.223C317.724 112.443 316.613 113.358 315.311 113.537C314.038 113.712 312.392 113.268 311.365 110.431C311.365 110.431 310.454 107.699 312.747 106.635C313.837 106.129 315.117 106.291 316.144 106.914Z" stroke="#EFB91A" stroke-width="3" stroke-linecap="round" stroke-linejoin="round"/>
<path d="M325.195 146.891C325.195 146.891 313.623 137.675 294.952 134.766" stroke="black" stroke-width="3" stroke-linecap="round" stroke-linejoin="round"/>
<path d="M220.719 256.341C207.869 270.045 198.834 276.022 186.431 274.231C178.171 273.039 157.504 264.536 160.703 244.435C163.901 224.335 192.406 215.229 192.406 215.229" fill="white"/>
<path d="M220.719 256.341C207.869 270.045 198.834 276.022 186.431 274.231C178.171 273.039 157.504 264.536 160.703 244.435C163.901 224.335 192.406 215.229 192.406 215.229" stroke="black" stroke-width="3" stroke-linecap="round" stroke-linejoin="round"/>
<path d="M229.872 249.71C229.872 249.71 217.442 251.386 207.493 267.977C200.321 279.938 214.683 302.194 244.222 303.153C251.051 303.374 260.509 302.167 269.392 297.155C285.872 287.854 290.763 283.103 290.763 283.103" fill="white"/>
<path d="M229.872 249.71C229.872 249.71 217.442 251.386 207.493 267.977C200.321 279.938 214.683 302.194 244.222 303.153C251.051 303.374 260.509 302.167 269.392 297.155C285.872 287.854 290.763 283.103 290.763 283.103" stroke="black" stroke-width="3" stroke-linecap="round" stroke-linejoin="round"/>
<path d="M338.182 184.828C338.182 184.828 316.878 176.655 306.821 181.313C296.762 185.972 286.835 215.542 295.879 223.584C301.395 228.488 320.031 238.891 344.971 237.938C379.891 236.603 387.523 206.674 387.523 206.674" fill="white"/>
<path d="M338.182 184.828C338.182 184.828 316.878 176.655 306.821 181.313C296.762 185.972 286.835 215.542 295.879 223.584C301.395 228.488 320.031 238.891 344.971 237.938C379.891 236.603 387.523 206.674 387.523 206.674" stroke="black" stroke-width="3" stroke-linecap="round" stroke-linejoin="round"/>
<path d="M300.563 187.277C303.782 188.887 305.442 192.206 304.783 195.034C303.994 198.421 301.812 200.288 297.318 199.991C301.534 202.386 301.757 205.313 301.028 207.699C300.298 210.086 297.456 212.424 292.891 211.919L292.858 211.912C292.859 211.651 292.683 211.161 292.432 210.495C293.034 202.601 296.353 193.356 300.563 187.277Z" fill="white"/>
<path d="M300.563 187.277C303.782 188.887 305.442 192.206 304.783 195.034C303.994 198.421 301.812 200.288 297.318 199.991C301.534 202.386 301.757 205.313 301.028 207.699C300.298 210.086 297.456 212.424 292.891 211.919L292.858 211.912C292.859 211.651 292.683 211.161 292.432 210.495C293.034 202.601 296.353 193.356 300.563 187.277Z" stroke="black" stroke-width="3" stroke-linecap="round" stroke-linejoin="round"/>
<path d="M260.665 154.017C260.665 154.017 270.445 148.613 265.476 139.921C261.126 132.31 258.337 125.858 240.208 132.424C224.295 138.188 213.915 149.89 219.05 160.159C225.646 173.353 238.775 168.31 260.665 154.017Z" fill="white"/>
<path d="M260.665 154.017C260.665 154.017 270.445 148.613 265.476 139.921C261.126 132.31 258.337 125.858 240.208 132.424C224.295 138.188 213.915 149.89 219.05 160.159C225.646 173.353 238.775 168.31 260.665 154.017Z" stroke="black" stroke-width="3" stroke-linecap="round" stroke-linejoin="round"/>
<path d="M259.864 152.996L259.883 153.023C258.589 154.345 257.297 155.522 256.019 156.584C254.201 157.705 252.303 158.823 250.386 159.887C250.007 160.093 249.635 160.295 249.239 160.507C248.557 160.871 247.912 161.219 247.295 161.554C245.018 162.741 242.794 163.811 240.755 164.684C239.456 165.024 238.266 165.253 237.207 165.403C235.955 161.966 237.086 158.364 239.562 156.78C242.492 154.906 245.357 155.093 248.367 158.443C247.021 153.786 248.905 151.534 251.093 150.335C253.282 149.137 256.95 149.448 259.864 152.996Z" fill="white"/>
<path d="M259.864 152.996L259.883 153.023C258.589 154.345 257.297 155.522 256.019 156.584C254.201 157.705 252.303 158.823 250.386 159.887C250.007 160.093 249.635 160.295 249.239 160.507C248.557 160.871 247.912 161.219 247.295 161.554C245.018 162.741 242.794 163.811 240.755 164.684C239.456 165.024 238.266 165.253 237.207 165.403C235.955 161.966 237.086 158.364 239.562 156.78C242.492 154.906 245.357 155.093 248.367 158.443C247.021 153.786 248.905 151.534 251.093 150.335C253.282 149.137 256.95 149.448 259.864 152.996Z" stroke="black" stroke-width="3" stroke-linecap="round" stroke-linejoin="round"/>
<path d="M216.198 130.93C216.198 130.93 204.688 134.147 201.73 147.523" stroke="black" stroke-width="3" stroke-linecap="round" stroke-linejoin="round"/>
<path d="M197.064 129.557C197.064 129.557 186.517 133.672 185.238 146.017" stroke="black" stroke-width="3" stroke-linecap="round" stroke-linejoin="round"/>
<path d="M237.869 272.127C230.838 267.414 217.153 261.839 209.948 265.458C209.948 265.458 217.118 257.59 222.578 257.612C228.039 257.635 226.282 264.007 226.282 264.007C226.282 264.007 230.143 258.401 236.132 261.21C242.121 264.02 237.869 272.127 237.869 272.127Z" fill="white"/>
<path d="M237.869 272.127C230.838 267.414 217.153 261.839 209.948 265.458C209.948 265.458 217.118 257.59 222.578 257.612C228.039 257.635 226.282 264.007 226.282 264.007C226.282 264.007 230.143 258.401 236.132 261.21C242.121 264.02 237.869 272.127 237.869 272.127Z" stroke="black" stroke-width="3" stroke-linecap="round" stroke-linejoin="round"/>
<path d="M192.634 242.494C186.245 236.2 172.486 230.759 165.074 233.933C165.074 233.933 172.71 226.514 178.159 226.87C183.607 227.224 181.465 233.477 181.465 233.477C181.465 233.477 185.661 228.116 191.469 231.285C197.275 234.453 192.634 242.494 192.634 242.494Z" fill="white"/>
<path d="M192.634 242.494C186.245 236.2 172.486 230.759 165.074 233.933C165.074 233.933 172.71 226.514 178.159 226.87C183.607 227.224 181.465 233.477 181.465 233.477C181.465 233.477 185.661 228.116 191.469 231.285C197.275 234.453 192.634 242.494 192.634 242.494Z" stroke="black" stroke-width="3" stroke-linecap="round" stroke-linejoin="round"/>
<path d="M192.635 242.495C197.538 245.714 200.638 250.176 201.645 252.387L192.635 242.495Z" fill="white"/>
<path d="M192.635 242.495C197.538 245.714 200.638 250.176 201.645 252.387" stroke="black" stroke-width="3" stroke-linecap="round" stroke-linejoin="round"/>
<path d="M176.939 182.939L173 184L176.939 185.06L178 189L179.06 185.06L183 184L179.06 182.939L178 179L176.939 182.939Z" fill="white"/>
<path d="M185.484 166.272L178 168.5L185.484 170.726L187.5 179L189.514 170.726L197 168.5L189.514 166.272L187.5 158L185.484 166.272Z" fill="white"/>
<path fill-rule="evenodd" clip-rule="evenodd" d="M55.9794 17C50.9159 17 46.4806 19.8838 44.0863 24.1467C42.9281 23.6939 41.6919 23.4672 40.397 23.4672C36.4328 23.4672 32.9589 25.7332 31.0944 29.0898C29.8583 28.3486 28.4061 27.9159 26.8554 27.9159C22.8126 27.9159 19.4371 30.8406 18.495 34.7748C18.456 34.7748 18.3965 34.7748 18.3575 34.7748C15.3944 34.7748 13 37.2877 13 40.3774C13 43.4872 15.3944 46 18.3575 46C35.2944 46 51.8389 46 69.266 46C74.6434 46 79 41.407 79 35.7636C79 30.1202 74.6434 25.5473 69.266 25.5473C69.0301 25.5473 68.8148 25.5681 68.5987 25.5889C66.4402 20.5224 61.5927 17 55.9794 17Z" fill="white"/>
<path fill-rule="evenodd" clip-rule="evenodd" d="M410.366 44.6662H408.698C408.364 39.9437 404.283 36.2282 399.298 36.2282C398.788 36.2282 398.297 36.2675 397.826 36.3466C395.922 30.9123 390.506 27 384.108 27C379.124 27 374.728 29.3909 372.137 33.0271C371.235 32.8096 370.312 32.7111 369.35 32.7111C362.913 32.7111 357.713 37.572 357.713 43.5599C357.713 43.9351 357.732 44.291 357.771 44.6662H357.614C353.434 44.6662 350 48.1049 350 52.3331C350 56.5421 353.434 60 357.614 60H410.366C414.566 60 418 56.5421 418 52.3331C418 48.1049 414.566 44.6662 410.366 44.6662Z" fill="white"/>
<path fill-rule="evenodd" clip-rule="evenodd" d="M319.823 17C317.156 17 314.89 18.7341 314.089 21.1283C311.256 21.5823 308.921 23.5365 307.94 26.1513C307.484 26.0549 307 26.0137 306.517 26.0137C302.372 26.0137 299 29.3716 299 33.5138C299 37.656 302.372 41 306.517 41C317.101 41 327.215 41 337.882 41C340.162 41 342 39.1695 342 36.899C342 35.1927 340.964 33.7338 339.485 33.1144C338.877 30.7063 336.874 28.8346 334.373 28.4218C333.806 25.133 330.918 22.628 327.45 22.628C326.911 22.628 326.372 22.6831 325.875 22.7934C325.75 19.5736 323.097 17 319.823 17Z" fill="white"/>
</g>
<defs>
<linearGradient id="paint0_linear_6701_50670" x1="215" y1="0" x2="215" y2="267" gradientUnits="userSpaceOnUse">
<stop offset="0.245198" stop-color="#02D1FF"/>
<stop offset="0.9998" stop-color="#D8FFFD"/>
</linearGradient>
<clipPath id="clip0_6701_50670">
<rect width="430" height="267" fill="white"/>
</clipPath>
<clipPath id="clip1_6701_50670">
<rect width="266.143" height="199.097" fill="white" transform="translate(163.855)"/>
</clipPath>
<clipPath id="clip2_6701_50670">
<rect width="145.982" height="171.266" fill="white" transform="translate(0 106.205)"/>
</clipPath>
</defs>
</svg>
