<svg width="390" height="178" viewBox="0 0 390 178" fill="none" xmlns="http://www.w3.org/2000/svg">
<rect width="390" height="178" fill="#D0D0D0" style="fill:#D0D0D0;fill:color(display-p3 0.8169 0.8169 0.8169);fill-opacity:1;"/>
<path d="M-3711 -2949C-3711 -2950.1 -3710.1 -2951 -3709 -2951H2246C2247.1 -2951 2248 -2950.1 2248 -2949V589C2248 590.105 2247.1 591 2246 591H-3709C-3710.1 591 -3711 590.104 -3711 589V-2949Z" fill="#4B4B4B" style="fill:#4B4B4B;fill:color(display-p3 0.2948 0.2948 0.2948);fill-opacity:1;"/>
<path d="M-3709 -2950H2246V-2952H-3709V-2950ZM2247 -2949V589H2249V-2949H2247ZM2246 590H-3709V592H2246V590ZM-3710 589V-2949H-3712V589H-3710ZM-3709 590C-3709.55 590 -3710 589.552 -3710 589H-3712C-3712 590.657 -3710.66 592 -3709 592V590ZM2247 589C2247 589.552 2246.55 590 2246 590V592C2247.66 592 2249 590.657 2249 589H2247ZM2246 -2950C2246.55 -2950 2247 -2949.55 2247 -2949H2249C2249 -2950.66 2247.66 -2952 2246 -2952V-2950ZM-3709 -2952C-3710.66 -2952 -3712 -2950.66 -3712 -2949H-3710C-3710 -2949.55 -3709.55 -2950 -3709 -2950V-2952Z" fill="black" fill-opacity="0.1" style="fill:black;fill-opacity:0.1;"/>
<g clip-path="url(#clip0_0_1)">
<rect width="390" height="178" rx="20" fill="#13D4FF" style="fill:#13D4FF;fill:color(display-p3 0.0745 0.8314 1.0000);fill-opacity:1;"/>
<path d="M402.876 122.664L386.024 112.97L402.876 103.275C406.967 100.917 409.65 96.7247 410.082 92.0271L412.991 60.061C413.028 59.7054 412.953 59.3311 412.765 58.9942C412.578 58.6574 412.296 58.414 411.958 58.2643L382.739 44.7892C378.461 42.8053 373.45 43.0299 369.359 45.3881L352.507 55.0827V35.6747C352.507 30.9584 350.199 26.5415 346.333 23.8278L320.042 5.31816C319.741 5.11229 319.385 5 319.009 5C318.634 5 318.259 5.11229 317.977 5.31816L291.667 23.8091C287.801 26.5228 285.512 30.9584 285.512 35.656V55.064L268.66 45.3693C264.569 43.0112 259.577 42.7866 255.279 44.7704L226.06 58.2456C225.741 58.3953 225.46 58.6386 225.253 58.9755C225.066 59.3124 224.991 59.6867 225.028 60.0423L227.937 92.0084C228.369 96.706 231.052 100.898 235.143 103.256L251.995 112.951L235.143 122.646C231.052 125.004 228.369 129.196 227.937 133.894L225.009 165.897C224.972 166.253 225.047 166.627 225.235 166.945C225.422 167.282 225.704 167.525 226.042 167.675L255.261 181.15C259.539 183.134 264.55 182.91 268.641 180.551L285.493 170.857V190.265C285.493 194.981 287.801 199.398 291.667 202.112L317.977 220.603C318.277 220.808 318.634 220.921 319.009 220.921C319.385 220.921 319.76 220.808 320.042 220.603L346.352 202.112C350.218 199.398 352.507 194.962 352.507 190.265V170.857L369.359 180.551C373.45 182.91 378.442 183.134 382.739 181.15L411.958 167.675C412.277 167.525 412.559 167.282 412.765 166.945C412.953 166.608 413.028 166.253 412.991 165.897L410.082 133.931C409.65 129.234 406.967 125.041 402.876 122.683V122.664ZM401.675 124.742C405.09 126.707 407.342 130.225 407.699 134.137L410.42 164.232L352.507 130.88V96.4252L372.756 108.085L401.656 124.723L401.675 124.742ZM350.105 96.4252V129.496L321.374 112.951L350.105 96.4065V96.4252ZM320.192 77.822L348.904 94.3665L320.192 110.911V77.8407V77.822ZM316.589 112.97L287.876 129.514V96.444L316.589 112.988V112.97ZM317.79 148.117L289.058 131.573L317.79 115.028V148.099V148.117ZM320.192 115.047L348.904 131.592L320.192 148.136V115.066V115.047ZM317.79 110.911L289.058 94.3665L317.79 77.822V110.892V110.911ZM407.68 91.8212C407.323 95.7328 405.071 99.2513 401.656 101.216L383.603 111.604L353.689 94.3665L410.401 61.708L407.68 91.8025V91.8212ZM370.541 47.4655C372.381 46.3987 374.482 45.8372 376.603 45.8372C378.386 45.8372 380.093 46.2115 381.707 46.9602L409.2 59.6493L352.488 92.3078V57.8339L370.541 47.4468V47.4655ZM350.105 35.6934V56.2618V92.3078L320.192 75.0896V8.36879L344.963 25.7742C348.191 28.0388 350.105 31.7445 350.105 35.6747V35.6934ZM293.018 25.7929L317.808 8.36879V75.0521L287.895 92.2891V35.6747C287.895 31.7445 289.828 28.0388 293.037 25.7742L293.018 25.7929ZM256.255 46.9602C257.869 46.2115 259.577 45.8372 261.36 45.8372C263.499 45.8372 265.582 46.3987 267.421 47.4655L285.474 57.8526V92.3078L228.763 59.6306L256.255 46.9414V46.9602ZM236.325 101.198C232.91 99.2326 230.658 95.7141 230.301 91.8025L227.58 61.708L284.292 94.3665L254.379 111.585L236.344 101.198H236.325ZM230.301 134.137C230.658 130.225 232.91 126.707 236.325 124.742L260.815 110.63L285.493 96.4252V130.88L227.58 164.232L230.301 134.137ZM267.44 178.493C265.601 179.56 263.499 180.121 261.378 180.121C259.596 180.121 257.888 179.747 256.274 178.998L228.763 166.309L286.675 132.958L316.589 150.195L297.447 161.218L267.421 178.511L267.44 178.493ZM287.876 190.265V169.491L317.79 152.254V217.571L293.018 200.165C289.79 197.901 287.876 194.195 287.876 190.265ZM344.963 200.165L320.192 217.571V152.254L350.105 169.472V190.246C350.105 194.176 348.172 197.882 344.963 200.147V200.165ZM381.726 178.998C380.112 179.747 378.404 180.121 376.622 180.121C374.501 180.121 372.399 179.56 370.56 178.493L340.666 161.293L321.393 150.195L351.306 132.977L409.219 166.328L381.726 179.017V178.998Z" fill="white" fill-opacity="0.08" style="fill:white;fill-opacity:0.08;"/>
<path d="M204.746 184.196L193.117 177.506L204.746 170.816C207.569 169.189 209.421 166.296 209.719 163.055L211.726 140.996C211.752 140.75 211.7 140.492 211.571 140.26C211.441 140.027 211.247 139.859 211.014 139.756L190.851 130.457C187.898 129.088 184.441 129.243 181.618 130.871L169.989 137.56V124.168C169.989 120.913 168.396 117.865 165.728 115.992L147.585 103.22C147.378 103.077 147.132 103 146.873 103C146.614 103 146.355 103.077 146.161 103.22L128.005 115.98C125.337 117.852 123.757 120.913 123.757 124.155V137.548L112.128 130.858C109.305 129.23 105.86 129.075 102.895 130.444L82.7317 139.743C82.5115 139.846 82.3173 140.014 82.1748 140.247C82.0453 140.479 81.9935 140.738 82.0194 140.983L84.0267 163.042C84.3245 166.283 86.1764 169.176 88.9995 170.804L100.629 177.494L88.9995 184.183C86.1764 185.811 84.3245 188.704 84.0267 191.945L82.0065 214.03C81.9806 214.275 82.0324 214.534 82.1619 214.753C82.2914 214.986 82.4856 215.154 82.7187 215.257L102.882 224.556C105.834 225.925 109.292 225.77 112.115 224.142L123.744 217.452V230.845C123.744 234.1 125.337 237.148 128.005 239.02L146.161 251.78C146.368 251.923 146.614 252 146.873 252C147.132 252 147.391 251.923 147.585 251.78L165.741 239.02C168.409 237.148 169.989 234.087 169.989 230.845V217.452L181.618 224.142C184.441 225.77 187.885 225.925 190.851 224.556L211.014 215.257C211.234 215.154 211.428 214.986 211.571 214.753C211.7 214.521 211.752 214.275 211.726 214.03L209.719 191.971C209.421 188.73 207.569 185.837 204.746 184.209V184.196ZM203.917 185.63C206.274 186.986 207.828 189.414 208.074 192.113L209.952 212.881L169.989 189.866V166.09L183.962 174.136L203.905 185.617L203.917 185.63ZM168.331 166.09V188.91L148.505 177.494L168.331 166.077V166.09ZM147.689 153.252L167.502 164.669L147.689 176.086V153.265V153.252ZM145.202 177.506L125.389 188.923V166.103L145.202 177.519V177.506ZM146.031 201.761L126.205 190.344L146.031 178.927V201.748V201.761ZM147.689 178.94L167.502 190.357L147.689 201.774V178.953V178.94ZM146.031 176.086L126.205 164.669L146.031 153.252V176.073V176.086ZM208.061 162.913C207.815 165.612 206.261 168.04 203.905 169.396L191.447 176.564L170.804 164.669L209.939 142.132L208.061 162.9V162.913ZM182.433 132.304C183.703 131.568 185.153 131.18 186.616 131.18C187.847 131.18 189.025 131.439 190.139 131.955L209.11 140.712L169.976 163.248V139.459L182.433 132.291V132.304ZM168.331 124.181V138.374V163.248L147.689 151.367V105.325L164.783 117.336C167.01 118.898 168.331 121.455 168.331 124.168V124.181ZM128.937 117.349L146.044 105.325V151.341L125.402 163.235V124.168C125.402 121.455 126.736 118.898 128.95 117.336L128.937 117.349ZM103.568 131.955C104.682 131.439 105.86 131.18 107.091 131.18C108.567 131.18 110.004 131.568 111.273 132.304L123.731 139.472V163.248L84.5965 140.699L103.568 131.942V131.955ZM89.8153 169.383C87.4584 168.027 85.9044 165.599 85.6584 162.9L83.7806 142.132L122.915 164.669L102.273 176.551L89.8283 169.383H89.8153ZM85.6584 192.113C85.9044 189.414 87.4584 186.986 89.8153 185.63L106.715 175.892L123.744 166.09V189.866L83.7806 212.881L85.6584 192.113ZM111.286 222.722C110.017 223.458 108.567 223.845 107.104 223.845C105.873 223.845 104.695 223.587 103.581 223.07L84.5965 214.314L124.56 191.3L145.202 203.194L131.993 210.801L111.273 222.735L111.286 222.722ZM125.389 230.845V216.51L146.031 204.615V249.688L128.937 237.677C126.71 236.115 125.389 233.557 125.389 230.845ZM164.783 237.677L147.689 249.688V204.615L168.331 216.497V230.832C168.331 233.545 166.997 236.102 164.783 237.664V237.677ZM190.152 223.07C189.038 223.587 187.859 223.845 186.629 223.845C185.166 223.845 183.715 223.458 182.446 222.722L161.817 210.853L148.518 203.194L169.16 191.313L209.123 214.327L190.152 223.083V223.07Z" fill="white" fill-opacity="0.08" style="fill:white;fill-opacity:0.08;"/>
<circle cx="2.67459" cy="2.67459" r="2.67459" transform="matrix(-1 0 0 1 214.32 73.6987)" fill="#FFD04F" style="fill:#FFD04F;fill:color(display-p3 1.0000 0.8157 0.3098);fill-opacity:1;"/>
<circle cx="2.67459" cy="2.67459" r="2.67459" transform="matrix(-1 0 0 1 200.945 77.7104)" fill="#FFD04F" style="fill:#FFD04F;fill:color(display-p3 1.0000 0.8157 0.3098);fill-opacity:1;"/>
<circle cx="2.67459" cy="2.67459" r="2.67459" transform="matrix(-1 0 0 1 187.574 77.041)" fill="#FFD04F" style="fill:#FFD04F;fill:color(display-p3 1.0000 0.8157 0.3098);fill-opacity:1;"/>
<circle cx="2.67459" cy="2.67459" r="2.67459" transform="matrix(-1 0 0 1 176.207 74.3672)" fill="#FFD04F" style="fill:#FFD04F;fill:color(display-p3 1.0000 0.8157 0.3098);fill-opacity:1;"/>
<circle cx="2.67459" cy="2.67459" r="2.67459" transform="matrix(-1 0 0 1 166.844 69.6865)" fill="#FFD04F" style="fill:#FFD04F;fill:color(display-p3 1.0000 0.8157 0.3098);fill-opacity:1;"/>
<circle cx="2.67459" cy="2.67459" r="2.67459" transform="matrix(-1 0 0 1 154.809 69.6865)" fill="#FFD04F" style="fill:#FFD04F;fill:color(display-p3 1.0000 0.8157 0.3098);fill-opacity:1;"/>
<circle cx="2.67459" cy="2.67459" r="2.67459" transform="matrix(-1 0 0 1 144.781 76.3726)" fill="#FFD04F" style="fill:#FFD04F;fill:color(display-p3 1.0000 0.8157 0.3098);fill-opacity:1;"/>
<circle cx="2.67459" cy="2.67459" r="2.67459" transform="matrix(-1 0 0 1 129.402 81.7222)" fill="#FFD04F" style="fill:#FFD04F;fill:color(display-p3 1.0000 0.8157 0.3098);fill-opacity:1;"/>
<circle cx="2.67459" cy="2.67459" r="2.67459" transform="matrix(-1 0 0 1 112.684 82.3906)" fill="#FFD04F" style="fill:#FFD04F;fill:color(display-p3 1.0000 0.8157 0.3098);fill-opacity:1;"/>
<circle cx="2.67459" cy="2.67459" r="2.67459" transform="matrix(-1 0 0 1 98.6445 78.3789)" fill="#FFD04F" style="fill:#FFD04F;fill:color(display-p3 1.0000 0.8157 0.3098);fill-opacity:1;"/>
<circle cx="2.67459" cy="2.67459" r="2.67459" transform="matrix(-1 0 0 1 88.6133 73.0293)" fill="#FFD04F" style="fill:#FFD04F;fill:color(display-p3 1.0000 0.8157 0.3098);fill-opacity:1;"/>
<circle cx="2.67459" cy="2.67459" r="2.67459" transform="matrix(-1 0 0 1 80.5898 67.0117)" fill="#FFD04F" style="fill:#FFD04F;fill:color(display-p3 1.0000 0.8157 0.3098);fill-opacity:1;"/>
<circle cx="2.67459" cy="2.67459" r="2.67459" transform="matrix(-1 0 0 1 68.5547 71.6924)" fill="#FFD04F" style="fill:#FFD04F;fill:color(display-p3 1.0000 0.8157 0.3098);fill-opacity:1;"/>
<circle cx="2.67459" cy="2.67459" r="2.67459" transform="matrix(-1 0 0 1 55.8516 77.041)" fill="#FFD04F" style="fill:#FFD04F;fill:color(display-p3 1.0000 0.8157 0.3098);fill-opacity:1;"/>
<circle cx="2.67459" cy="2.67459" r="2.67459" transform="matrix(-1 0 0 1 39.8008 79.7158)" fill="#FFD04F" style="fill:#FFD04F;fill:color(display-p3 1.0000 0.8157 0.3098);fill-opacity:1;"/>
<circle cx="2.67459" cy="2.67459" r="2.67459" transform="matrix(-1 0 0 1 24.4219 76.3726)" fill="#FFD04F" style="fill:#FFD04F;fill:color(display-p3 1.0000 0.8157 0.3098);fill-opacity:1;"/>
<circle cx="2.67459" cy="2.67459" r="2.67459" transform="matrix(-1 0 0 1 13.0547 67.0117)" fill="#FFD04F" style="fill:#FFD04F;fill:color(display-p3 1.0000 0.8157 0.3098);fill-opacity:1;"/>
<circle cx="2.67459" cy="2.67459" r="2.67459" transform="matrix(-1 0 0 1 2.35938 71.0239)" fill="#FFD04F" style="fill:#FFD04F;fill:color(display-p3 1.0000 0.8157 0.3098);fill-opacity:1;"/>
<path d="M219 68.0149C211.088 76.0386 187.574 86.5364 156.816 64.3373C144.334 78.156 110.746 97.5022 76.2437 64.3373C61.1991 76.0386 26.6969 92.153 9.04458 63C7.26152 65.4517 1.75632 70.9569 -5.99999 73.364" stroke="#222222" style="stroke:#222222;stroke:color(display-p3 0.1333 0.1333 0.1333);stroke-opacity:1;" stroke-width="1.00297"/>
<g filter="url(#filter0_i_0_1)">
<path d="M219 65L219 178" stroke="#E5E5E5" style="stroke:#E5E5E5;stroke:color(display-p3 0.8980 0.8980 0.8980);stroke-opacity:1;" stroke-width="1.90483"/>
</g>
<g filter="url(#filter1_i_0_1)">
<path d="M110 61L110 178" stroke="#E5E5E5" style="stroke:#E5E5E5;stroke:color(display-p3 0.8980 0.8980 0.8980);stroke-opacity:1;" stroke-width="1.90483"/>
</g>
<path d="M219.995 52.9225V67.8436L-105.73 72.9232L-146.684 64.3514V49.4303C-131.551 46.3614 -100.015 39.1442 -94.9358 34.8266C-62.8712 21.4929 -40.3308 -2 -40.3308 -2C-40.3308 -2 -20.9651 11.3338 32.6876 13.2386C79.4342 14.8983 105.706 4.34942 105.706 4.34942C105.706 4.34942 133.008 27.8423 156.501 36.7315C180.435 45.7874 219.995 52.9225 219.995 52.9225Z" fill="white" style="fill:white;fill-opacity:1;"/>
<path d="M219.995 67.843V52.9219L-105.73 53.8743V72.9226L219.995 67.843Z" fill="#F2F2F2" style="fill:#F2F2F2;fill:color(display-p3 0.9503 0.9503 0.9503);fill-opacity:1;"/>
<path d="M32.6902 13.2386C79.4369 14.8983 105.709 4.34942 105.709 4.34942C116.376 31.7789 141.054 48.0546 152.059 53.24V68.796L138.567 69.1135L57.1355 70.3834L16.4198 71.0183L-6.99366 71.3358V53.5574C-16.6236 45.8323 -36.7724 24.4136 -40.3281 -2C-40.3281 -2 -20.9624 11.3338 32.6902 13.2386Z" fill="#B2D7FF" style="fill:#B2D7FF;fill:color(display-p3 0.6980 0.8427 1.0000);fill-opacity:1;"/>
<path d="M16.4174 71.0181L57.1331 70.3832L138.564 69.1133L152.057 68.9067V53.2397L-6.99609 53.5572V71.3356L16.4174 71.0181Z" fill="#A1C6EF" style="fill:#A1C6EF;fill:color(display-p3 0.6330 0.7782 0.9360);fill-opacity:1;"/>
<path d="M109.387 92.4321C109.387 92.4321 119.078 104.321 122.53 110.829C122.53 110.829 128.895 106.401 131.698 105.637C134.5 104.873 136.802 104.298 140.634 108.508C144.467 112.719 148.495 119.226 149.646 123.051C150.797 126.876 149.261 130.707 143.322 134.912C137.377 139.122 124.418 146.68 116.425 146.25L110.428 132.522L104.133 103.534L109.393 92.4378L109.387 92.4321Z" fill="white" stroke="#000001" style="fill:white;fill-opacity:1;stroke:#000001;stroke:color(display-p3 0.0000 0.0000 0.0039);stroke-opacity:1;" stroke-width="2.87181" stroke-linecap="round" stroke-linejoin="round"/>
<path d="M122.53 110.827C122.53 110.827 120.895 112.136 120.297 112.785L122.53 110.827Z" fill="white" style="fill:white;fill-opacity:1;"/>
<path d="M122.53 110.827C122.53 110.827 120.895 112.136 120.297 112.785" stroke="#000001" style="stroke:#000001;stroke:color(display-p3 0.0000 0.0000 0.0039);stroke-opacity:1;" stroke-width="2.87181" stroke-linecap="round" stroke-linejoin="round"/>
<path d="M23.3888 132.515C21.6911 139.626 10.625 161.79 -7.11658 183.65C-10.6902 188.056 -11.5937 192.065 -6.02895 195.408C-0.464212 198.75 23.1528 200.29 36.1238 189.314L23.3888 132.509V132.515Z" fill="white" stroke="#000001" style="fill:white;fill-opacity:1;stroke:#000001;stroke:color(display-p3 0.0000 0.0000 0.0039);stroke-opacity:1;" stroke-width="2.87181" stroke-linecap="round" stroke-linejoin="round"/>
<path d="M72.86 194.391C72.86 194.391 72.1349 205.109 74.2239 210.37C76.3128 215.631 80.5482 215.683 90.3657 215.803C100.183 215.924 104.424 214.31 105.984 210.312C107.543 206.315 105.437 175.093 105.437 175.093L72.86 194.391Z" fill="white" stroke="#000001" style="fill:white;fill-opacity:1;stroke:#000001;stroke:color(display-p3 0.0000 0.0000 0.0039);stroke-opacity:1;" stroke-width="2.87181" stroke-linecap="round" stroke-linejoin="round"/>
<path d="M58.6501 55.7868C58.6501 55.7868 54.127 50.5084 47.1121 52.622C40.0281 54.7644 38.3995 61.4213 39.5159 65.7175C41.3747 72.8568 49.529 73.7355 49.529 73.7355L58.6501 55.7868Z" fill="#0A509D" stroke="#000001" style="fill:#0A509D;fill:color(display-p3 0.0392 0.3137 0.6157);fill-opacity:1;stroke:#000001;stroke:color(display-p3 0.0000 0.0000 0.0039);stroke-opacity:1;" stroke-width="2.87181" stroke-linecap="round" stroke-linejoin="round"/>
<path d="M48.2977 73.529C48.2977 73.529 43.9644 68.0898 37.0301 70.146C30.0267 72.2194 28.2831 78.9739 29.2901 83.3563C30.9647 90.6449 38.9579 91.6615 38.9579 91.6615L48.2977 73.529Z" fill="#0A509D" stroke="#000001" style="fill:#0A509D;fill:color(display-p3 0.0392 0.3137 0.6157);fill-opacity:1;stroke:#000001;stroke:color(display-p3 0.0000 0.0000 0.0039);stroke-opacity:1;" stroke-width="2.87181" stroke-linecap="round" stroke-linejoin="round"/>
<path d="M38.9422 93.2057C38.9422 93.2057 34.609 87.7665 27.6747 89.8227C20.6713 91.8962 18.9276 98.6507 19.9347 103.033C21.6093 110.322 29.6024 111.338 29.6024 111.338L38.9422 93.2057Z" fill="#0A509D" stroke="#000001" style="fill:#0A509D;fill:color(display-p3 0.0392 0.3137 0.6157);fill-opacity:1;stroke:#000001;stroke:color(display-p3 0.0000 0.0000 0.0039);stroke-opacity:1;" stroke-width="2.87181" stroke-linecap="round" stroke-linejoin="round"/>
<path d="M75.736 46.9123C75.736 46.9123 73.8773 40.8643 67.0177 40.0832C60.0834 39.2963 56.1069 44.253 55.4106 48.239C54.2482 54.8672 58.4433 56.9464 58.4433 56.9464L75.7302 46.9066L75.736 46.9123Z" fill="#0A509D" stroke="#000001" style="fill:#0A509D;fill:color(display-p3 0.0392 0.3137 0.6157);fill-opacity:1;stroke:#000001;stroke:color(display-p3 0.0000 0.0000 0.0039);stroke-opacity:1;" stroke-width="2.87181" stroke-linecap="round" stroke-linejoin="round"/>
<path d="M110.623 97.3753C110.623 97.3753 118.576 119.885 116.222 148.941C114.035 175.919 99.4932 199.204 71.1286 199.29C30.7195 199.416 14.8828 178.125 22.8127 134.353C30.1384 93.9233 45.1867 66.7159 61.2249 54.459C77.0559 42.3573 95.6434 43.3509 106.882 50.1686C126.183 61.8741 122.074 85.5492 110.617 97.3811L110.623 97.3753Z" fill="white" style="fill:white;fill-opacity:1;"/>
<path d="M125.723 52.1221C125.723 52.1221 135.022 54.3563 134.05 71.5929" stroke="#000001" style="stroke:#000001;stroke:color(display-p3 0.0000 0.0000 0.0039);stroke-opacity:1;" stroke-width="2.87181" stroke-linecap="round" stroke-linejoin="round"/>
<path d="M126.758 58.199L136.633 53.8799" stroke="#000001" style="stroke:#000001;stroke:color(display-p3 0.0000 0.0000 0.0039);stroke-opacity:1;" stroke-width="2.87181" stroke-linecap="round" stroke-linejoin="round"/>
<path d="M128.812 65.8666L139.43 64.0171" stroke="#000001" style="stroke:#000001;stroke:color(display-p3 0.0000 0.0000 0.0039);stroke-opacity:1;" stroke-width="2.87181" stroke-linecap="round" stroke-linejoin="round"/>
<path d="M84.7028 116.313C55.2103 113.659 48.4831 153.037 47.4703 162.078C45.6921 189.859 61.6325 190.411 62.8467 197.194C64.3544 197.636 65.9714 197.964 67.7151 198.165C85.7329 200.244 96.1718 185.598 101.846 167.459C107.52 149.315 108.717 118.472 84.7028 116.313Z" fill="#0A509D" style="fill:#0A509D;fill:color(display-p3 0.0392 0.3137 0.6157);fill-opacity:1;"/>
<path d="M114.312 112.264C116.003 121.522 117.408 134.417 116.228 148.948C115.226 161.326 111.59 173.221 105.242 182.158" stroke="#000001" style="stroke:#000001;stroke:color(display-p3 0.0000 0.0000 0.0039);stroke-opacity:1;" stroke-width="2.87181" stroke-linecap="round" stroke-linejoin="round"/>
<path d="M19.3203 142.739C20.8395 140.275 22.3645 136.88 22.8191 134.359C30.1448 93.9297 45.1932 66.7222 61.2313 54.4654C77.0624 42.3636 95.6498 43.3573 106.889 50.1749C126.19 61.8804 122.081 85.5556 110.623 97.3874" stroke="#000001" style="stroke:#000001;stroke:color(display-p3 0.0000 0.0000 0.0039);stroke-opacity:1;" stroke-width="2.87181" stroke-linecap="round" stroke-linejoin="round"/>
<path d="M67.5966 60.7666C65.5825 60.9849 63.9309 61.8808 62.6418 63.4489C61.3873 65.0283 60.8694 66.8319 61.0939 68.8536C61.3183 70.8754 62.2103 72.518 63.7755 73.7701C65.3753 75.0337 67.1823 75.5622 69.1964 75.3382C71.2278 75.1142 72.8678 74.2181 74.1224 72.6386C75.3941 71.0764 75.9178 69.2786 75.6991 67.2511C75.4747 65.2236 74.5712 63.581 72.9887 62.3116C71.4234 61.0595 69.628 60.5426 67.5966 60.7666Z" fill="#375BA5" style="fill:#375BA5;fill:color(display-p3 0.2157 0.3569 0.6471);fill-opacity:1;"/>
<path d="M109.657 58.4056C107.936 58.6066 106.532 59.4797 105.445 61.0305C104.386 62.5927 103.966 64.3905 104.179 66.418C104.392 68.4455 105.174 70.0939 106.527 71.3632C107.908 72.644 109.461 73.1896 111.188 72.9886C112.926 72.7876 114.318 71.9088 115.377 70.3408C116.448 68.79 116.879 67.0038 116.666 64.9763C116.453 62.9488 115.665 61.2947 114.295 60.0138C112.943 58.7445 111.395 58.2103 109.657 58.4113V58.4056Z" fill="#375BA5" style="fill:#375BA5;fill:color(display-p3 0.2157 0.3569 0.6471);fill-opacity:1;"/>
<path d="M97.9458 57.1084C98.0148 57.0337 98.0954 56.9533 98.1817 56.8786C98.9471 56.2411 99.8218 55.9654 100.812 56.0515C101.824 56.1377 102.647 56.5628 103.286 57.3266C103.925 58.0905 104.201 58.9751 104.109 59.9802C104.023 60.9681 103.597 61.7722 102.837 62.3867C102.296 62.8347 101.715 63.1161 101.082 63.2253C100.789 63.2597 100.484 63.2655 100.179 63.2368C99.8736 63.2081 99.5859 63.1507 99.3211 63.0703C98.6939 62.852 98.1702 62.4729 97.7386 61.933C97.0998 61.192 96.8236 60.3305 96.9099 59.3426L96.9617 58.7568C97.1401 58.1307 97.4681 57.5794 97.9515 57.1026L97.9458 57.1084Z" fill="#000001" style="fill:#000001;fill:color(display-p3 0.0000 0.0000 0.0039);fill-opacity:1;"/>
<path d="M76.6287 59.2461C76.7208 59.1714 76.8071 59.0967 76.8991 59.022C77.6818 58.3673 78.5795 58.0801 79.5923 58.172C80.6224 58.2639 81.4798 58.7004 82.1531 59.4872C82.8092 60.2684 83.0969 61.1759 83.0048 62.204C82.9127 63.2321 82.4754 64.0764 81.6928 64.7312C81.1346 65.1792 80.5361 65.4606 79.9031 65.5698C79.5865 65.6272 79.2643 65.6387 78.9363 65.6099C78.6255 65.5812 78.3205 65.5123 78.0213 65.4032C77.4171 65.1849 76.8876 64.8059 76.4388 64.266C75.7828 63.4848 75.495 62.5774 75.5871 61.5492C75.6043 61.3425 75.6216 61.1472 75.6389 60.9634C75.823 60.3144 76.151 59.7457 76.6344 59.2461H76.6287Z" fill="#000001" style="fill:#000001;fill:color(display-p3 0.0000 0.0000 0.0039);fill-opacity:1;"/>
<path d="M74.7019 69.9279C86.6716 70.9617 95.9596 70.4505 105.242 67.6074C105.242 67.6074 107.072 81.6908 92.2939 83.3794C77.516 85.068 72.964 75.5968 74.7019 69.9336V69.9279Z" stroke="#000001" style="stroke:#000001;stroke:color(display-p3 0.0000 0.0000 0.0039);stroke-opacity:1;" stroke-width="2.87181" stroke-linecap="round" stroke-linejoin="round"/>
<path d="M103.573 68.475C104.096 71.7661 102.98 73.6098 101.098 73.7304C98.1288 73.9257 97.5994 69.6984 97.5994 69.6984C97.3347 72.731 96.2183 74.5001 94.21 74.6896C92.2016 74.8791 90.6478 73.5638 90.0781 70.4795C94.9523 70.4623 99.4639 69.6754 103.573 68.4692V68.475Z" stroke="#000001" style="stroke:#000001;stroke:color(display-p3 0.0000 0.0000 0.0039);stroke-opacity:1;" stroke-width="2.87181" stroke-linecap="round" stroke-linejoin="round"/>
<path d="M69.8047 107.462C69.8047 107.462 71.8533 140.884 70.7139 155.851C70.7139 155.851 87.1032 157.534 100.978 155.851C100.978 155.851 105.368 128.569 100.978 108.748C91.1026 107.071 79.8811 106.887 69.8047 107.462Z" fill="white" stroke="#000001" style="fill:white;fill-opacity:1;stroke:#000001;stroke:color(display-p3 0.0000 0.0000 0.0039);stroke-opacity:1;" stroke-width="2.87181" stroke-linecap="round" stroke-linejoin="round"/>
<path d="M75.3867 104.475C75.3867 104.475 77.4354 137.11 76.296 151.728C76.296 151.728 92.6851 153.37 106.56 151.728C106.56 151.728 110.95 125.089 106.56 105.733C96.6846 104.096 85.4631 103.912 75.3867 104.475Z" fill="white" stroke="#000001" style="fill:white;fill-opacity:1;stroke:#000001;stroke:color(display-p3 0.0000 0.0000 0.0039);stroke-opacity:1;" stroke-width="2.87181" stroke-linecap="round" stroke-linejoin="round"/>
<path d="M57.3586 119.11C64.8109 115.262 76.7575 115.084 79.2435 119.288C82.3856 124.601 86.2987 138.96 81.3094 143.187C76.3202 147.409 66.8768 151.871 55.943 151.728C49.3827 151.642 43.6223 150.556 40.112 144.21C37.8504 140.12 36.1068 134.853 35.1055 129.316" fill="white" style="fill:white;fill-opacity:1;"/>
<path d="M57.3586 119.11C64.8109 115.262 76.7575 115.084 79.2435 119.288C82.3856 124.601 86.2987 138.96 81.3094 143.187C76.3202 147.409 66.8768 151.871 55.943 151.728C49.3827 151.642 43.6223 150.556 40.112 144.21C37.8504 140.12 36.1068 134.853 35.1055 129.316" stroke="#000001" style="stroke:#000001;stroke:color(display-p3 0.0000 0.0000 0.0039);stroke-opacity:1;" stroke-width="2.87181" stroke-linecap="round" stroke-linejoin="round"/>
<path d="M77.4557 134.887C76.794 132.406 77.4845 130.499 80.3158 129.304C76.9493 129.023 75.8272 127.162 75.4646 125.358C75.1021 123.555 76.0401 121.131 78.9807 120.057L79.5332 119.908C81.1214 121.665 85.2187 131.182 83.1528 138.701C80.4366 138.873 78.0485 137.098 77.4557 134.887Z" fill="white" stroke="#000001" style="fill:white;fill-opacity:1;stroke:#000001;stroke:color(display-p3 0.0000 0.0000 0.0039);stroke-opacity:1;" stroke-width="2.87181" stroke-linecap="round" stroke-linejoin="round"/>
</g>
<rect x="0.25" y="0.25" width="389.5" height="177.5" rx="19.75" stroke="#0073F0" stroke-opacity="0.16" style="stroke:#0073F0;stroke:color(display-p3 0.0000 0.4510 0.9412);stroke-opacity:0.16;" stroke-width="0.5"/>
<defs>
<filter id="filter0_i_0_1" x="218.047" y="65" width="2.54119" height="113" filterUnits="userSpaceOnUse" color-interpolation-filters="sRGB">
<feFlood flood-opacity="0" result="BackgroundImageFix"/>
<feBlend mode="normal" in="SourceGraphic" in2="BackgroundImageFix" result="shape"/>
<feColorMatrix in="SourceAlpha" type="matrix" values="0 0 0 0 0 0 0 0 0 0 0 0 0 0 0 0 0 0 127 0" result="hardAlpha"/>
<feOffset dx="0.634942"/>
<feGaussianBlur stdDeviation="1.26988"/>
<feComposite in2="hardAlpha" operator="arithmetic" k2="-1" k3="1"/>
<feColorMatrix type="matrix" values="0 0 0 0 0 0 0 0 0 0 0 0 0 0 0 0 0 0 0.25 0"/>
<feBlend mode="normal" in2="shape" result="effect1_innerShadow_0_1"/>
</filter>
<filter id="filter1_i_0_1" x="109.047" y="61" width="2.54119" height="117" filterUnits="userSpaceOnUse" color-interpolation-filters="sRGB">
<feFlood flood-opacity="0" result="BackgroundImageFix"/>
<feBlend mode="normal" in="SourceGraphic" in2="BackgroundImageFix" result="shape"/>
<feColorMatrix in="SourceAlpha" type="matrix" values="0 0 0 0 0 0 0 0 0 0 0 0 0 0 0 0 0 0 127 0" result="hardAlpha"/>
<feOffset dx="0.634942"/>
<feGaussianBlur stdDeviation="1.26988"/>
<feComposite in2="hardAlpha" operator="arithmetic" k2="-1" k3="1"/>
<feColorMatrix type="matrix" values="0 0 0 0 0 0 0 0 0 0 0 0 0 0 0 0 0 0 0.25 0"/>
<feBlend mode="normal" in2="shape" result="effect1_innerShadow_0_1"/>
</filter>
<clipPath id="clip0_0_1">
<rect width="390" height="178" rx="20" fill="white" style="fill:white;fill-opacity:1;"/>
</clipPath>
</defs>
</svg>
