<svg width="74" height="38" viewBox="0 0 74 38" fill="none" xmlns="http://www.w3.org/2000/svg">
<mask id="mask0_6701_57964" style="mask-type:alpha" maskUnits="userSpaceOnUse" x="0" y="0" width="43" height="23">
<rect y="0.0170898" width="42.9353" height="22.232" fill="#D9D9D9"/>
</mask>
<g mask="url(#mask0_6701_57964)">
<path d="M17.0785 7.20672C17.0785 7.20672 15.4292 5.36607 12.8712 6.10313C10.2881 6.85021 9.69419 9.17156 10.1013 10.6697C10.7791 13.1593 13.7526 13.4657 13.7526 13.4657L17.0785 7.20672Z" fill="white" stroke="#0D529D" stroke-width="1.37004" stroke-linecap="round" stroke-linejoin="round"/>
<path d="M13.3004 13.3926C13.3004 13.3926 11.7203 11.4959 9.19166 12.2129C6.63788 12.936 6.00204 15.2914 6.36926 16.8196C6.9799 19.3612 9.89463 19.7157 9.89463 19.7157L13.3004 13.3926Z" fill="white" stroke="#0D529D" stroke-width="1.37004" stroke-linecap="round" stroke-linejoin="round"/>
<path d="M9.89019 20.2559C9.89019 20.2559 8.31008 18.3592 5.78148 19.0762C3.2277 19.7993 2.59188 22.1547 2.95911 23.6829C3.56975 26.2245 6.48445 26.579 6.48445 26.579L9.89019 20.2559Z" fill="white" stroke="#0D529D" stroke-width="0.969054" stroke-linecap="round" stroke-linejoin="round"/>
<path d="M23.3062 4.11282C23.3062 4.11282 22.6284 2.00378 20.1271 1.73139C17.5985 1.45699 16.1485 3.18547 15.8945 4.57547C15.4707 6.8868 17.0004 7.61185 17.0004 7.61185L23.3041 4.11081L23.3062 4.11282Z" fill="white" stroke="#0D529D" stroke-width="1.37004" stroke-linecap="round" stroke-linejoin="round"/>
<path d="M36.0195 21.5843C36.0195 21.5843 35.6124 22.0089 35.6271 22.033C35.6396 22.055 35.8138 22.2773 36.1223 22.2773C36.2314 22.2773 36.1663 22.3955 36.2755 22.4556C36.3069 22.4736 36.3216 22.5116 36.3321 22.5417C37.0582 24.9271 38.7432 31.5286 38.0612 39.5682C37.2638 48.9757 31.9611 57.0954 21.618 57.1254C6.88282 57.1695 1.10796 49.7448 3.99959 34.4809C6.67089 20.3826 12.1583 10.8949 18.0066 6.62077C23.7794 2.4007 30.5573 2.7472 34.6555 5.12462C41.6936 9.20649 40.1953 17.4624 36.0174 21.5883L36.0195 21.5843Z" fill="white"/>
<path d="M2.73438 37.529C3.28836 36.6698 3.84443 35.4861 4.01021 34.6068C6.6815 20.5086 12.1689 11.0209 18.0172 6.74674C23.79 2.52667 30.5679 2.87318 34.6661 5.2506C41.7042 9.33247 40.206 17.5884 36.028 21.7143" stroke="#0D529D" stroke-width="1.37004" stroke-linecap="round" stroke-linejoin="round"/>
<path d="M20.339 8.94301C19.6046 9.01912 19.0023 9.33156 18.5323 9.87834C18.0748 10.4291 17.8859 11.058 17.9678 11.7631C18.0496 12.4681 18.3749 13.0409 18.9457 13.4775C19.529 13.9182 20.1879 14.1024 20.9224 14.0243C21.6568 13.9462 22.2612 13.6337 22.7186 13.083C23.1824 12.5382 23.3733 11.9113 23.2936 11.2042C23.2117 10.4972 22.8823 9.92441 22.3052 9.48178C21.7345 9.04515 21.0798 8.8649 20.339 8.94301Z" fill="#0D529D"/>
<path d="M35.6774 8.12104C35.05 8.19114 34.538 8.49557 34.1414 9.03634C33.7553 9.58113 33.6021 10.208 33.6797 10.915C33.7574 11.6221 34.0428 12.1969 34.5359 12.6395C35.0395 13.0862 35.6061 13.2764 36.2356 13.2063C36.8693 13.1362 37.3772 12.8298 37.7633 12.283C38.1536 11.7422 38.311 11.1193 38.2333 10.4123C38.1557 9.70531 37.8682 9.12847 37.3688 8.68183C36.8757 8.23919 36.3112 8.05292 35.6774 8.12302V8.12104Z" fill="#0D529D"/>
<path d="M31.2436 7.82862C31.3569 7.70845 31.5458 7.59429 31.8081 7.48614C31.827 7.47812 31.8479 7.47212 31.8689 7.47012C32.4397 7.39602 32.8866 7.54221 33.2056 7.90674C33.4406 8.17512 33.5414 8.48558 33.5078 8.84009C33.4763 9.18658 33.3189 9.46898 33.0398 9.6853C32.8426 9.84352 32.6264 9.94166 32.3935 9.97971C32.2865 9.99173 32.1753 9.99374 32.062 9.98372C31.9487 9.97371 31.8437 9.9537 31.7472 9.92365C31.5185 9.84554 31.3233 9.71333 31.1659 9.52506C30.9309 9.26468 30.8281 8.96026 30.8617 8.61376L30.8806 8.40746C30.9477 8.18714 31.0673 7.99286 31.2436 7.82662V7.82862Z" fill="#0D529D"/>
<path d="M34.2368 10.7791C30.8269 11.7785 26.9217 12.097 22.5234 11.7344" stroke="#0D529D" stroke-width="1.02753" stroke-linecap="round" stroke-linejoin="round"/>
<path d="M34.1804 10.7811C34.3882 11.7124 33.9916 12.2832 33.3096 12.3814C32.2331 12.5376 32.017 11.3339 32.017 11.3339C31.9372 12.2171 31.5406 12.7659 30.8125 12.8881C30.0843 13.0103 29.4883 12.5937 29.2617 11.7204C31.0328 11.5522 32.6926 11.2638 34.1804 10.7791V10.7811Z" fill="white" stroke="#0D529D" stroke-width="1.02753" stroke-linecap="round" stroke-linejoin="round"/>
<path d="M23.7201 10.2135C23.7201 10.2135 25.7094 9.60465 25.5605 9.04785C25.4115 8.49105 23.6719 8.18262 23.6719 8.18262" stroke="#0D529D" stroke-width="1.02753" stroke-linecap="round" stroke-linejoin="round"/>
</g>
<path d="M74.0003 28.3484C74.0003 29.5188 73.8128 30.5665 73.4377 31.4916C73.0626 32.3977 72.5297 33.1622 71.8387 33.7852C71.1676 34.4082 70.3582 34.8801 69.4107 35.201C68.4631 35.5219 67.407 35.6824 66.2423 35.6824C65.0777 35.6824 64.0216 35.5125 63.074 35.1727C62.1265 34.8329 61.3072 34.3515 60.6163 33.7286C59.9452 33.0867 59.422 32.3127 59.047 31.4066C58.6719 30.5005 58.4844 29.4811 58.4844 28.3484C58.4844 27.2346 58.6719 26.2247 59.047 25.3185C59.422 24.4124 59.9452 23.6479 60.6163 23.0249C61.3072 22.383 62.1265 21.8922 63.074 21.5524C64.0216 21.2126 65.0777 21.0427 66.2423 21.0427C67.407 21.0427 68.4631 21.2221 69.4107 21.5807C70.3582 21.9205 71.1676 22.4114 71.8387 23.0532C72.5297 23.6762 73.0626 24.4407 73.4377 25.3468C73.8128 26.253 74.0003 27.2535 74.0003 28.3484ZM63.6366 28.3484C63.6366 29.4999 63.8636 30.3872 64.3177 31.0102C64.7914 31.6143 65.4429 31.9163 66.272 31.9163C67.1011 31.9163 67.7327 31.6048 68.167 30.9819C68.6211 30.3589 68.8481 29.4811 68.8481 28.3484C68.8481 27.2157 68.6211 26.3474 68.167 25.7433C67.713 25.1203 67.0714 24.8088 66.2423 24.8088C65.4132 24.8088 64.7717 25.1203 64.3177 25.7433C63.8636 26.3474 63.6366 27.2157 63.6366 28.3484Z" fill="#0D529D"/>
<path d="M30.9443 20.7C31.6875 20.7 32.3846 20.7589 33.0352 20.8748L33.0361 20.8738C33.7102 20.9714 34.3041 21.1295 34.8125 21.3523L35.001 21.4402C35.4276 21.6532 35.7826 21.9266 36.0586 22.2634H36.0596C36.3934 22.6511 36.5576 23.1193 36.5576 23.6482C36.5576 24.1264 36.4586 24.5598 36.251 24.9382L36.252 24.9392C36.0731 25.2813 35.8362 25.5732 35.542 25.8113L35.3555 25.9617L35.1504 25.8386C35.0288 25.766 34.8237 25.6811 34.5176 25.5896L34.5088 25.5876L34.5 25.5847C34.2018 25.4778 33.8727 25.3869 33.5117 25.3142L33.5039 25.3132L33.4961 25.3113C33.1329 25.2199 32.7593 25.1465 32.376 25.0916L32.373 25.0906C32.0118 25.036 31.6833 25.0095 31.3877 25.0095C30.7552 25.0096 30.3051 25.084 30.0117 25.2087L30.0049 25.2117L29.9971 25.2146C29.8572 25.2666 29.7823 25.325 29.7432 25.3728C29.7085 25.4152 29.6876 25.4666 29.6875 25.5447C29.6875 25.6201 29.7137 25.691 29.832 25.7703L29.9678 25.8425C30.1395 25.918 30.4202 26.0026 30.835 26.0876H30.8389L31.7568 26.2859L31.7578 26.2869L32.4521 26.4519C34.0169 26.8572 35.1949 27.3978 35.9453 28.0974H35.9443C36.8283 28.8837 37.2676 29.9125 37.2676 31.1521C37.2675 32.5961 36.73 33.7661 35.6592 34.6306L35.4375 34.7996C34.229 35.6712 32.4869 36.0818 30.2627 36.0818C29.6293 36.0818 29.0276 36.0495 28.458 35.9841L27.8994 35.907C27.1676 35.7903 26.5259 35.614 25.9795 35.3728L25.9717 35.3699L25.9648 35.366C25.5021 35.1359 25.1108 34.8545 24.7979 34.5183L24.6689 34.3718L24.6611 34.3621V34.3611C24.3352 33.9376 24.1758 33.4379 24.1758 32.8787C24.1758 32.3799 24.2841 31.9359 24.5225 31.5671L24.6953 31.3123C24.8765 31.0681 25.0841 30.8562 25.3193 30.6794L25.4932 30.5496L25.6855 30.6501C26.239 30.9421 26.8728 31.2094 27.5889 31.45C28.2981 31.6628 29.1189 31.7722 30.0557 31.7722C30.6458 31.7722 31.0428 31.6887 31.2852 31.5583L31.293 31.5544L31.3818 31.5037C31.5687 31.3878 31.6083 31.2775 31.6084 31.1804C31.6084 31.0765 31.5797 30.9922 31.5039 30.9177L31.4111 30.8455C31.2346 30.733 30.8967 30.6189 30.3535 30.5261L30.3467 30.5251L29.46 30.3552V30.3562C27.7173 30.0306 26.3706 29.5158 25.459 28.7859L25.4521 28.78V28.7791C24.532 28.0034 24.0869 26.9084 24.0869 25.5447C24.087 24.7926 24.2581 24.1023 24.6045 23.4812L24.7402 23.2546C25.0716 22.7379 25.5084 22.3013 26.0469 21.946L26.2803 21.7996C26.8366 21.4689 27.4757 21.2117 28.1924 21.0232L28.1943 21.0222L28.5127 20.947C29.2654 20.782 30.0766 20.7 30.9443 20.7Z" fill="#0D529D" stroke="white" stroke-width="0.685021"/>
<path d="M53.8359 20.7C56.1076 20.7 57.9099 21.1803 59.1963 22.1873H59.1973C60.4942 23.1837 61.1366 24.5818 61.1367 26.3376V35.4587L60.8887 35.53C60.6653 35.5941 60.3285 35.6528 59.8926 35.7097L59.8936 35.7107C59.4624 35.7696 59.0122 35.7986 58.5439 35.7986C58.0952 35.7986 57.682 35.7687 57.3057 35.7087H57.3027C56.9716 35.6529 56.6723 35.5457 56.4111 35.3826L56.3018 35.3093C56.0151 35.1037 55.7919 34.8316 55.6309 34.5017L55.624 34.489L55.6191 34.4763C55.4798 34.1208 55.418 33.687 55.418 33.1902V26.5076C55.4179 25.993 55.2652 25.6885 55.0234 25.5085L55.0146 25.5017L55.0068 25.4949C54.7517 25.2797 54.3754 25.1511 53.8359 25.1511C53.4694 25.1511 53.1021 25.195 52.7334 25.283C52.4604 25.3518 52.2228 25.4478 52.0166 25.5662V35.4587L51.7686 35.53C51.5452 35.5941 51.2084 35.6528 50.7725 35.7097L50.7734 35.7107C50.3423 35.7696 49.8921 35.7986 49.4238 35.7986C48.9751 35.7986 48.5619 35.7687 48.1855 35.7087H48.1826C47.8515 35.6529 47.5522 35.5457 47.291 35.3826L47.1816 35.3093C46.9309 35.1295 46.7287 34.8986 46.5742 34.6228L46.5107 34.5017L46.499 34.4763C46.3597 34.1208 46.2979 33.687 46.2979 33.1902V24.696L46.3037 24.49C46.3301 24.0182 46.45 23.6014 46.6826 23.2576L46.6904 23.2458L46.7939 23.114C46.9719 22.8964 47.1812 22.6935 47.4209 22.5056L47.7236 22.2869C48.4322 21.8088 49.3064 21.4276 50.3379 21.1375H50.3398L50.7422 21.0349C51.6934 20.8112 52.7251 20.7 53.8359 20.7Z" fill="#0D529D" stroke="white" stroke-width="0.685021"/>
<path d="M44.6826 21.3442C45.1297 21.3442 45.5334 21.3729 45.8916 21.4331H45.8926C46.2893 21.4963 46.6395 21.6263 46.9297 21.8345C47.2275 22.0481 47.4448 22.3412 47.585 22.6987H47.584C47.7456 23.0433 47.8164 23.4704 47.8164 23.9595V35.7788L47.5264 35.8286C47.3017 35.8677 46.9696 35.9164 46.5342 35.9731L46.5332 35.9722C46.1032 36.0494 45.6641 36.0893 45.2158 36.0894C44.7669 36.0894 44.3533 36.0595 43.9766 35.9995H43.9727C43.6407 35.9435 43.3402 35.8362 43.0781 35.6724L42.9688 35.5991C42.681 35.3928 42.4564 35.1195 42.2949 34.7886L42.2891 34.7759L42.2354 34.6255C42.1297 34.2965 42.0821 33.9095 42.082 33.4741V21.6548L42.3721 21.604C42.5955 21.5652 42.9164 21.5172 43.332 21.4604C43.7818 21.383 44.232 21.3442 44.6826 21.3442ZM44.9492 15.0298C45.8492 15.0298 46.604 15.2978 47.1748 15.8628L47.3799 16.0786C47.8269 16.5964 48.0527 17.218 48.0527 17.9282C48.0527 18.7377 47.7586 19.431 47.1787 19.9878L47.1797 19.9888C46.6083 20.5568 45.8516 20.8266 44.9492 20.8267C44.0462 20.8267 43.2826 20.5561 42.6934 19.9927L42.6885 19.9888C42.1268 19.4301 41.8458 18.7354 41.8457 17.9282C41.8457 17.121 42.1269 16.4264 42.6885 15.8677L42.6934 15.8628L42.8066 15.7603C43.3792 15.2665 44.1028 15.0298 44.9492 15.0298Z" fill="#0D529D" stroke="white" stroke-width="0.7"/>
<path d="M37.0176 18.5706C37.9112 18.5706 38.6528 18.7237 39.2041 19.0696H39.2051C39.207 19.0707 39.209 19.0724 39.2109 19.0735C39.2136 19.0752 39.217 19.0767 39.2197 19.0784H39.2188C39.869 19.4603 40.1211 20.2378 40.1211 21.2141V22.676H43.8535L43.9541 22.8528C44.0892 23.0897 44.2071 23.3796 44.3105 23.7161H44.3096C44.4399 24.0584 44.5039 24.4335 44.5039 24.8381C44.5039 25.4575 44.3748 25.9899 44.0654 26.3782L43.9219 26.5354C43.5452 26.8956 43.0453 27.0569 42.4658 27.0569H40.1211V30.9827C40.1211 31.3892 40.2456 31.6078 40.4297 31.7327L40.5332 31.7903C40.7892 31.9165 41.1492 31.9924 41.6367 31.9924C41.9145 31.9924 42.2029 31.9741 42.502 31.9387C42.8028 31.8845 43.0608 31.8232 43.2773 31.7542L43.499 31.6838L43.6494 31.8596C43.8433 32.0863 44.0037 32.342 44.1328 32.6233L44.1943 32.7424C44.3262 33.0256 44.3857 33.3491 44.3857 33.7014C44.3857 34.526 44.0491 35.2092 43.3975 35.7268L43.3984 35.7278C42.7456 36.2629 41.6501 36.4866 40.2158 36.4866C38.433 36.4866 37.0021 36.0995 35.9707 35.2776L35.9678 35.2756C34.9282 34.4295 34.4473 33.0806 34.4473 31.3225V18.9329L34.709 18.8645L34.9014 18.8186C35.1069 18.7741 35.3583 18.7321 35.6523 18.6897V18.6887C36.089 18.6092 36.5443 18.5706 37.0176 18.5706Z" fill="#0D529D" stroke="white" stroke-width="0.7"/>
<path d="M17.9099 20.9189C18.9512 20.6521 19.946 20.5584 20.8918 20.6437L20.8927 20.6434C21.8511 20.7233 22.7222 20.9509 23.5007 21.3317L23.4998 21.332C24.2972 21.7076 24.9761 22.2294 25.532 22.8965L25.5311 22.8967C26.1071 23.5601 26.5182 24.3355 26.7655 25.218C26.9337 25.8182 26.9228 26.3725 26.6928 26.8512L26.5806 27.0513C26.3026 27.4842 25.8772 27.8266 25.3293 28.0895L25.0877 28.1968L18.7303 30.8417C19.0268 31.1222 19.411 31.3119 19.8976 31.4074C20.5695 31.522 21.3018 31.4829 22.0993 31.2786C22.855 31.085 23.5359 30.816 24.1429 30.4738C24.7748 30.1022 25.2553 29.7452 25.5946 29.4053L25.7372 29.263L25.9338 29.3204C26.3464 29.4411 26.7223 29.6593 27.0597 29.9662L27.1849 30.0873C27.4648 30.3765 27.6609 30.7116 27.7667 31.0892C27.8972 31.555 27.9013 32.0066 27.7642 32.4334C27.6276 32.8581 27.3579 33.235 26.9792 33.5688L26.9804 33.5695C26.4953 34.0017 25.9288 34.3654 25.2841 34.6623L25.0033 34.7856C24.2584 35.0958 23.5428 35.3393 22.8574 35.5149C21.7034 35.8106 20.58 35.9374 19.4887 35.8933L19.4806 35.8934C18.3995 35.8251 17.3897 35.5736 16.4543 35.1379L16.4497 35.136C15.6424 34.7472 14.9185 34.2049 14.2785 33.5134L14.0092 33.2075L14.0048 33.2026C13.3132 32.3492 12.7953 31.2886 12.4432 30.0319C12.0961 28.7931 11.9997 27.6596 12.1701 26.6398L12.1702 26.6368L12.2467 26.2584C12.4447 25.3909 12.7804 24.6214 13.2569 23.9546L13.4652 23.6704C13.8949 23.1145 14.4061 22.6356 14.9987 22.2353L15.3014 22.0419C16.111 21.5315 16.9812 21.1569 17.9099 20.9189ZM19.0452 24.9709C18.6227 25.0791 18.2869 25.237 18.0281 25.4371C17.7806 25.6382 17.6018 25.8599 17.483 26.1009L17.4762 26.1127C17.3516 26.3416 17.2744 26.5916 17.245 26.8653L17.2392 27.0654C17.2395 27.1217 17.2414 27.1779 17.245 27.2342L21.1398 25.5529C21.0281 25.4213 20.8795 25.291 20.6871 25.1639L20.536 25.0696C20.1773 24.8597 19.6953 24.8044 19.0452 24.9709Z" fill="#0D529D" stroke="white" stroke-width="0.685021"/>
<path d="M15.6523 15.3037L15.7383 15.4326C15.9211 15.7074 16.068 16.0657 16.1875 16.4951H16.1885C16.3387 16.9261 16.4131 17.3795 16.4131 17.8535C16.4131 18.6959 16.2338 19.3781 15.8184 19.8359L15.7324 19.9238C15.2946 20.3426 14.7057 20.5361 14.0029 20.5361H6.99121V23.7148H14.459L14.5459 23.8291C14.7565 24.106 14.918 24.4579 15.04 24.873H15.041C15.1912 25.304 15.2656 25.7575 15.2656 26.2314C15.2656 27.0554 15.0853 27.7253 14.6709 28.1807L14.585 28.2695C14.1471 28.6881 13.5582 28.8818 12.8555 28.8818H7.06055V35.8311L6.84473 35.8867C6.5697 35.9584 6.14757 36.0261 5.58984 36.0928L5.59082 36.0938C5.04596 36.1617 4.50021 36.1953 3.95508 36.1953C3.40675 36.1953 2.91074 36.1504 2.46973 36.0566V36.0557C2.09815 35.9916 1.76487 35.8722 1.47559 35.6914L1.35352 35.6094C1.06613 35.4033 0.845263 35.1295 0.689453 34.7959L0.626953 34.6494C0.469779 34.2486 0.398469 33.743 0.398438 33.1475V18.6846C0.398469 17.6688 0.709419 16.8337 1.35645 16.2148L1.48047 16.1035C2.11146 15.5624 2.93448 15.3037 3.9209 15.3037H15.6523Z" fill="#0D529D" stroke="white" stroke-width="0.57821"/>
</svg>
