<svg width="20" height="20" viewBox="0 0 20 20" fill="none" xmlns="http://www.w3.org/2000/svg">
<g clip-path="url(#clip0_6766_17174)">
<mask id="mask0_6766_17174" style="mask-type:luminance" maskUnits="userSpaceOnUse" x="0" y="0" width="20" height="20">
<path d="M20 0H0V20H20V0Z" fill="white"/>
</mask>
<g mask="url(#mask0_6766_17174)">
<path d="M17.2945 6.07479L9.38281 1.62134L8.69764 2.77838L16.6093 7.23184L17.2945 6.07479Z" fill="#13D4FF"/>
<mask id="mask1_6766_17174" style="mask-type:luminance" maskUnits="userSpaceOnUse" x="3" y="2" width="14" height="17">
<path fill-rule="evenodd" clip-rule="evenodd" d="M16.0503 5.37509L10.6252 2.32129L7.7949 7.10076L4.07162 8.91713L4.02294 8.88973L3.10938 10.4325L7.17824 12.7228L4.43756 17.351L4.65891 18.5041L5.79384 18.1144L8.53453 13.4863L12.6034 15.7766L13.517 14.2339L13.4683 14.2065L13.2201 10.1546L16.0503 5.37509Z" fill="white"/>
</mask>
<g mask="url(#mask1_6766_17174)">
<path d="M10.6253 2.3212L11.2384 1.23192L10.1728 0.63208L9.54968 1.68428L10.6253 2.3212ZM16.0504 5.375L17.126 6.01192L17.7771 4.91248L16.6636 4.28571L16.0504 5.375ZM7.79496 7.10067L8.34302 8.22411L8.67966 8.05989L8.87052 7.73759L7.79496 7.10067ZM4.07168 8.91704L3.45851 10.0063L4.03016 10.3281L4.61975 10.0405L4.07168 8.91704ZM4.02299 8.88964L4.63617 7.80036L3.57053 7.20049L2.94743 8.25271L4.02299 8.88964ZM3.10943 10.4324L2.03387 9.79543L1.38281 10.8949L2.49628 11.5217L3.10943 10.4324ZM7.1783 12.7227L8.25386 13.3596L8.90492 12.2602L7.79145 11.6334L7.1783 12.7227ZM4.43761 17.3509L3.36205 16.714L3.12074 17.1215L3.21003 17.5865L4.43761 17.3509ZM4.65897 18.504L3.43139 18.7396L3.70288 20.1538L5.06486 19.6862L4.65897 18.504ZM5.7939 18.1143L6.19979 19.2966L6.635 19.1472L6.86946 18.7513L5.7939 18.1143ZM8.53459 13.4862L9.14774 12.3969L8.08212 11.797L7.45903 12.8492L8.53459 13.4862ZM12.6035 15.7765L11.9903 16.8658L13.056 17.4656L13.6791 16.4134L12.6035 15.7765ZM13.5171 14.2338L14.5926 14.8707L15.2437 13.7713L14.1302 13.1445L13.5171 14.2338ZM13.4684 14.2064L12.2207 14.2828L12.2623 14.9619L12.8552 15.2957L13.4684 14.2064ZM13.2202 10.1545L12.1446 9.51755L11.949 9.8478L11.9725 10.2309L13.2202 10.1545ZM10.0121 3.41049L15.4373 6.46428L16.6636 4.28571L11.2384 1.23192L10.0121 3.41049ZM8.87052 7.73759L11.7008 2.95812L9.54968 1.68428L6.71939 6.46375L8.87052 7.73759ZM4.61975 10.0405L8.34302 8.22411L7.24689 5.97723L3.52362 7.7936L4.61975 10.0405ZM3.40982 9.97891L3.45851 10.0063L4.68486 7.82777L4.63617 7.80036L3.40982 9.97891ZM4.18499 11.0693L5.09855 9.52656L2.94743 8.25271L2.03387 9.79543L4.18499 11.0693ZM7.79145 11.6334L3.72258 9.34307L2.49628 11.5217L6.56515 13.812L7.79145 11.6334ZM5.51317 17.9878L8.25386 13.3596L6.10274 12.0858L3.36205 16.714L5.51317 17.9878ZM5.88656 18.2683L5.66519 17.1152L3.21003 17.5865L3.43139 18.7396L5.88656 18.2683ZM5.38801 16.9321L4.25308 17.3217L5.06486 19.6862L6.19979 19.2966L5.38801 16.9321ZM7.45903 12.8492L4.71834 17.4774L6.86946 18.7513L9.61015 14.1231L7.45903 12.8492ZM13.2166 14.6872L9.14774 12.3969L7.92143 14.5754L11.9903 16.8658L13.2166 14.6872ZM12.4415 13.5969L11.5279 15.1396L13.6791 16.4134L14.5926 14.8707L12.4415 13.5969ZM12.8552 15.2957L12.9039 15.3231L14.1302 13.1445L14.0815 13.1171L12.8552 15.2957ZM11.9725 10.2309L12.2207 14.2828L14.716 14.13L14.4678 10.078L11.9725 10.2309ZM14.9749 4.73808L12.1446 9.51755L14.2957 10.7914L17.126 6.01192L14.9749 4.73808Z" fill="#13D4FF"/>
</g>
</g>
</g>
<defs>
<clipPath id="clip0_6766_17174">
<rect width="20" height="20" fill="white"/>
</clipPath>
</defs>
</svg>
